<svg xmlns="http://www.w3.org/2000/svg" viewBox="0 0 1024 128"><circle cx="510.046" cy="98.926" r="18.743" opacity=".5"/><circle cx="601.84" cy="102.766" r="10.971" opacity=".5"/><circle cx="40.728" cy="492.716" r="6.491" opacity=".5" transform="rotate(-76.7)"/><circle cx="499.44" cy="59.977" r="4.297" opacity=".5"/><circle cx="63.569" cy="487.786" r="2.651" opacity=".5" transform="rotate(-76.7)"/><circle cx="498.343" cy="41.051" r="1.92" opacity=".5"/><circle cx="593.337" cy="81.097" r="4.297" opacity=".5"/><circle cx="601.2" cy="69.394" r="1.92" opacity=".5"/><circle cx="132.537" cy="18.743" r="18.743" opacity=".5"/><path d="M149.726 128a75 75 0 0 0 1.554-14.263 64.64 64.64 0 1 0-129.28 0A62.5 62.5 0 0 0 23.554 128Z" opacity=".5"/><path d="M621.863 128a28.07 28.07 0 0 0-6.857-14.811h-.092a26.88 26.88 0 0 0-37.943-1.555 27.43 27.43 0 0 0-10.24-15.908h-.091a26.88 26.88 0 0 0-37.577 5.485 28 28 0 0 0-5.029-2.377 26.97 26.97 0 0 0-34.103 16.823 26.7 26.7 0 0 0-14.354-4.114A26.88 26.88 0 0 0 450.8 128ZM165.451 128a22.86 22.86 0 0 0-5.303-11.337 20.937 20.937 0 0 0-29.531-1.372 21.4 21.4 0 0 0-7.863-12.16h-.091a20.846 20.846 0 0 0-29.166 4.206 24.4 24.4 0 0 0-3.84-1.828 20.846 20.846 0 0 0-26.423 13.074 21.03 21.03 0 0 0-11.154-3.2A20.75 20.75 0 0 0 32.88 128Z"/><g id="a1"><circle cx="239.051" cy="78.72" r="9.417" opacity=".5"/><circle cx="250.206" cy="57.417" r="5.851" opacity=".5"/><circle cx="241.428" cy="43.977" r="2.651" opacity=".5"/><path d="M341.177 128A38.766 38.766 0 0 0 306.8 93.623h-.274A38.674 38.674 0 0 0 263.92 128Z" opacity=".5"/><path d="M356.537 128a34.194 34.194 0 0 0-40.046-12.434 33.83 33.83 0 0 0-25.783-11.795 33.2 33.2 0 0 0-8.411 1.098l-1.646-1.646a33.737 33.737 0 0 0-47.725 2.103h-.092a33.92 33.92 0 0 0-42.514 22.125c0 .183-.091.366-.091.549z"/></g><use href="#a1" transform="matrix(-1.3431 0 0 1.3431 1230.35 -43.917)"/></svg>