<svg xmlns="http://www.w3.org/2000/svg" viewBox="0 0 1024 128"><path d="M679.76 127.908A66.722 66.722 0 0 0 595.1 39.77a66.905 66.905 0 0 0-110.93-17.573 66.905 66.905 0 0 0-81.732 12.906 66.814 66.814 0 0 0-77.522 92.806Z" opacity=".5"/><path d="M0 128h686.442a18.946 18.946 0 0 0-18.672-15.925h-1.556a18.76 18.76 0 0 0-17.756-12.448 18 18 0 0 0-5.4.824 15.7 15.7 0 0 0-3.386-3.57 18.854 18.854 0 0 0-26.542 2.838 18.946 18.946 0 0 0-25.628 12.63 19.9 19.9 0 0 0-5.674-.915 19.04 19.04 0 0 0-17.115 10.891 15.834 15.834 0 0 0-19.13-11.806 15.56 15.56 0 0 0-8.694 5.4 19.22 19.22 0 0 0-14.37-6.499 20.5 20.5 0 0 0-4.667.641 18.946 18.946 0 0 0-33.773-3.661 19.22 19.22 0 0 0-23.43 11.35 19.22 19.22 0 0 0-12.082 8.511 3.8 3.8 0 0 0 .091-1.007 32.492 32.492 0 0 0-57.935-20.227 46.95 46.95 0 0 0-42.194-26.268 45 45 0 0 0-9.885 1.099 47.044 47.044 0 0 0-90.793 2.288 48.7 48.7 0 0 0-16.566-3.02 47.04 47.04 0 0 0-33.498 14.003 32.492 32.492 0 0 0-44.665 20.593 33.04 33.04 0 0 0-18.946-6.681 32.583 32.583 0 0 0-32.4-29.746 32.03 32.03 0 0 0-21.325 8.054 32.49 32.49 0 0 0-44.573 9.336l-4.027-.183A32.95 32.95 0 0 0 0 118.939ZM730.436 128H1024V46.256c-21.243.535-40.682 15.245-45.713 35.89a48.7 48.7 0 0 0-16.567-3.02 47.04 47.04 0 0 0-33.498 14.003c-18.053-8.203-39.18 1.538-44.664 20.593a33.04 33.04 0 0 0-18.946-6.681c-1.47-16.809-15.528-29.715-32.4-29.746a32.03 32.03 0 0 0-21.326 8.054c-14.917-9.563-34.746-5.41-44.573 9.336l-4.027-.183c-14.926-.01-27.995 10.017-31.85 24.437z"/><path id="a3" d="M710.591 127.908a47.502 47.502 0 0 1 60.773-61.87 47.59 47.59 0 0 1 57.478-13.547 47.41 47.41 0 0 1 66.814-5.766 46.9 46.9 0 0 1 12.447 16.2 47.502 47.502 0 0 1 63.519 64.983z" opacity=".5"/><use href="#a3" transform="translate(-692)"/></svg>