<svg xmlns="http://www.w3.org/2000/svg" viewBox="0 0 1024 128"><path d="M512.012 0A2405.6 2405.6 0 0 0 0 55.014v2.177a2402.6 2402.6 0 0 1 1024 .204v-2.178A2405.6 2405.6 0 0 0 512.012 0m0 12.904A2407.6 2407.6 0 0 0 0 67.873v3.629a2402.9 2402.9 0 0 1 1024 .203v-3.629a2407.6 2407.6 0 0 0-511.988-55.172m0 14.303A2412.2 2412.2 0 0 0 0 82.067v7.257a2402.7 2402.7 0 0 1 1024 .203v-7.256a2412.2 2412.2 0 0 0-511.988-55.064m0 17.873A2422 2422 0 0 0 0 99.715V128h1024V99.918A2422 2422 0 0 0 512.012 45.08m-.506 14.125a2405 2405 0 0 1 453.685 43.182h-56.89a2445.5 2445.5 0 0 0-793.588 0H57.82a2405 2405 0 0 1 453.686-43.182"/></svg>