<svg xmlns="http://www.w3.org/2000/svg" viewBox="0 0 1024 128"><path d="M1024 128H0V3.315l4.865 1.752a23.43 23.43 0 0 0 15.87 0L29.7 1.675a23.43 23.43 0 0 1 17.4 0l8.965 3.392a23.43 23.43 0 0 0 15.87 0L80.9 1.675a23.43 23.43 0 0 1 17.4 0l8.965 3.392a23.43 23.43 0 0 0 15.87 0l8.965-3.392a23.43 23.43 0 0 1 17.4 0l8.965 3.392a23.43 23.43 0 0 0 15.87 0l8.965-3.392a23.43 23.43 0 0 1 17.4 0l8.965 3.392a23.43 23.43 0 0 0 15.87 0l8.965-3.392a23.43 23.43 0 0 1 17.4 0l8.965 3.392a23.43 23.43 0 0 0 15.87 0l8.965-3.392a23.43 23.43 0 0 1 17.4 0l8.965 3.392a23.43 23.43 0 0 0 15.87 0l8.965-3.392a23.43 23.43 0 0 1 17.4 0l8.965 3.392a23.43 23.43 0 0 0 15.87 0l8.965-3.392a23.43 23.43 0 0 1 17.4 0l8.965 3.392a23.43 23.43 0 0 0 15.87 0l8.965-3.392a23.43 23.43 0 0 1 17.4 0l8.965 3.392a23.43 23.43 0 0 0 15.87 0l8.965-3.392a23.43 23.43 0 0 1 17.4 0l8.964 3.392a23.43 23.43 0 0 0 15.872 0l8.965-3.392a23.42 23.42 0 0 1 17.398 0l8.965 3.392a23.43 23.43 0 0 0 15.872 0l8.965-3.392a23.42 23.42 0 0 1 17.398 0l8.965 3.392a23.43 23.43 0 0 0 15.872 0l8.965-3.392a23.42 23.42 0 0 1 17.398 0l8.965 3.392a23.43 23.43 0 0 0 15.872 0l8.965-3.392a23.42 23.42 0 0 1 17.398 0l8.965 3.392a23.43 23.43 0 0 0 15.872 0l8.965-3.392a23.42 23.42 0 0 1 17.398 0l8.965 3.392a23.43 23.43 0 0 0 15.872 0l8.965-3.392a23.42 23.42 0 0 1 17.398 0l8.965 3.392a23.43 23.43 0 0 0 15.872 0l8.965-3.392a23.42 23.42 0 0 1 17.398 0l8.965 3.392a23.43 23.43 0 0 0 15.872 0l8.965-3.392a23.42 23.42 0 0 1 17.398 0l8.965 3.392a23.43 23.43 0 0 0 15.872 0l8.965-3.392a23.42 23.42 0 0 1 17.398 0l8.965 3.392a23.43 23.43 0 0 0 15.872 0l8.965-3.392a23.42 23.42 0 0 1 17.398 0l4.101 1.64Z"/></svg>