<svg xmlns="http://www.w3.org/2000/svg" viewBox="0 0 1024 128"><path d="m48.762 121.905 24.38-24.381 24.382 24.38 24.38-24.38 24.382 24.38 24.38-24.38 24.382 24.38 24.38-24.38 24.382 24.38 24.38-24.38 24.381 24.38 24.381-24.38 24.381 24.38 24.381-24.38 24.381 24.38 24.381-24.38 24.381 24.38 24.381-24.38 24.381 24.38L512 97.525l24.38 24.38 24.382-24.38 24.38 24.38 24.382-24.38 24.38 24.38 24.382-24.38 24.38 24.38 24.382-24.38 24.38 24.38 24.382-24.38 24.38 24.38 24.381-24.38 24.381 24.38 24.381-24.38 24.381 24.38 24.381-24.38 24.381 24.38 24.381-24.38 24.381 24.38 24.381-24.38 24.381 24.38v-24.38l-24.38-24.381-24.382 24.38-24.38-24.38-24.382 24.38-24.38-24.38-24.382 24.38-24.38-24.38-24.382 24.38-24.38-24.38-24.382 24.38-24.38-24.38-24.381 24.38-24.381-24.38-24.381 24.38-24.381-24.38-24.381 24.38-24.381-24.38-24.381 24.38-24.381-24.38-24.381 24.38L512 73.144l-24.38 24.38-24.382-24.38-24.38 24.38-24.382-24.38-24.38 24.38-24.382-24.38-24.38 24.38-24.382-24.38-24.38 24.38-24.382-24.38-24.38 24.38-24.381-24.38-24.381 24.38-24.381-24.38-24.381 24.38-24.381-24.38-24.381 24.38-24.381-24.38-24.381 24.38-24.381-24.38L0 97.523v24.382l24.381-24.381Z" opacity=".75" style="isolation:isolate"/><path d="m1024 121.905-24.38-24.381-24.382 24.38-24.38-24.38-24.382 24.38-24.38-24.38-24.382 24.38-24.38-24.38-24.382 24.38-24.38-24.38-24.382 24.38-24.38-24.38-24.381 24.38-24.381-24.38-24.381 24.38-24.381-24.38-24.381 24.38-24.381-24.38-24.381 24.38-24.381-24.38-24.381 24.38L512 97.525l-24.38 24.38-24.382-24.38-24.38 24.38-24.382-24.38-24.38 24.38-24.382-24.38-24.38 24.38-24.382-24.38-24.38 24.38-24.382-24.38-24.38 24.38-24.381-24.38-24.381 24.38-24.381-24.38-24.381 24.38-24.381-24.38-24.381 24.38-24.381-24.38-24.381 24.38-24.381-24.38L0 121.904V128h1024z"/><path d="m48.762 97.524 24.38-24.381 24.382 24.38 24.38-24.38 24.382 24.38 24.38-24.38 24.382 24.38 24.38-24.38 24.382 24.38 24.38-24.38 24.381 24.38 24.381-24.38 24.381 24.38 24.381-24.38 24.381 24.38 24.381-24.38 24.381 24.38 24.381-24.38 24.381 24.38L512 73.144l24.38 24.38 24.382-24.38 24.38 24.38 24.382-24.38 24.38 24.38 24.382-24.38 24.38 24.38 24.382-24.38 24.38 24.38 24.382-24.38 24.38 24.38 24.381-24.38 24.381 24.38 24.381-24.38 24.381 24.38 24.381-24.38 24.381 24.38 24.381-24.38 24.381 24.38 24.381-24.38L1024 97.523v-24.38l-24.38-24.381-24.382 24.38-24.38-24.38-24.382 24.38-24.38-24.38-24.382 24.38-24.38-24.38-24.382 24.38-24.38-24.38-24.382 24.38-24.38-24.38-24.381 24.38-24.381-24.38-24.381 24.38-24.381-24.38-24.381 24.38-24.381-24.38-24.381 24.38-24.381-24.38-24.381 24.38L512 48.763l-24.38 24.38-24.382-24.38-24.38 24.38-24.382-24.38-24.38 24.38-24.382-24.38-24.38 24.38-24.382-24.38-24.38 24.38-24.382-24.38-24.38 24.38-24.381-24.38-24.381 24.38-24.381-24.38-24.381 24.38-24.381-24.38-24.381 24.38-24.381-24.38-24.381 24.38-24.381-24.38L0 73.142v24.382l24.381-24.381Z" opacity=".5"/><path d="m48.762 73.143 24.38-24.381 24.382 24.38 24.38-24.38 24.382 24.38 24.38-24.38 24.382 24.38 24.38-24.38 24.382 24.38 24.38-24.38 24.381 24.38 24.381-24.38 24.381 24.38 24.381-24.38 24.381 24.38 24.381-24.38 24.381 24.38 24.381-24.38 24.381 24.38L512 48.763l24.38 24.38 24.382-24.38 24.38 24.38 24.382-24.38 24.38 24.38 24.382-24.38 24.38 24.38 24.382-24.38 24.38 24.38 24.382-24.38 24.38 24.38 24.381-24.38 24.381 24.38 24.381-24.38 24.381 24.38 24.381-24.38 24.381 24.38 24.381-24.38 24.381 24.38 24.381-24.38L1024 73.142v-24.38L999.62 24.38l-24.382 24.38-24.38-24.38-24.382 24.38-24.38-24.38-24.382 24.38-24.38-24.38-24.382 24.38-24.38-24.38-24.382 24.38-24.38-24.38-24.381 24.38-24.381-24.38-24.381 24.38-24.381-24.38-24.381 24.38-24.381-24.38-24.381 24.38-24.381-24.38-24.381 24.38L512 24.382l-24.38 24.38-24.382-24.38-24.38 24.38-24.382-24.38-24.38 24.38-24.382-24.38-24.38 24.38-24.382-24.38-24.38 24.38-24.382-24.38-24.38 24.38-24.381-24.38-24.381 24.38-24.381-24.38-24.381 24.38-24.381-24.38-24.381 24.38-24.381-24.38-24.381 24.38-24.381-24.38L0 48.761v24.382l24.381-24.381Z" opacity=".25"/><path d="m48.762 48.762 24.38-24.381 24.382 24.38 24.38-24.38 24.382 24.38 24.38-24.38 24.382 24.38 24.38-24.38 24.382 24.38 24.38-24.38 24.381 24.38 24.381-24.38 24.381 24.38 24.381-24.38 24.381 24.38 24.381-24.38 24.381 24.38 24.381-24.38 24.381 24.38L512 24.382l24.38 24.38 24.382-24.38 24.38 24.38 24.382-24.38 24.38 24.38 24.382-24.38 24.38 24.38 24.382-24.38 24.38 24.38 24.382-24.38 24.38 24.38 24.381-24.38 24.381 24.38 24.381-24.38 24.381 24.38 24.381-24.38 24.381 24.38 24.381-24.38 24.381 24.38 24.381-24.38L1024 48.761v-24.38L999.62 0l-24.382 24.381L950.858 0l-24.382 24.381L902.096 0l-24.382 24.381L853.334 0l-24.382 24.381L804.572 0 780.19 24.381 755.81 0l-24.381 24.381L707.048 0l-24.381 24.381L658.286 0l-24.381 24.381L609.524 0l-24.381 24.381L560.762 0 536.38 24.381 512 0l-24.38 24.381L463.237 0l-24.38 24.381L414.475 0l-24.38 24.381L365.713 0l-24.38 24.381L316.951 0l-24.38 24.381L268.19 0l-24.38 24.381L219.429 0l-24.381 24.381L170.667 0l-24.381 24.381L121.905 0 97.524 24.381 73.143 0 48.762 24.381 24.38 0 0 24.381v24.38l24.381-24.38Z" opacity=".12"/></svg>