<svg xmlns="http://www.w3.org/2000/svg" viewBox="0 0 1024 128"><path d="M0 0v6.299L10.578 0Zm42.313 0L0 21.992v14.712L75.103 0Zm64.525 0L0 51.475v15.12L139.63 0Zm64.526 0L13.752 74.046H0V128h1024V74.046h-15.917L1024 66.595v-15.12l-47.65 22.57h-31.734L1024 36.706V21.991L911.824 74.046H880.09L1024 6.299V0h-18.031L848.356 74.046h-32.792L973.177 0h-31.735L783.83 74.046h-31.733L909.709 0h-32.792L719.305 74.046H687.57L845.183 0h-31.735l-157.61 74.046h-32.793L780.658 0h-31.735L591.311 74.046h-31.735L717.188 0h-32.792L526.784 74.046H495.05L652.664 0h-31.735L463.316 74.046h-32.792L588.137 0h-31.735l-157.61 74.046h-31.735L524.669 0h-32.791L334.265 74.046H302.53L460.143 0H428.41L270.798 74.046h-32.792L395.618 0h-31.735L206.271 74.046h-31.733L332.148 0h-32.79L141.747 74.046h-31.735L267.624 0h-31.735L78.277 74.046H45.485L203.097 0Z"/><path d="M0 0h1024v128H0Z" opacity=".5"/></svg>