<svg xmlns="http://www.w3.org/2000/svg" viewBox="0 0 1024 128"><path d="M1024 128H0V92.353c35.9 5.61 139.28 27.762 247.68 28.042 198.24.467 287.2-52.024 495.92-56.269 62.72-1.26 165.49 6.846 280.4 28.228Z"/><path id="a9" d="M94.905 50.248c.479 1.767 1.08 4.54 1.34 5.255.259.714.59 1.403.92 2.092a4.3 4.3 0 0 0 .597.753l.318.208a.76.76 0 0 0 .974-.434 5 5 0 0 0 .417-1.526c.014-1.298-.068-3.532-.055-3.941.013-.41-.07-.864-.11-1.416l.793-.045a1.52 1.52 0 0 0 1.605-1.148l.39-1.597c.177-.63.352-1.26.457-1.863a.61.61 0 0 1 .565-.448l.766.773c.713.63 1.265.592 1.799-.167a3.6 3.6 0 0 0 .455-.974l.67-1.94.41-.877c.675.079.383.832.986.936.604.104.578.923 1.227.93 1.982-1.447 3.86-3.18 5.79-4.769s3.736-3.295 5.81-4.936c.077.214.227-.487.161.668s-.015 2.189-.106 3.273l-.406 3.786a.99.99 0 0 0 .096.935 2.36 2.36 0 0 1 .369 2.13c-.02.169.032.312.012.48a1.14 1.14 0 0 0 1.09 1.222c.267.065.695-.09.948.384l-.514 1.48a3.04 3.04 0 0 0-.099 1.734c-.045.097-.045.097-.02.169a1.14 1.14 0 0 0 1.37.877l.98-.194.676.079-.52 1.24c-.41.876-.748 1.726-1.184 2.531a3.88 3.88 0 0 0 .017 2.5l.13.358a.76.76 0 0 0 1.084.091l.806-.453-.358 1.019-1.353 2.512-1.496 2.563a1.67 1.67 0 0 0 .122 1.897l.65.007c2.792-.77 5.157-2.275 7.626-3.494l.13.357c.07.864.168.91.797 1.085l2.026.236a2.74 2.74 0 0 0 1.695-.453c.358-.13 1.137-.655 1.144-.415.008.24-.034.578-.001.89a1.67 1.67 0 0 0 1.265 1.481 2.66 2.66 0 0 0 2.494-.258l.636-.473a2.51 2.51 0 0 0 3.17-.18l.636-.473 1.553-1.29-.104.603L144 68.58a61 61 0 0 0-3.03 5.465l-.663.402a.61.61 0 0 0-.292.753l.13.357c.499.709.22 1.053-.372 1.429l-.877.48-1.014.771a1.29 1.29 0 0 0-.267 1.715c.13.357.642.656.363 1-.28.344-.76.356-1.19.512a3 3 0 0 0-1.02.532c-.26.175-.227.486-.052.746l.636.416 1.22.69c.487.227.545.61.026.96l-.215.078a14.75 14.75 0 0 1-5.43 1.97l-1.215.44a.684.684 0 0 0-.552.929 3.6 3.6 0 0 0 .226 1.292 18.7 18.7 0 0 0 2.055 4.106 15.5 15.5 0 0 1 1.686 2.865 6 6 0 0 0 .999 1.416l.817.917a6.8 6.8 0 0 1 1.012 1.007l-.428.156a43.6 43.6 0 0 1-8.669-.495 7.2 7.2 0 0 0-1.883-.287l-.987-.046-.793.934-.071.026a.99.99 0 0 1-1.364.252l-1.72-.508a1.52 1.52 0 0 0-1.156-.065l-.215.077c-.656.643-.975 1.324-.28 2.124.051.142.057.383-.157.46a4.18 4.18 0 0 1-2.81-1.73 6 6 0 0 0-.72-.87 11.4 11.4 0 0 0-2.025-2.015 5.32 5.32 0 0 1-2.108-2.469 18.6 18.6 0 0 0-2.854-4.301c-.966-1.105-2.121-2.06-3.231-3.113a1.6 1.6 0 0 0-1.428-.371l-1.396-.06-1.013-.118c-.04.338-.176.63-.17.87l-.626 3.623-2.513 16.03a4.9 4.9 0 0 0-.08 1.566c.187 1.63.259 1.604-.937 2.765l-.87.72-.215.078a1.06 1.06 0 0 1-.434-.974l.396-.467a1.98 1.98 0 0 0 .872-1.61c.111-1.253.365-2.558.574-3.766.973-6.012 1.945-12.025 2.989-18.063a2.36 2.36 0 0 0 .014-1.298l-1.467-.924a2.66 2.66 0 0 0-2.149-.352l-8.937 2.11-1.675.284-5.897.683-.675-.078a1.2 1.2 0 0 0 .416-.636.91.91 0 0 0-.2-1.221l-.786-.605c-.83-.507-1.616-1.111-2.518-1.593l-3.297-1.957c.448-.324.909-.168 1.266-.298l2.072-.751a.61.61 0 0 0 .17-.87c-.123-.117-.22-.163-.273-.306-1.907-2.138-4.314-4.984-5.65-6.44-1.337-1.455-2.647-2.84-4.159-4.555l1.863.456a1.9 1.9 0 0 1 1.52-.713 1.98 1.98 0 0 1 1.377.229 15 15 0 0 0 4.058.71 5.9 5.9 0 0 0 2.039-.173 1.444 1.444 0 0 0 1.241-1.259 7 7 0 0 0 .047-1.876 11 11 0 0 0-.861-2.599 1.9 1.9 0 0 1-.44-1.214 10.5 10.5 0 0 0-.596-3.423 5.6 5.6 0 0 1-.53-1.91l1.15-.174 1.694-.453.143-.052a1.29 1.29 0 0 0 .898-1.538l-.278-1.435a5.8 5.8 0 0 0-.318-1.098 3.42 3.42 0 0 0 1.327-2.583l.124-.773a49.6 49.6 0 0 0 .207-6.786c.027-.818.08-1.565.177-2.409l.222-.727a7.2 7.2 0 0 1 1.155.956l.914.961a44 44 0 0 1 4.153 4.316 3 3 0 0 0 .59.513l1.085-.798.644-.233 1.036 2.858a1.82 1.82 0 0 0 1.032.839 2.36 2.36 0 0 0 2.104-.44 4.1 4.1 0 0 1 .213 1.701z"/><path id="b1" d="m476.731 9.278-.365 3.378a9.1 9.1 0 0 0 .548 3.835c1.552 3.652 3.013 7.304 4.747 10.864a55.6 55.6 0 0 1 3.561 9.13 7.6 7.6 0 0 0 .548 1.917 4 4 0 0 0 .548 1.461 9.4 9.4 0 0 1 1.004 3.56c.091 1.644.274 3.287.456 5.022a29.6 29.6 0 0 1-.09 9.404 51.3 51.3 0 0 1-3.744 14.242 14.2 14.2 0 0 1-1.46 2.557l-2.557 3.012a58 58 0 0 1-5.387 6.209 7.1 7.1 0 0 1-2.191 1.46 21 21 0 0 0-4.565 2.74 13.2 13.2 0 0 1-3.926 2.373c-5.112 2.009-5.386 2.1-10.59 2.1h-1.096l-3.287 12.325-1.278-.639a8.6 8.6 0 0 1 .365-1.46c.457-2.466 1.096-4.84 1.644-7.213a5.9 5.9 0 0 0 .091-2.191c-.73-3.56-.639-3.196-2.83-5.387a35 35 0 0 1-5.022-6.573 48.3 48.3 0 0 1-5.204-14.06 28.3 28.3 0 0 1-.73-7.852 43.9 43.9 0 0 1 4.017-16.342 23.7 23.7 0 0 1 4.109-6.208 74 74 0 0 1 6.025-5.935l5.843-5.021a8 8 0 0 0 1.187-1.278 11 11 0 0 1 2.374-2.192l1.37-.913 5.477-3.195a22.64 22.64 0 0 0 8.674-7.67L476.914 8a6.2 6.2 0 0 1-.183 1.278"/><use href="#a9" transform="matrix(.74279 0 0 .74279 121.846 42.116)"/><use href="#a9" transform="matrix(.75073 -.25143 .25143 .75073 445.924 29.628)"/><use href="#b1" opacity=".5" transform="rotate(-54.873 415.15 193.954)"/><use href="#b1" opacity=".5" transform="matrix(.73086 0 0 .73086 -84.242 48.3)"/><use href="#b1" opacity=".5" transform="translate(-400.217 1.024)"/><use href="#b1" transform="scale(.45619)rotate(-30.653 697.662 359.169)"/><use href="#a9" transform="matrix(.74279 0 0 .74279 766.678 -7.15)"/><use href="#b1" opacity=".5" transform="matrix(.73086 0 0 .73086 560.59 -.966)"/><use href="#b1" opacity=".5" transform="rotate(-44.266 585.261 -249.4)"/><use href="#b1" transform="matrix(.39244 -.23258 .23258 .39244 605.767 135.891)"/><use href="#b1" transform="rotate(-31.631 384.432 -44.397)scale(.49505)"/><use href="#b1" transform="matrix(.65968 -.1098 .1098 .65968 626.284 61.928)"/><use href="#a9" opacity=".5" transform="matrix(.92472 -.00984 .00984 .92472 534.599 -27.575)"/><use href="#b1" transform="matrix(.55413 -.3744 .3744 .55413 330.017 193.682)"/><use href="#a9" transform="matrix(.6863 -.21892 .21892 .6863 645.53 14.738)"/><use href="#a9" transform="matrix(-1.2305407,0,0,1.2305407,495.39631,-12.056112)"/><use href="#a9" opacity=".5" transform="matrix(1.1476444,0,0,1.1476444,855.69223,-40.2766)"/><use href="#b1" transform="matrix(-0.46842936,0,0,0.46842936,237.14981,49.642901)"/></svg>