<svg xmlns="http://www.w3.org/2000/svg" viewBox="0 0 1024 128"><path d="M1024 128a10.72 12.25 0 0 0-4.08-1.554h-2.96c-3.04-.091-3.76-1.097-7.12-2.011s-4.24-.183-7.2-.914c-5.84-1.463-6.88-5.485-10.8-6.49a6.16 7.039 0 0 1-2.08-.64c-1.12-.457-1.2-.915-2.4-1.28l-1.84-.457c-2.64-.732-2-2.377-4.24-2.743l-1.6-.182c-1.04-.275-.48-.732-1.36-1.097-.88-.366-1.76 0-3.28-.457l-1.44-.366h-2.24c-1.12-.092-.48-.274-2.24-.64s-3.2.183-3.84-.183.4-1.097 0-1.645c-.4-.549-1.2-.823-1.52-1.189-.32-.365-.16-.457-.8-.64a7.12 8.136 0 0 0-1.84 0c-2.08-.09-1.84-2.925-3.92-3.382s-3.84.731-6.4.183-3.76-2.102-4.48-2.102-.88.365-2.16.457h-3.68l-5.28-1.372c-3.44-.914-7.12-1.462-7.12-1.645s-.16-.366-.48-.457a9.12 10.421 0 0 0-2.08.183c-1.6.365-1.52 1.005-2.72 1.097h-1.84c-1.44.182-.96 1.462-2.24 1.737a7.76 8.867 0 0 1-2.72-.549c-3.68-1.097-3.84-1.006-5.76-1.554s-8.4-2.742-9.52-4.296a3.76 4.296 0 0 0-1.04-1.006 3.44 3.93 0 0 0-1.76-.823c-.4 0-.72-.274-1.2.092-.48.365.72.914.48 1.097a3.44 3.93 0 0 1-2-.183c-.48-.274-.32-.457-.8-.549a6.48 7.404 0 0 0-2.48 0c-1.12.183-1.04.549-1.84.549s-.48-.274-2-.914-2.96-.549-3.52-.914c-.56-.366-.48-.64-1.04-.823s-.88 0-1.28-.183 0-.274-.56-.548a8.4 9.598 0 0 0-2-.092 12.88 14.717 0 0 1-6.88-1.645c-.72-.64-.64-1.463-1.12-1.463s-.64.274-1.28.183-.16-.731-.96-1.006a3.92 4.48 0 0 1-1.36-.09c-.56-.184-.24-.367-.88-.458s-1.28.366-2.24.366a2.64 3.017 0 0 1-1.52-.549c-2.64-1.554-9.84-1.097-11.76-2.56l-1.68-.73-1.44-.184c-2.24-.182-4.72-1.645-4.88-2.102s.32-1.097-.4-1.28h-.72a1.68 1.92 0 0 1-.96-.64c-.4-.274-.16-.274-.64-.365h-1.36c-1.2-.183-1.04-1.006-2.64-1.92a3.2 3.657 0 0 0-1.84-.731c-1.12 0-1.68.457-2.88.457a13.2 15.083 0 0 1-2.56-.64l-4.64-1.646a2.56 2.925 0 0 0-1.44-.548c-1.04-.183-1.76.274-2.88.183s-1.36-.366-2.8-.64-.4.091-2.8-.274c-2.4-.366-3.36-1.28-4.16-1.28s-1.44.366-2 .274-.32-.366-.88-.366-1.6 1.006-2 1.006-.24-.183-.88-.091c-.64.091-.48.64-.96.64s-.8-.64-1.6-.732a3.12 3.565 0 0 0-2 .914c-.4.366-.08.549-.64.64-.56.092-1.2-.548-1.92-.457s-.88.549-1.6.549l-.8-.275c-1.36-.73-.96-1.554-1.6-1.92s-1.52-.456-1.84-.73c-.32-.275-.4-.458-.88-.458a2.64 3.017 0 0 0-1.36.183 13.04 14.9 0 0 1-2.48-.274c-2.32-.274-4.08 1.28-6.08 1.097-.48-.092-.32-.183-2.48-1.006l-2.08-.548a19.44 22.213 0 0 0-4.8-.457 26.72 30.532 0 0 1-7.52-2.103c0-.183.16 0-.32-.548-.48-.549-1.36-.549-2-1.097-.64-.549-.4-.366-.48-.549a8.56 9.781 0 0 0-2.8-2.285c-2.32-1.463-3.44-1.828-3.68-2.285s.24-.549-.4-1.097c-.64-.549-1.68-.64-2.08-1.006-.4-.365-.08-.548-.56-.914a7.84 8.958 0 0 0-1.36-.64c-.72-.365-.48-.64-1.28-1.005l-.8-.275c-.48-.274-.48-.457-.96-.822a3.84 4.388 0 0 0-1.44-.732h-1.28l-.72-.365c-.88-.457-1.68-.366-1.92-.732-.24-.365 0-.822-.16-.822a1.2 1.371 0 0 1-.56 0c-.4-.092-.32-.183-.4-.64s-.16-.366-2.4-1.28-1.6-1.371-3.04-1.371-2.4 1.463-3.12 1.371c-.72-.091-.88-.731-1.44-.731a1.04 1.188 0 0 0-1.2 1.097c-.16.914.96 1.462.56 1.645s-1.36-.274-2.32-.091a2.8 3.2 0 0 0-1.12.548c-.48.275-.64.457-.88.457s-.24-.182-.72-.365l-.96-.275c-.8-.182-.32-1.005-.72-1.554-.4-.548-1.12-.73-1.76-1.188s-.96-.914-1.36-.914-.4.366-1.04.366-1.04-.366-1.52-.366a1.6 1.828 0 0 0-.88.274c-1.76.457-8.32-2.65-9.6-3.93a2.16 2.468 0 0 0-1.28-.915c-.48-.183-1.12-.274-1.12-.457s.16-.183 0-.457-.08 0-.88-.457.08-1.005-.48-1.92a2.4 2.742 0 0 0-.64-.73 11.28 12.89 0 0 0-1.92-1.19 10.4 11.884 0 0 1-2.08-1.279l-.56-.823-.96-.914a2.56 2.925 0 0 1-.8-1.188c-.96-2.103-2.24-2.743-1.92-3.383s.88-1.005.72-1.37.08-.092-1.76-.915-3.04-1.645-3.12-1.92-.08-.64-.64-.822l-1.12-.183c-2.24-.183-5.76-2.834-8.56-4.753s-4.24-2.926-6-3.474a27.04 30.898 0 0 1-4.96-1.646 14.64 16.729 0 0 1-2.56-1.28l-2.88-1.645a13.12 14.992 0 0 1-2.32-1.462 4.64 5.302 0 0 1-1.44-1.554c-.4-.549.56.365-.4-.823-.96-1.189-4.24-1.097-7.28-2.56l-1.6-1.005a23.2 26.51 0 0 0-5.2-2.56l-2.56-.64-1.2-.365C640.8.662 640.8.388 640 .205a10.8 12.34 0 0 0-3.92 0l-2.8.731a45.92 52.47 0 0 1-9.2 2.194c-2.96.366-2.8-.091-5.92.366a39.36 44.975 0 0 0-6.8 1.554c-2.64 1.005-2.08 1.462-4.4 2.01a31.36 35.834 0 0 0-3.92 1.19l-1.2.548c-1.28.457-2.08.457-2.4.822-.32.366.56.549 0 .823s-1.52.183-2.56.457-1.84 1.097-1.84 1.463c0 .365.32.365 0 .731s-.24.274-1.76.549c-1.52.274-1.36.822-3.36 1.92-2 1.096-3.28 1.553-3.36 1.828-.08.274.08.64-.48.914l-1.6.365c-.72.366 0 .823-.72 1.189-.72.365-2 .091-2.56.548a.48.548 0 0 0-.4.549c0 .182.08.182 0 .365s-.24.092-.64.366.24.548-.08.823-.8 0-1.28.274.72.914.4 1.097-1.12.091-1.28.274.32.366.16.549c-.16.182-.8-.183-1.28 0-.48.182.16.914-.16 1.097s.24-.092-1.28 0c-1.52.09-1.36 1.736-3.84 3.839a1.44 1.645 0 0 1-.56.457c-2.16 1.554-5.2 1.28-9.52 2.56a14.72 16.82 0 0 0-6.4 3.107l-.96.915a13.52 15.449 0 0 1-7.04 1.92c-1.36-.184-2.16-.732-2.88-.64-.72.09-.8.456-1.68.64h-1.84c-1.84.365-2.32 1.919-2.96 1.919s-.64-.366-1.44-.274a1.92 2.194 0 0 0-1.6 1.37c-.16.824.64 1.19 0 1.646a4.56 5.21 0 0 1-2.08.275c-.72-.183-.32-1.006-.48-1.006a2.64 3.017 0 0 1-2.08 2.742c-1.6.64-2.88.183-5.36 1.006L522 47.1l-1.68.457c-.8.365-.64.64-1.44 1.097l-1.76.548c-1.36.549-2.32 1.006-2.4 1.28s.24.274 0 .731-.96.64-1.92 1.006a9.76 11.152 0 0 0-3.04 2.377c-.72.822-.32.73-.72 1.005-2.08 1.554-7.76.366-11.04 1.92a23.36 26.693 0 0 0-2.88 1.554l-1.6.822-1.52.366a2.32 2.651 0 0 0-1.28 1.188l-.72.732-1.12.183c-1.44.365-1.28 1.645-1.68 1.736-.4.092-.8-.182-1.12-.182s-.24.365-.64.457c-.4.091-.48-.183-1.2-.183s-1.2.366-2.32 1.005l-.64.457c-.16.275 0 .366-.16.64-.16.275-.4.183-.48.457-.08.275.08.275-.08.457l-.72.458c-.24.091.08.091-.24.274h-1.2l-2.08-.274c-.88 0-.64.182-2.48.914-1.84.731-3.28.914-3.52 1.188s-.32.091-.32.823c0 .731.32 1.188 0 1.28a3.92 4.48 0 0 0-1.36.091.8.914 0 0 0-.64.457c-.08.366.4.274.16.64s-1.6.091-2.32.457-.4 1.097-.72 1.097h-.8c-.4.091-.08.457-.4.64s-.72 0-1.12.183c-.4.182 0 .457-.24.822a4.8 5.485 0 0 1-1.52.549c-2 .457-1.68 1.554-2.88 1.92s-2.56.182-3.44.457c-.88.274-.96.73-1.36.64-.4-.092.8-1.097 0-1.555a8.64 9.873 0 0 0-3.2-.091c-3.52.457-4.56 2.742-7.36 3.2h-1.28c-.56-.183 0-.64-.48-.823s-2.4 1.005-2.8.914c-.4-.092-.32-.457-1.04-.64h-.96c-.96.183-.8.731-1.44.731s-1.04-.822-1.68-.914c-.64-.091-1.12.731-2.32 1.097a18.96 21.665 0 0 0-2.56.731c-.4.275-.08.366-.4.823a3.76 4.296 0 0 1-2.96 1.28c-.48-.091 0-.274-.8-.366s-2.32 1.097-2.24 1.371c.08.275.56.458.32.732s-.72.274-.96.548.08.64-.16.64-.72-.366-1.12-.366.08.64-.4.823a8.96 10.238 0 0 1-2.88-.457 8.96 10.238 0 0 0-2.56-.366h-1.28a.4.457 0 0 1-.4-.274 6.4 7.313 0 0 0-3.84-.548c-.64.091-.56.274-1.28.365a3.28 3.748 0 0 1-1.76 0c-.72-.091-.08-.274-1.12-.457-1.04-.182-1.92.275-3.44 0l-1.04-.182c-1.04-.366-.64-.549-1.52-.732s-2.24.64-3.2 1.28-.48.64-1.44 1.554-1.76.914-2.56 1.737a4.88 5.576 0 0 0-.96 1.462 6.72 7.679 0 0 1-5.2 4.571c-1.44.366-3.04.549-3.12.914-.08.366.96.366.88.823s-2 .457-3.44 1.097-.24 1.188-1.84 2.285a6 6.856 0 0 1-3.44 1.189 4.88 5.576 0 0 0-1.52 0c-.64.274-.24.73-.8 1.005s-.88 0-1.84.366c-.96.365-.4 1.097-1.04 1.188h-2.08c-.48.183.24.366-.48 1.006s-2.48.365-3.36 1.097a1.44 1.645 0 0 0-.56.731c-.08.457.24.731 0 .823s-.72-.092-1.44 0c-.72.091-.48.822-.72 1.554a6.72 7.679 0 0 1-3.6 2.65l-3.28 1.555-1.84.731c-3.36 1.463-5.52 2.285-8.64 2.56-.32 0-5.6.365-7.84-.823a7.44 8.501 0 0 0-3.12-1.371h-1.52c-.88-.275-.88-.549-2.4-1.189l-.96-.457-.88-.64c-.72-.457-1.52-.274-2.48-.64-.96-.365-.48-.64-1.52-.822-1.04-.183-1.36.183-2.4-.183s-.24-1.006-1.28-1.463l-1.92-.365c-2.56-.366-3.44-.366-3.6-.64-.16-.275.08-.549-.16-.732l-.96-.365-.8-.366c-.32-.091-.56.092-.96.092l-1.12-.275-1.84-.64c-.96-.457-.72-.548-1.52-.822a6.24 7.13 0 0 0-1.68-.366h-1.52c-1.12-.183-1.04-.64-2.32-.823h-1.2c-.88-.183-.56.092-.88-1.005s-4.72-1.828-10.72-2.834c-4.32-.823-4.96-.64-6.08-1.097a8.48 9.69 0 0 0-2.48-.457h-3.12a3.28 3.748 0 0 0-1.92 1.006c-.88.64-2.4.914-5.36 1.37-5.04.915-14.64 1.28-17.04-.456-.64-.549-1.52-1.554-2-1.554s-.4.182-1.44.274a11.36 12.98 0 0 1-2.32-.183c-.56 0-1.36.183-3.36 1.28s-2.08 1.462-2.96 1.462-.88-.64-2.64-1.28a8.8 10.055 0 0 0-2.88-.64c-1.52 0-1.44.64-4.48 1.463a6.48 7.404 0 0 0-1.76.64c-.48.457-.24.823-.72.914s-.88-.365-1.76-.365a4 4.57 0 0 0-1.92.548c-.8.64-.24 1.28-.56 1.371-.32.092-.56-.274-1.6-.457a17.12 19.562 0 0 0-2.88.092c-.96 0-.96-.275-2.56-.549a8.08 9.233 0 0 0-2.4-.183c-.88.183-.56.64-1.52 1.189-.96.548-1.2.183-2.88.822-1.68.64-1.28 1.463-2.72 1.646l-1.84.274c-.4.183-.4-.274-.16.64s-3.52 2.285-4.08 2.468-5.44 1.828-7.2 1.189c-.4-.183.32.457-.64-.64s-4.72-1.463-6.72-1.554c-13.52-1.189-11.44-1.28-15.92-1.463a60.56 69.2 0 0 1-7.6-.548 19.28 22.03 0 0 1-6-1.554 4.64 5.302 0 0 0-2-1.097c-1.6-.275-1.84.457-4.56.365-2.72-.091-3.2-.914-6.16-.914a18.88 21.573 0 0 0-2.96.183c-1.52.091-3.44-.274-8-1.371s-4.96-1.28-6.08-1.28a9.6 10.97 0 0 1-3.04-.274 6.4 7.313 0 0 1-2-1.006c-2.4-1.097-5.52-.457-7.2-1.462l-1.68-.732-1.44-.365c-.64-.183.08-.275-.88-.366s-1.76.64-2.8.64-.88-.549-2.08-.549-2.24.732-2.72.64-.32-.457-.96-.548a8.16 9.324 0 0 0-1.84.183c-.88.091-.88-.275-1.84-.275s-1.2.549-2.32.732l-2.16-.183c-2.8-.457-4.96 1.737-10.8 2.834l-5.84.731a47.2 53.934 0 0 1-4.72.548c-1.92-.09-2.32-.457-6-1.37-1.52-.366-6.56-1.006-6.88-.823-.32.182-.08.457-.56.73-.48.275-1.36.458-2 .732s-.56.366-1.04.457a9.92 11.335 0 0 1-2.16.274l-4.08.366-1.44.549c-.72.365-.4.365-1.12.457-.72.091-.96-.092-1.92 0h-1.92c-.64 0-.72-.366-1.12-.183s.16.823-.16 1.005c-.32.183-.56 0-1.36.183s-.48.823-1.12.914H38c-.08.092.08.092-.08.366s-.8.366-1.52.548l-1.6.64a9.76 11.152 0 0 0-2.32 1.554 25.12 28.704 0 0 1-3.12 2.194c-2.32 1.463-5.6 2.56-12.08 4.754-1.12.365-2.8 1.188-2.96 1.645s.32.731-.32 1.006c-.64.274-2.08.091-2.48.274s.16.64-.16.731c-.32.092-.96-.274-1.28-.183s0 .183-.24.823-2.08.914-2.72 1.097-.72.274-3.68 2.56a15.28 17.46 0 0 0-2.56 2.194A4.56 5.21 0 0 0 0 128z"/><path d="M782.48 128H1024v-22.853l-.64-.549c-.72-.548-1.36-.64-2.08-1.097s-.48-.548-1.12-1.005a5.76 6.582 0 0 0-2.56-.731l-1.2.457h-.8c-1.2.182-2.16-.092-2.64 0-.48.091-.4.274-.96.365h-1.36l-1.04-.274a6.24 7.13 0 0 0-2.96.274c-.16.092-.08.183-.4.183h-.96a9.12 10.421 0 0 0-2.08.183c-1.92.366-1.84.366-2.24.274s0-.366-.24-.457-.88.183-.96.183.08-.183-.08-.366-.72-.183-.8-.365c-.08-.183.16-.092.24-.457.08-.366-1.44-.915-1.76-.823-.32.091-.24.274-.56.274a3.68 4.205 0 0 1-2.4-.823c-.32-.274.16-.365-.32-.548s-.88 0-2.08-.366c-1.2-.365-1.12-.731-1.76-.731s-1.04.548-1.36.548-.4-.274-1.12-.365a1.12 1.28 0 0 0-.72 0c-.64 0-.24.274-.88.365l-2.16-.64c-.4.092.08.458-.4.549h-1.04c-2.24-.274-3.04-1.645-5.76-2.011a9.2 10.512 0 0 0-2.56.091c-.64.275.16.823 0 .914s0-.091-1.04-.365-1.28 0-2.72-.274c-1.44-.275-1.76-1.006-2.24-1.189s-1.04-.183-1.2-.365c-.16-.183.08-.366-.16-.458h-.96c-.32-.182-.08-.457-.32-.457h-.64c-.56-.091 0-.365-.56-.64l-1.76-.274c-.16-.091.16-.183.08-.365a.56.64 0 0 0-.48-.275h-1.04c-.4-.091 0-.365 0-.822l-.24-.457c-.48-.366-1.44-.275-2.88-.732l-2-.548c-.48 0-.64.183-1.52.183h-1.04c-.08-.092.08 0-.08-.183s-.56-.183-.56-.274.16-.183 0-.275l-.4-.274c-.16-.183 0-.183-.16-.366l-.48-.274a7.04 8.044 0 0 0-1.84-.64h-.96c-.32 0-.16-.182-.48-.274l-.88.183c-.64 0-.24-.914-1.36-1.097l-.88-.183c-.32-.091-.32-.183-.48-.366a4.56 5.21 0 0 0-1.04-.73l-1.28-.275-1.2-.457-2.24-.914c-2.64-1.006-7.12-.274-8.72-1.189-.32-.182-.08-.182-.64-.64a11.44 13.072 0 0 0-2.4-1.462 2.64 3.017 0 0 1-1.52-.549c-.08-.274.16-.182 0-.457-.16-.274-.88-.457-1.84-.731l-1.36-.457c-.64-.183-.48-.366-1.12-.64l-1.36-.183-2-.548c-1.92-.549-2.4 0-4.16-.549-1.76-.548-1.6-1.645-1.68-1.645s.24.457-.4.64a4.96 5.668 0 0 1-1.52-.183c-.48-.274.16-.457 0-1.006a1.52 1.737 0 0 0-1.28-.822c-.48-.092-.08.274-1.12.183s-.88-1.006-2.32-1.189h-1.52c-.72-.091-.56-.274-1.28-.365-.72-.092-1.2.274-2.24.365a13.44 15.357 0 0 1-5.6-1.188l-.72-.549a14.4 16.454 0 0 0-5.04-1.92c-3.44-.73-5.84-.548-7.52-1.462l-.48-.274c-1.92-1.28-2.48-2.286-2.96-2.377s-.64.183-1.04 0 .16-.64-.16-.64h-.96c-.16-.091.24-.183.08-.365-.16-.183-.56 0-.96-.183s.56-.64.32-.732-.8.092-1.04-.091.08-.457-.08-.548l-.48-.183c-.08-.092 0 0 0-.183s.08-.092-.32-.366a11.6 13.255 0 0 0-2-.365c-.64-.183-.24-.549-.64-.732l-1.2-.183c-.4-.182-.24-.091-.4-.548s-.96-.366-2.64-1.097-1.44-1.006-2.64-1.188l-1.36-.275c-.24-.182 0-.274 0-.548a1.68 1.92 0 0 0-1.44-.823 9.2 10.512 0 0 0-2.08-.274c-.24-.183.24-.366 0-.549a8.24 9.416 0 0 0-1.92-.457l-.96-.365-3.04-.732c-1.84-.365-1.44-.548-3.44-1.188a30.88 35.285 0 0 0-5.44-1.005l-4.64-.183a56 63.989 0 0 1-7.2-1.28l-2.24-.457a9.68 11.06 0 0 0-3.04 0c-.72.091-.72.274-1.92.548l-.88.183-2.08.366a16.16 18.465 0 0 0-4.24 1.462l-1.28.64c-2.4.823-4.96.823-5.68 1.554l-.32.457-1.12 1.006-1.84.823-2.24 1.097-2.08.822-3.92 1.006a19.92 22.762 0 0 0-4.72 2.102c-1.52.823-4.96 2.834-6.72 2.834l-.88.183c-.56.091-.32.183-.56.548s-1.44.732-2.4 1.097c-.96.366-1.2.275-1.44.549s.24.274.56.823-.48.822-1.2 1.645zM98.64 128h268.08v-23.31a3.36 3.84 0 0 1-1.92-.823c-.16-.274-.08-.548-.32-.64H364a1.28 1.463 0 0 1-.72-.274l-.48-.274h-.96c-.96-.092-.88-.457-2.08-.914a3.76 4.296 0 0 0-1.36-.366l-2 .183a7.92 9.05 0 0 1-1.92-.275l-3.36-.822a2.24 2.56 0 0 0-1.04-.274H348a8.72 9.964 0 0 1-2-.366h-2.08c-1.68-.183-1.92-.64-2.96-.64l-1.52.183c-.4-.092-.16-.183-.64-.183s-1.2.457-1.52.457h-.64c-.48 0-.4.366-.72.366s-.56-.366-1.12-.366a4.64 5.302 0 0 0-1.52.366c-.24.183-.08.274-.48.365l-1.36-.182-1.12.182h-.64c-.96-.365-.32-.64-1.2-1.005l-1.28-.274a.88 1.006 0 0 0-.64-.275h-2.8a22.88 26.144 0 0 0-4.48.457c-.4 0-.24 0-1.84-.457l-1.84-.365-3.52-.183c-2.24-.092-5.12-.549-5.44-1.006l-.24-.274c-.4-.274-1.04-.274-1.52-.548l-.32-.275a9.84 11.244 0 0 0-2.08-1.097 14.64 16.729 0 0 1-2.72-1.097c-.08-.182.16-.274-.24-.548l-1.52-.457c-.24-.183-.08-.274-.4-.457l-.96-.274c-.56-.275-.32-.366-.96-.549l-.56-.183a1.44 1.645 0 0 1-.72-.365 2.24 2.56 0 0 0-1.04-.275h-.96l-.56-.182c-.64-.275-1.12-.183-1.36-.366s0-.366-.08-.366h-.48c-.24-.091-.16-.183-.24-.365-.08-.183-.08-.183-1.76-.64s-1.2-.64-2.24-.64-1.68.64-2.24.64-.72-.366-1.12-.366-.8.091-.88.549c-.08.457.8.73.48.822s-1.04-.183-1.76-.091l-.8.274-.64.274-.56-.182h-.64c-.56-.183-.24-.549-.56-.823s-.8-.274-1.28-.549c-.48-.274-.64-.457-.96-.457l-.8.183-1.04-.183h-.72c-1.28.275-6.08-1.28-7.04-1.92l-.88-.456-.88-.183c0-.092.16-.092 0-.275l-.56-.182c-.64-.183.08-.457-.4-.914-.48-.458-.32-.275-.48-.366l-1.36-.64-1.44-.548c-.24-.183-.16-.275-.4-.458l-.72-.457a.72.823 0 0 1-.56-.548c-.72-1.006-1.68-1.28-1.44-1.646s.72-.548.56-.73l-1.36-.458a4.72 5.393 0 0 1-2.24-.914c-.08-.091 0-.274-.48-.366h-.8c-1.68-.091-4.8-1.554-6.24-2.285a21.76 24.864 0 0 0-4.4-1.645c-1.2-.275-2.48-.457-3.6-.823l-1.92-.64-2.08-.823-1.68-.731-1.04-.731c-.32-.275.32.274-.32-.366s-3.04-.548-5.28-1.28l-1.2-.548a16.56 18.922 0 0 0-3.92-1.097l-1.84-.366h-.88l-1.68-.457h-2.88l-2.08.366c-2.16.457-4.4.731-6.64 1.005l-4.4.183a25.6 29.252 0 0 0-4.96.823c-1.92.457-1.52.64-3.2.914l-2.8.64-.96.274a4.56 5.21 0 0 0-1.76.366c-.16.183.32.183 0 .365l-1.84.275c-.64.091-1.28.457-1.28.64 0 .182.24.274 0 .457l-1.36.182c-1.12.183-1.04.457-2.48 1.006a20.56 23.493 0 0 0-2.4.823c-.08.182.08.274-.32.457s-.64 0-1.2.183c-.56.182 0 .457-.56.64-.56.182-1.44 0-1.84.274s-.32.091-.32.274.16.091 0 .183l-.4.183c-.32.09.08.274-.16.365h-.88c-.32.183.48.457.24.64h-.88c-.16 0 .16.091.08.183-.08.091-.48-.092-.88 0-.4.091.08.457-.16.548h-.96c-1.04 0-.96.823-2.72 1.92l-.48.183c-1.6.731-3.76.64-6.96 1.28a18.08 20.66 0 0 0-4.64 1.462l-.64.457a12.88 14.717 0 0 1-5.2.914l-2.08-.274-1.2.274h-1.36c-1.36.183-1.28.915-2.16.915h-1.12c-.56 0-1.04.182-1.12.64-.08.457.48.64 0 .822a2.96 3.382 0 0 1-1.44.183c-.56-.091-.24-.548-.4-.548s-.32 1.096-1.52 1.37c-1.2.275-2.08.092-3.92.458l-1.92.457-1.28.183c-.56.183-.4.274-.96.548l-1.36.274-1.68.549c0 .183.16.091 0 .366-.16.274-.72.365-1.44.548a5.44 6.216 0 0 0-2.16 1.188c-.56.366-.32.366-.56.457-1.52.732-5.76.183-8.08.915l-2.08.73-1.2.458-1.12.183-.96.548c-.16.183-.16.274-.48.366h-.8c-1.04.183-.96.823-1.28.914l-.8-.183c-.24.092-.24.274-.48.274h-.8l-1.76.457-.48.275c-.08.091.08.091-.08.274s-.4.183-.4.274.16.092 0 .183l-.48.274h-.08z" opacity=".5"/></svg>