<svg xmlns="http://www.w3.org/2000/svg" viewBox="0 0 1024 128"><path d="M1024 128H0V92.353c35.9 5.61 139.28 27.762 247.68 28.042 198.24.467 287.2-52.024 495.92-56.269 62.72-1.26 165.49 6.846 280.4 28.228Z"/><use href="#b3" transform="translate(80 90.667)scale(1.5)rotate(-10)"/><use href="#b3" transform="translate(-456.887 -2.479)scale(2.12845)"/><use href="#b3" transform="scale(1.61475)rotate(6.818 531.516 2018.93)translate(0 11.5)"/><use href="#b3" transform="scale(1.2)rotate(6.818 -50 -2414.041)"/><g opacity=".5"><path id="b2" d="m334.565 79.309-1.95 3.064 4.457 8.358-3.064 1.254-3.204-5.85-2.508 3.76-3.76-2.09 2.228-4.039H319.8v-3.204h7.522a2.23 2.23 0 0 0 1.95-1.114 9.6 9.6 0 0 1 .697-1.81l-4.736-.419.279-3.064 7.243-.279 3.622-6.686a3.9 3.9 0 0 0-1.811.557c-5.293 3.065-10.308 6.13-15.601 9.054a3.204 3.204 0 0 0-1.95 3.343c0 1.95-.28 3.761-.28 5.572h-3.482v-5.85l-2.368 1.114c-.139 1.672-.278 3.204-.278 4.736h-3.204V83.21l-4.457 1.81-1.672-3.342 4.457-2.508-2.507-1.81 1.393-2.09c2.229.975 4.179 2.507 6.408.279l-4.597-3.343 1.672-1.95 4.736 2.785a2.09 2.09 0 0 0 2.507 0c5.711-3.343 11.7-6.547 17.551-9.75l.975-.697a47 47 0 0 0-6.268-.418 2.5 2.5 0 0 0-2.09 1.115c-.696 1.532-1.671 2.925-2.646 4.596l-3.065-2.228.975-1.533.836-1.532h-1.114c-2.647-.278-2.229-.14-3.204 1.811l-2.925 5.711-3.065-2.646 2.786-5.154h-3.76v-4.458l3.621-.278-2.507-5.154 3.064-2.09 2.925 5.433c.975 1.95 2.09 2.228 4.18 1.393l-1.95-3.483 3.064-1.532 1.253 1.81c.697 1.115 1.254 2.647 2.229 3.205a8.5 8.5 0 0 0 4.179.278l3.76-.418-.835-.418-17.83-9.611a1.95 1.95 0 0 0-2.09 0l-5.292 2.786-1.393-1.95 4.736-3.483c-1.811-1.393-3.622-2.228-5.712-.557l-1.253.418-.836-1.671 1.81-1.672-4.457-2.368 1.95-3.343c1.672.278 2.786 1.393 4.18 1.393l.417-2.09h3.483v4.736l2.368.836v-5.572h3.482c.14 2.23.279 4.458.279 6.547a2.09 2.09 0 0 0 1.253 2.09l17.134 9.333 1.254.417-3.065-5.71a2.37 2.37 0 0 0-2.507-1.533h-5.85c0-.836-.14-1.81-.14-2.925l4.597-.557c-.418-2.368-.697-2.647-2.786-2.786l-5.99-.279h-1.671l.278-2.786h7.243l-2.507-4.318 4.04-1.81 2.228 3.9 2.926-6.13 3.482 1.811c-1.532 2.786-3.064 5.294-4.597 7.94l1.811 2.786 2.786-3.76 2.507 1.253a52 52 0 0 1-2.646 4.736 2.23 2.23 0 0 0 .278 2.925c.975 1.254 1.811 2.647 2.926 4.04a3.2 3.2 0 0 0 .975.975V28.187l-7.383-3.482 1.254-2.647c2.09.418 3.9 1.81 5.99 1.81v-.278a2.647 2.647 0 0 0-1.811-3.482 10.6 10.6 0 0 1-2.647-1.672l1.114-2.507 3.483 1.81v-5.571h3.621c0 1.81.14 3.622.279 5.711l4.04-2.229 1.393 2.786-3.9 2.09h-.14a2.23 2.23 0 0 0-1.393 2.646c0 .418.14.836.14 1.393l5.85-2.507 1.253 2.925-5.293 2.508a2.09 2.09 0 0 0-1.671 2.646c0 6.547-.279 13.094-.279 19.64.14.558.14 1.115.279 1.533l5.014-6.965-3.482-6.268 2.786-1.254 2.229 3.9c2.368-2.228 2.368-2.228.975-4.735l-1.533-2.647-2.09-3.482 3.344-1.254 3.065 5.293 2.368-3.622 3.9 1.811-2.229 4.04 7.104.418v3.064h-7.382a1.53 1.53 0 0 0-1.672.697l-1.393 2.507h5.015l-.279 3.343h-6.408c-.557 0-.278-1.671-1.393.418s-2.089 4.318-3.203 6.408l.418.278 1.671-.835 15.323-8.08a3.62 3.62 0 0 0 2.368-4.04c.139-1.95.139-3.9.418-5.85l3.343-.278v5.99c2.507-.697 2.646-.836 2.786-3.065a23 23 0 0 0 .139-3.065l2.647.279v2.647l4.736-2.09 1.671 3.065-2.09 1.114-1.81 1.114 1.671 1.533-1.114 2.09c-2.368-1.394-4.597-1.812-6.686.417l4.597 2.786-1.393 2.507-5.154-2.646a2.37 2.37 0 0 0-2.647 0l-17.97 9.333-.974.696a56 56 0 0 0 6.825.418 2.51 2.51 0 0 0 2.647-1.532c.696-1.254 1.672-2.508 2.507-3.9l2.786 1.95-1.95 3.064c3.343.697 3.343.697 4.736-1.95l1.254-2.09 1.671-2.925 2.786 2.229-3.204 5.433h4.597a16.2 16.2 0 0 1-.418 5.153h-3.76l2.925 5.015-3.204 2.368-3.483-7.383h-3.76l2.089 3.483-3.204 1.95c-.975-1.532-2.368-4.179-2.647-4.597s-.835-1.114-1.253-1.114h-7.244v.557l19.78 10.308 5.99-3.204 1.672 1.95-4.319 3.483c2.23 1.81 4.18.557 6.269-.279l1.114 1.95-1.671 1.811 3.9 2.647-1.532 3.064-4.458-2.09-.278 2.787h-3.065a10.3 10.3 0 0 1 0-2.925 1.95 1.95 0 0 0-1.393-2.23l-1.532-.556v5.99h-3.343c0-.836-.14-.419-.279-2.09-.14-1.672-.278-3.343-.278-5.015a2.09 2.09 0 0 0-1.393-1.95l-16.577-9.054-1.532-.557 1.672 3.203a8.64 8.64 0 0 0 1.95 3.483 14.4 14.4 0 0 0 4.179.557 7.5 7.5 0 0 1 3.482.418v2.925h-5.015a1.53 1.53 0 0 1 .418 1.115 2.786 2.786 0 0 0 2.926 1.81 45 45 0 0 1 6.129.279h1.114v3.064c-2.368.28-4.736-.139-7.243.28l2.368 3.76-3.761 1.95-2.368-3.482-3.065 5.572-3.343-1.672c1.393-2.368 2.507-4.597 3.9-6.547a2.51 2.51 0 0 0 0-3.064 1.114 1.114 0 0 0-2.229 0c-.557.835-.835 1.81-1.393 2.786l-2.646-1.254 3.204-6.268-2.23-3.483a24.7 24.7 0 0 0-2.228-3.064 1.1 1.1 0 0 0-.278.696l-.418 20.337a1.81 1.81 0 0 0 1.253 2.09 52 52 0 0 1 6.13 3.343l-1.254 2.368-6.269-2.09v4.458l4.736 1.81-.835 2.508-3.761-.975-.279 3.204h-3.343l-.279-3.343-3.76 1.532-1.672-2.229 4.457-2.228c.418-.14.975-.697.975-.975a9.2 9.2 0 0 0-.139-3.9l-5.85 2.228-.975-2.925 5.432-2.786a2.65 2.65 0 0 0 1.532-2.507V71.369c0-.557-.139-.975-.139-1.532a45.6 45.6 0 0 0-3.9 5.154 1.81 1.81 0 0 0-.14 2.228l2.647 4.876-2.368 1.393z"/><defs><path id="b3" style="transform: translate(-27px,-20px);" d="m334.56,79.31 v-4.46 l3.62,-0.27 l-2.5,-5.16 l3.06,-2.09 l2.93,5.44 c0.97,1.95,2.09,2.22,4.18,1.39 l-1.95,-3.48 l3.06,-1.54 l1.25,1.81 c0.7,1.12,1.26,2.65,2.23,3.21 a8.5,8.5,0,0,0,4.18,0.28 l3.76,-0.42 l-0.83,-0.42 l-17.83,-9.61 a1.95,1.95,0,0,0,-2.09,0 l-5.3,2.79 l-1.39,-1.95 l4.74,-3.49 c-1.81,-1.39,-3.62,-2.23,-5.71,-0.55 l-1.26,0.41 l-0.83,-1.67 l1.81,-1.67 l-4.46,-2.37 l1.95,-3.34 c1.67,0.28,2.79,1.39,4.18,1.39 l0.42,-2.09 h3.48 v4.74 l2.37,0.83 v-5.57 h3.48 c0.14,2.23,0.28,4.46,0.28,6.55 a2.09,2.09,0,0,0,1.25,2.09 l17.14,9.33 l1.25,0.42 l-3.07,-5.71 a2.37,2.37,0,0,0,-2.5,-1.53 h-5.85 c0,-0.84,-0.14,-1.81,-0.14,-2.93 l4.59,-0.56 c-0.41,-2.36,-0.69,-2.64,-2.78,-2.78 l-5.99,-0.28 h-1.67 l0.28,-2.79 h7.24 l-2.51,-4.32 l4.04,-1.81 l2.23,3.9 l2.93,-6.13 l3.48,1.82 c-1.53,2.78,-3.07,5.29,-4.6,7.94 l1.81,2.78 l2.79,-3.76 l2.5,1.26 a52,52,0,0,1,-2.64,4.73 a2.23,2.23,0,0,0,0.28,2.93 c0.97,1.25,1.81,2.64,2.92,4.04 a3.2,3.2,0,0,0,0.98,0.97 v-22.43 l-7.39,-3.48 l1.26,-2.65 c2.09,0.42,3.9,1.81,5.99,1.81 v-0.28 a2.647,2.647,0,0,0,-1.81,-3.48 a10.6,10.6,0,0,1,-2.65,-1.67 l1.11,-2.51 l3.49,1.81 v-5.57 h3.62 c0,1.81,0.14,3.62,0.28,5.71 l4.04,-2.23 l1.39,2.79 l-3.9,2.09 h-0.14 a2.23,2.23,0,0,0,-1.39,2.65 c0,0.41,0.14,0.83,0.14,1.39 l5.85,-2.51 l1.25,2.93 l-5.29,2.51 a2.09,2.09,0,0,0,-1.67,2.64 c0,6.55,-0.28,13.1,-0.28,19.64 c0.14,0.56,0.14,1.12,0.28,1.53 l5.01,-6.96 l-3.48,-6.27 l2.78,-1.25 l2.23,3.9 c2.37,-2.23,2.37,-2.23,0.98,-4.74 l-1.53,-2.64 l-2.09,-3.49 l3.34,-1.25 l3.06,5.29 l2.37,-3.62 l3.9,1.81 l-2.23,4.04 l7.11,0.42 v3.06 h-7.38 a1.53,1.53,0,0,0,-1.68,0.7 l-1.39,2.51 h5.02 l-0.28,3.34 h-6.41 c-0.56,0,-0.28,-1.67,-1.39,0.42 s-2.09,4.32,-3.21,6.41 l0.42,0.27 l1.67,-0.83 l15.32,-8.08 a3.62,3.62,0,0,0,2.37,-4.04 c0.14,-1.95,0.14,-3.9,0.42,-5.85 l3.34,-0.28 v5.99 c2.51,-0.7,2.65,-0.83,2.79,-3.06 a23,23,0,0,0,0.14,-3.07 l2.65,0.28 v2.65 l4.73,-2.09 l1.67,3.06 l-2.09,1.12 l-1.81,1.11 l1.67,1.53 l-1.11,2.09 c-2.37,-1.39,-4.6,-1.81,-6.69,0.42 l4.6,2.79 l-1.39,2.5 l-5.16,-2.64 a2.37,2.37,0,0,0,-2.64,0 l-17.97,9.33 l-0.98,0.7 a56,56,0,0,0,6.83,0.41 a2.51,2.51,0,0,0,2.64,-1.53 c0.7,-1.25,1.68,-2.51,2.51,-3.9 l2.79,1.95 l-1.95,3.07 c3.34,0.69,3.34,0.69,4.73,-1.95 l1.26,-2.09 l1.67,-2.93 l2.78,2.23 l-3.2,5.43 h4.6 a16.2,16.2,0,0,1,-0.42,5.16 s-0.84,-1.11,-1.26,-1.11 z"/></defs><use href="#b2" id="a10" x="0" y="0" transform="scale(.64986)rotate(-15 757.208 -3477.99)translate(0 11.5)"/><use href="#a10" transform="translate(-191.374 9.68)scale(.88234)"/><use href="#b2" transform="matrix(.43836 0 0 .43836 507.552 3.954)"/><use href="#b2" transform="rotate(16.068 214.819 -227.83)scale(.65097)translate(0 11.5)"/></g></svg>