<svg xmlns="http://www.w3.org/2000/svg" viewBox="0 0 1024 128"><g id="a11"><path d="M0 50.443V128h512V50.443h-71.658a11.86 11.86 0 0 0-11.886 11.886v59.028H84.634V66.802c0-9.064-7.295-16.36-16.36-16.36z"/><path d="M113.879 73.749h57.577a8.07 8.07 0 0 0 8.086-8.086V8.086A8.07 8.07 0 0 0 171.456 0h-57.577a8.07 8.07 0 0 0-8.086 8.086v57.577a8.07 8.07 0 0 0 8.086 8.086" opacity=".8"/><path d="M306.8 123.49V74.717c0-6.584-5.301-11.885-11.886-11.885h-76.733c-6.584 0-11.885 5.3-11.885 11.885v48.773z" opacity=".5"/><path d="M447.26 125.597V35.106c0-6.584-5.3-11.885-11.884-11.885H300.18c-6.584 0-11.885 5.3-11.885 11.885v90.491z" opacity=".8"/></g><use href="#a11" transform="matrix(-1 0 0 1 1024 0)"/></svg>