<svg xmlns="http://www.w3.org/2000/svg" viewBox="0 0 1024 128"><g id="a14" transform="matrix(.97505 0 0 .97505 .005 0)"><path d="M5.86 91.621a5.87 5.87 0 0 0-5.862 5.861v30.498h11.716V97.482a5.86 5.86 0 0 0-5.854-5.86"/><path d="M18.984 81.975a5.87 5.87 0 0 0-5.86 5.84v40.165h11.721V87.816a5.87 5.87 0 0 0-5.86-5.841"/><path d="M32.109 62.69a5.86 5.86 0 0 0-5.854 5.854v59.436H37.97V68.544a5.86 5.86 0 0 0-5.861-5.854"/><path d="M45.24 81.975a5.87 5.87 0 0 0-5.86 5.84v40.165h11.715V87.816a5.86 5.86 0 0 0-5.854-5.841"/><path d="M58.365 91.621a5.87 5.87 0 0 0-5.86 5.861v30.498h11.721V97.482a5.87 5.87 0 0 0-5.86-5.86"/><path d="M71.476 91.621a5.87 5.87 0 0 0-5.86 5.861v30.498H77.33V97.482a5.86 5.86 0 0 0-5.855-5.86"/><path d="M84.621 72.329a5.87 5.87 0 0 0-5.86 5.861v49.79h11.722V78.19a5.87 5.87 0 0 0-5.862-5.861"/><path d="M97.746 24.112a5.86 5.86 0 0 0-5.847 5.84v98.028h11.708V29.953a5.86 5.86 0 0 0-5.86-5.841"/><path d="M110.878 72.329a5.87 5.87 0 0 0-5.861 5.861v49.79h11.715V78.19a5.87 5.87 0 0 0-5.854-5.861"/><path d="M124.002 101.267a5.87 5.87 0 0 0-5.86 5.855v20.858h11.722v-20.858a5.86 5.86 0 0 0-5.862-5.855"/><path d="M137.134 91.621a5.87 5.87 0 0 0-5.861 5.861v30.498h11.715V97.482a5.86 5.86 0 0 0-5.854-5.86"/><path d="M150.259 81.975a5.87 5.87 0 0 0-5.862 5.861V128h11.723V87.816a5.87 5.87 0 0 0-5.861-5.841"/><path d="M163.377 57.863a5.86 5.86 0 0 0-5.855 5.861v64.256h11.716V63.724a5.87 5.87 0 0 0-5.861-5.86"/><path d="M176.515 81.975a5.87 5.87 0 0 0-5.861 5.861V128h11.715V87.816a5.86 5.86 0 0 0-5.854-5.841"/><path d="M189.64 91.621a5.87 5.87 0 0 0-5.841 5.861v30.498h11.722V97.482a5.87 5.87 0 0 0-5.881-5.86"/><path d="M202.771 110.907a5.87 5.87 0 0 0-5.861 5.86v11.213h11.715v-11.212a5.87 5.87 0 0 0-5.854-5.861"/><path d="M215.896 81.975a5.87 5.87 0 0 0-5.861 5.861V128h11.722V87.816a5.87 5.87 0 0 0-5.861-5.841"/><path d="M229.02 43.397a5.86 5.86 0 0 0-5.854 5.861v78.722h11.688V49.258a5.87 5.87 0 0 0-5.833-5.86"/><path d="M242.152 81.975a5.87 5.87 0 0 0-5.861 5.861V128h11.715V87.816a5.86 5.86 0 0 0-5.854-5.841"/><path d="M255.277 72.329a5.87 5.87 0 0 0-5.855 5.861v49.79h11.716V78.19a5.87 5.87 0 0 0-5.861-5.861"/><g opacity=".4"><path d="M5.86 53.043a5.87 5.87 0 0 0-5.862 5.862V78.19a5.861 5.861 0 1 0 11.716 0V58.905a5.86 5.86 0 0 0-5.854-5.862"/><path d="M18.984 24.112a5.86 5.86 0 0 0-5.86 5.84V68.53a5.861 5.861 0 1 0 11.721 0V29.953a5.86 5.86 0 0 0-5.86-5.841"/><path d="M32.109 24.112a5.86 5.86 0 0 0-5.854 5.854v19.292a5.861 5.861 0 1 0 11.715 0V29.953a5.86 5.86 0 0 0-5.861-5.841"/><path d="M45.24 53.043a5.87 5.87 0 0 0-5.86 5.862v9.639a5.861 5.861 0 1 0 11.715 0v-9.64a5.86 5.86 0 0 0-5.854-5.86"/><path d="M58.365 62.69a5.87 5.87 0 0 0-5.86 5.854v9.646a5.861 5.861 0 0 0 11.721 0v-9.646a5.86 5.86 0 0 0-5.86-5.854"/><path d="M71.476 53.043a5.87 5.87 0 0 0-5.86 5.862V78.19a5.861 5.861 0 1 0 11.715 0V58.905a5.86 5.86 0 0 0-5.855-5.862"/><path d="M84.621 24.112a5.86 5.86 0 0 0-5.86 5.84v28.953a5.861 5.861 0 0 0 11.722 0V29.953a5.86 5.86 0 0 0-5.862-5.841"/><path d="M124.002 53.043a5.87 5.87 0 0 0-5.86 5.862v28.91a5.861 5.861 0 0 0 11.722 0v-28.91a5.87 5.87 0 0 0-5.862-5.862"/><path d="M137.134 62.69a5.86 5.86 0 0 0-5.861 5.854v9.646a5.861 5.861 0 1 0 11.715 0v-9.646a5.86 5.86 0 0 0-5.854-5.854"/><path d="M150.259 24.112a5.86 5.86 0 0 0-5.862 5.854v38.578a5.861 5.861 0 0 0 11.723 0V29.953a5.86 5.86 0 0 0-5.861-5.841"/><path d="M163.377 19.285a5.87 5.87 0 0 0-5.855 5.862v19.292a5.861 5.861 0 0 0 11.716 0V25.147a5.87 5.87 0 0 0-5.861-5.862"/><path d="M176.515 53.043a5.87 5.87 0 0 0-5.861 5.862v9.639a5.861 5.861 0 1 0 11.715 0v-9.64a5.86 5.86 0 0 0-5.854-5.86"/><path d="M189.64 53.043a5.87 5.87 0 0 0-5.841 5.862V78.19a5.861 5.861 0 0 0 11.722 0V58.905a5.87 5.87 0 0 0-5.881-5.862"/><path d="M202.771 72.329a5.87 5.87 0 0 0-5.861 5.861v19.292a5.861 5.861 0 0 0 11.715 0V78.19a5.87 5.87 0 0 0-5.854-5.861"/><path d="M215.896 43.397a5.87 5.87 0 0 0-5.861 5.861v19.286a5.861 5.861 0 0 0 11.722 0V49.258a5.87 5.87 0 0 0-5.861-5.86"/><path d="M229.02 20.252a5.86 5.86 0 0 0-5.854 5.861v3.84a5.861 5.861 0 1 0 11.688 0v-3.84a5.87 5.87 0 0 0-5.833-5.86"/><path d="M242.152 53.043a5.87 5.87 0 0 0-5.861 5.862v9.639a5.861 5.861 0 1 0 11.715 0v-9.64a5.86 5.86 0 0 0-5.854-5.86"/><path d="M255.277 33.751a5.87 5.87 0 0 0-5.855 5.861v19.293a5.861 5.861 0 0 0 11.716 0V39.612a5.87 5.87 0 0 0-5.861-5.86"/></g><g opacity=".2"><path d="M5.86 28.932a5.87 5.87 0 0 0-5.862 5.86v4.82a5.861 5.861 0 1 0 11.716 0v-4.82a5.86 5.86 0 0 0-5.854-5.86"/><path d="M32.109 0a5.86 5.86 0 0 0-5.854 5.861v4.82a5.861 5.861 0 1 0 11.715 0V5.86A5.87 5.87 0 0 0 32.11 0"/><path d="M63.777 47.026a5.5 5.5 0 0 0-.538-1.021 6 6 0 0 0-.728-.892 6.6 6.6 0 0 0-.892-.729 6.5 6.5 0 0 0-1.035-.544 5.5 5.5 0 0 0-1.075-.32 5.7 5.7 0 0 0-2.28 0 6 6 0 0 0-1.137.34 7 7 0 0 0-.953.524 6 6 0 0 0-.885.729 5.7 5.7 0 0 0-.729.892 5.5 5.5 0 0 0-.558.966 5.7 5.7 0 0 0-.347 1.13 5.6 5.6 0 0 0-.116 1.13 5.88 5.88 0 0 0 1.722 4.14 6.5 6.5 0 0 0 .851.68h.041a5.5 5.5 0 0 0 .98.524 5.3 5.3 0 0 0 1.096.34 5.5 5.5 0 0 0 1.178.123 5 5 0 0 0 1.116-.116 5 5 0 0 0 1.096-.252 6 6 0 0 0 1.062-.558 7 7 0 0 0 .858-.68 5.9 5.9 0 0 0 1.716-4.14 6.5 6.5 0 0 0-.116-1.177 6 6 0 0 0-.327-1.09"/><path d="M71.476 28.932a5.87 5.87 0 0 0-5.86 5.86v4.82a5.861 5.861 0 1 0 11.715 0v-4.82a5.86 5.86 0 0 0-5.855-5.86"/><path d="M97.746 0A5.86 5.86 0 0 0 91.9 5.861v4.82a5.861 5.861 0 1 0 11.715 0V5.86A5.87 5.87 0 0 0 97.746 0"/><path d="M110.87 64.766a6.6 6.6 0 0 0 1.185-.123 5.7 5.7 0 0 0 1.042-.326 5.4 5.4 0 0 0 1.028-.545 5.3 5.3 0 0 0 .919-.728 5.9 5.9 0 0 0 1.715-4.14 6 6 0 0 0-.115-1.177 6 6 0 0 0-.34-1.096 6 6 0 0 0-.525-.98 5.5 5.5 0 0 0-.735-.892 5.88 5.88 0 0 0-5.262-1.6 6.3 6.3 0 0 0-1.144.34 6 6 0 0 0-.96.518 5.8 5.8 0 0 0-1.64 1.627 6 6 0 0 0-.538 1.007 5 5 0 0 0-.334 1.076 5.5 5.5 0 0 0-.122 1.178 5.88 5.88 0 0 0 5.854 5.86z"/><path d="M124.002 28.932a5.87 5.87 0 0 0-5.86 5.86v4.82a5.861 5.861 0 0 0 11.722 0v-4.82a5.87 5.87 0 0 0-5.862-5.86"/><path d="M137.134 38.578a5.87 5.87 0 0 0-5.861 5.86v4.82a5.861 5.861 0 1 0 11.715 0v-4.82a5.86 5.86 0 0 0-5.854-5.86"/><path d="M157.965 8.087a6 6 0 0 0 .51.967 5.2 5.2 0 0 0 .756.912 5.7 5.7 0 0 0 .885.735 5.3 5.3 0 0 0 .987.518 5 5 0 0 0 1.144.354 6 6 0 0 0 1.116.115 6 6 0 0 0 1.13-.115 5.3 5.3 0 0 0 1.11-.34 5.5 5.5 0 0 0 1.055-.559 7 7 0 0 0 .857-.68 5.92 5.92 0 0 0 1.71-4.14 5.2 5.2 0 0 0-.096-1.089 5.4 5.4 0 0 0-.307-1.15 5.5 5.5 0 0 0-.537-1.008 6 6 0 0 0-.722-.892 5.6 5.6 0 0 0-.898-.728 5.5 5.5 0 0 0-1.035-.545 6 6 0 0 0-1.096-.326 6 6 0 0 0-3.404.34 6.5 6.5 0 0 0-.953.51 5.9 5.9 0 0 0-1.654 1.641 5.9 5.9 0 0 0-.858 2.076 5.75 5.75 0 0 0 0 2.295 6 6 0 0 0 .3 1.11"/><path d="M189.64 28.932a5.87 5.87 0 0 0-5.841 5.86v4.82a5.861 5.861 0 0 0 11.722 0v-4.82a5.87 5.87 0 0 0-5.881-5.86"/><path d="M202.771 48.224a5.86 5.86 0 0 0-5.861 5.854v4.827a5.861 5.861 0 0 0 11.715 0v-4.827a5.86 5.86 0 0 0-5.854-5.854"/><path d="M229.02 0a5.86 5.86 0 0 0-5.854 5.861v1.927a5.861 5.861 0 1 0 11.716 0V5.86A5.87 5.87 0 0 0 229.02 0"/><path d="M255.277 9.646a5.86 5.86 0 0 0-5.855 5.854v4.827a5.861 5.861 0 0 0 11.716 0V15.5a5.86 5.86 0 0 0-5.861-5.854"/></g><rect width="256" height="3.296" x="0" y="128"/></g><use href="#a14" x="256"/><use href="#a14" x="512"/><use href="#a14" x="768"/></svg>