<svg xmlns="http://www.w3.org/2000/svg" viewBox="0 0 1024 128"><path id="a16" d="M0 128V81.92a8.533 8.533 0 0 0 8.533-8.533V18.773a8.533 8.533 0 0 1 17.067 0V35.84a8.535 8.535 0 0 0 8.533 8.533 8.533 8.533 0 0 0 8.534-8.533V8.533a8.533 8.533 0 0 1 17.066 0v10.24a8.535 8.535 0 0 0 8.534 8.534A8.535 8.535 0 0 1 76.8 35.84v17.067a8.535 8.535 0 0 0 8.533 8.533 8.533 8.533 0 0 1 8.534 8.533v20.48a8.535 8.535 0 0 0 8.533 8.534 8.533 8.533 0 0 0 8.533-8.534v-61.44a8.533 8.533 0 0 1 8.534-8.533A8.533 8.533 0 0 0 128 11.947a8.533 8.533 0 0 1 17.067 0v30.72A8.533 8.533 0 0 0 153.6 51.2a8.535 8.535 0 0 1 8.533 8.533V76.8a8.535 8.535 0 0 0 8.534 8.533A8.533 8.533 0 0 0 179.2 76.8V29.013a8.533 8.533 0 0 1 17.067 0v3.414a8.535 8.535 0 0 0 8.533 8.533 8.533 8.533 0 0 1 8.533 8.533v20.48a8.535 8.535 0 0 0 8.534 8.534 8.533 8.533 0 0 0 8.533-8.534V22.187a8.533 8.533 0 0 1 8.533-8.534h1.707a6.827 6.827 0 0 0 6.827-6.826A6.827 6.827 0 0 1 254.293 0H256a8.535 8.535 0 0 1 8.533 8.533v64.854a8.535 8.535 0 0 0 8.534 8.533 8.533 8.533 0 0 0 8.533-8.533V25.6a8.533 8.533 0 0 1 17.067 0v20.48a8.535 8.535 0 0 0 8.533 8.533 8.533 8.533 0 0 0 8.533-8.533V8.533A8.535 8.535 0 0 1 330.301 2.5c1.6 1.6 2.499 3.771 2.499 6.034v64.854a8.53 8.53 0 0 0 8.533 8.533V128Z"/><use href="#a16" transform="translate(341.333)"/><use href="#a16" transform="translate(682.667)"/></svg>