<svg xmlns="http://www.w3.org/2000/svg" viewBox="0 0 1024 128"><path id="a15" d="M256 128V67.692l-21.733 33.81c-6.32 9.833-20.657 4.166-14.49-7.247 2.204-4.079 1.18-9.148-2.418-12.072-4.083-2.198-9.613-1.519-12.073 2.412-6.704 10.717-23.55 1.41-16.907-9.66l7.243-12.073c6.339-10.565-10.912-20.554-16.904-9.66l-26.568 48.3c-6.177 12.729-21.094 3.278-16.903-4.83l6.582-12.738c6.44-11.27-9.806-20.27-16.246-8.999l-14.49 24.15c-7.769 12.948-20.718 2.452-16.904-4.83l26.564-50.713c6.398-12.215-8.875-20.628-16.903-7.248l-7.248 12.078c-7.093 11.821-21.388 2.282-14.49-9.665 6.49-11.242-10.4-20.894-16.903-9.66L38.64 74.935c-6.44 11.27-23.348 1.61-16.908-9.66l14.49-24.15c6.09-10.149-8.694-19.323-14.49-9.66L0 67.691V128Zm-15.634-61.808c6.462 0 9.696-7.811 5.128-12.38-4.569-4.568-12.38-1.334-12.38 5.128a7.25 7.25 0 0 0 7.252 7.252M199.63 79.779c2.522.097 5.08-1.748 5.08-4.84 0-4.944-6.549-6.702-9.022-2.417-1.793 3.106.345 7.12 3.942 7.257m-81.3-7.257c-1.046-2.982-4.625-4.176-7.252-2.417-3.34 2.236-2.65 7.332 1.162 8.603 3.307 1.102 7.582-1.933 6.09-6.186m43.807.293c4.568-4.568 1.333-12.38-5.128-12.38a7.25 7.25 0 0 0-7.252 7.253c0 6.628 7.951 9.555 12.38 5.127m-15.52-24.599c3.385 0 6.766-2.212 6.766-6.638-.001-8.848-13.534-8.847-13.537 0-.002 4.426 3.386 6.638 6.771 6.638m-98.392-4.703c4.308 0 6.465-5.207 3.419-8.253-3.046-3.045-8.253-.89-8.253 3.419a4.835 4.835 0 0 0 4.834 4.834M191.931 27.01c5.716-3.217 4.563-11.767-1.799-13.357-6.363-1.59-11.4 5.411-7.87 10.94 2.151 3.37 6.457 4.224 9.669 2.417M75.234 15.757c1.21 0 2.418-.806 2.418-2.418 0-3.223-4.835-3.223-4.835 0 0 1.612 1.209 2.418 2.417 2.418m47.931 3.582c4.308 0 6.464-5.207 3.419-8.253-3.046-3.045-8.254-.89-8.254 3.418a4.835 4.835 0 0 0 4.835 4.835m-112.425 0c5.054.143 10.01-3.691 10.01-9.67C20.75 4.33 16.42 0 11.08 0 2.463 0-1.849 10.415 4.242 16.506c1.882 1.883 4.2 2.768 6.497 2.833"/><use href="#a15" x="256"/><use href="#a15" x="512"/><use href="#a15" x="768"/></svg>