<svg xmlns="http://www.w3.org/2000/svg" viewBox="0 0 1024 128"><path id="a18" d="M0 128h1024V11.146a33.784 36.855 0 0 0-.8-5.415c-2.002 3.668-4.083 9.957-5.524 9.695-6.565-1.573-13.69 3.58-19.774-2.795a2.402 2.62 0 0 0-2.882 0c-4.083 4.629-8.646 2.445-13.05 2.795a33.143 36.157 0 0 1-7.765-2.446 10.327 11.266 0 0 0-4.003 1.223c-3.843.96-6.484 7.161-11.048 5.502a40.028 43.667 0 0 0-10.487-3.144c-3.442-.262-7.045 4.978-10.327-.873a2.081 2.27 0 0 0-2.082.61c-2.001 1.922-4.083 4.193-6.164 6.289-3.042-4.629-7.125-4.454-10.087.524-1.761-3.755-1.601-3.057-4.243-1.048a34.504 37.641 0 0 1-10.247 4.541c-2.002 1.31-4.163.175-5.764-2.794-.4-.874-4.083 1.222-6.245 2.096l-.96-6.376c-5.364 7.074-11.448 1.31-16.972 3.843l-.24 6.288a15.45 16.856 0 0 0-6.965 2.096c-3.763 3.843-9.367 4.192-12.33-.699L852.6 35.6h1.041l1.601 12.314c-5.283 3.58-10.567 4.017-13.209 11.79l4.723 2.533c-2.401 4.629-4.483 9.257-8.245 2.62a2.402 2.62 0 0 0-2.402-.699 1.921 2.096 0 0 0-1.601 1.398 4.403 4.803 0 0 0 .56 2.707 64 64 0 0 0 2.162 5.415 64.445 70.304 0 0 1-11.849 9.083 43.71 47.685 0 0 1-12.889 1.659c-1.12.524-2.481 0-3.282-1.834-.8-1.834-.72-4.629-1.04-6.725l-1.442-1.223c-.16 1.048-.16 2.271-.64 2.97-3.603 6.9-8.967 7.249-12.73.699a37.386 40.785 0 0 0-8.965-6.987l-1.281 2.096 2.001 8.733c-.48.874-1.521 2.184-1.761 3.668-1.361 9.52-3.523 11.004-9.687 5.94l-1.2 6.811c-2.643-1.222-6.005 2.882-7.766-3.406a3.522 3.843 0 0 0-3.443.437c-5.364 6.463-10.967.786-16.411 2.97l-.32-1.835 2.721-4.367-.4-1.484c-5.123 2.358-11.128-4.629-16.812 5.502-2.642-2.184-6.164-5.677-8.966-7.336s-4.803-8.384-8.246-4.542c-3.442 3.843-7.605 3.319-10.887-1.31l-4.484 10.83-.24-.96-4.963 5.85c.72 4.28.48 8.21 1.761 10.219 2.242 3.668-1.2 5.152-.72 7.772a15.931 17.38 0 0 0-3.123-2.183 13.05 14.236 0 0 0-3.922-.437l-1.121 7.948a61.163 66.724 0 0 1-12.169-5.852c-5.123-4.017-6.564-3.842-8.566 4.542l-5.364-.437 1.281-14.148c-3.682-1.048-4.803.611-5.524 4.541v.175c-.72 4.89-3.202 7.336-5.363 5.59l-.4-.263c-3.283-3.668-5.685-3.668-8.166.874-2.322-7.424-2.322-7.249-8.006-7.86a9.767 10.655 0 0 1-3.282-2.358c-.72-.524-1.521-.786-2.482-1.398l-.4 6.9-14.33 2.358a9.847 10.742 0 0 1-3.363 1.222c-2.722.7-5.444 3.057-7.845-1.746a4.963 5.415 0 0 0-4.083-.96c-.72 4.628-4.563 3.056-5.364 5.152-2.161 5.59-3.122.873-4.483-.611-2.082 3.23-9.046 5.589-13.13 2.358-4.082-3.232-8.485-6.201-13.369-9.695v-5.851a29.38 32.052 0 0 0-3.522-4.541c-3.523-3.144-7.285-8.385-10.888-8.385-7.205.437-12.649-2.27-16.972-10.916-.56-1.223-3.042-.612-4.643-.612a18.653 20.349 0 0 0 1.681 4.28c1.681 3.056 3.523 5.938 6.084 10.13-3.442 0-6.644 1.136-7.285 0-1.52-2.707-3.522-3.755-5.444-2.969-3.202 0-6.084 0-6.804-3.58l1.84-12.752c-3.361.961-5.683 1.398-7.925 2.271a19.694 21.484 0 0 1-4.963 2.882c-4.403.262-8.806-.436-13.21 0-4.403.437-7.204-1.572-8.565-6.9l-10.007 6.638.56-13.013a23.857 26.026 0 0 0-5.444 4.192c-3.602 5.066-7.045 10.131-12.569 8.821-.72 0-1.44 1.747-2.321 2.096a2.482 2.707 0 0 1-2.562 0c-2.242-5.764-5.684-6.812-9.767-6.375a7.045 7.685 0 0 1-2.882-.874l3.763-9.082-4.484-2.096 2.242-6.114-6.725-.524c-.96 11.179-2.642 12.838-10.247 10.131l3.122-13.624a4.083 4.454 0 0 0-2.401 0c-2.402 2.358-4.564 5.065-6.965 7.249a3.202 3.493 0 0 1-3.363 0c-4.243-4.542-8.406-9.17-12.729-13.712-3.922 8.21-6.884-4.192-10.647-.873-.4-8.122-1.921-11.441-5.364-11.441h-6.004c-1.921 0-3.443.436-5.044-3.319-2.241-5.327-7.285-5.415-11.768-1.834l5.124 3.668-17.212 3.232a3.683 4.017 0 0 0-2.402-1.66c-4.163.699-9.367-2.27-11.688 6.288a2.882 3.144 0 0 1-1.281 1.223c-4.163 2.009-8.566-.35-11.849-6.55l-3.122-5.939-7.845 17.554c-3.042-8.034-7.606-3.842-11.448-5.152l-.24-6.987-9.687-2.882c-1.361 9.083-5.124 12.663-10.167 9.083a9.527 10.393 0 0 0-4.884-2.708c-5.444 1.223-8.006-4.541-10.888-9.083-1.36-2.183-2.802-4.628-4.243-6.724l-1.6 1.484 3.041 13.625c-1.68 0-3.922.436-4.323-.524-2.241-6.114-5.283-2.359-8.165-2.359l-.24 5.153a36.666 40 0 0 1-6.005 4.891 3.923 4.28 0 0 1-4.163 0c-3.682-3.493-7.845-3.493-11.608 0a38.907 42.445 0 0 1-9.206 4.28 3.603 3.93 0 0 1-3.363 0c-4.082-5.677-9.126-2.184-13.61-3.232l-8.085-2.27-1.12 9.17h-4.084l-.4-8.385a29.861 32.576 0 0 0-4.803 4.542c-.8.96-.88 2.97-1.601 4.017-3.923 5.502-8.807 7.86-13.21 7.86s-9.206-1.572-11.448 6.725c-.08.524-1.04.35-1.44.786a65.326 71.265 0 0 0-5.685 6.375 43.31 47.248 0 0 1-6.965 8.56c-1.36.96-3.762-1.835-5.844-2.97a1.601 1.747 0 0 0-1.2-.35 89.023 97.116 0 0 1-9.847-4.628c-.961-.786-1.602-2.446-1.922-4.542-1.12-7.248-5.844-13.798-10.647-14.06-9.767 0-19.534 0-29.38-.35-.962 0-2.563.612-2.803 0-2.322-5.677-6.084-2.882-9.126-3.493-6.645-1.223-13.61 2.532-20.014-2.795-.64-.437-1.762.873-2.642 1.223-3.683 1.484-7.365 4.104-10.728-1.66a20.975 22.882 0 0 0-3.923-3.93l-.48 8.297a18.093 19.738 0 0 1-.08 2.27l-2.322 1.049c-3.682 2.009-7.365 4.629-11.127 6.55a3.603 3.93 0 0 1-3.923-.873c-2.722-4.978-6.325-7.25-9.847-6.376L0 48.787Z"/><use href="#a18" opacity=".5" transform="translate(0 -5.731)"/></svg>