<svg xmlns="http://www.w3.org/2000/svg" viewBox="0 0 1024 128"><path d="M0 48.543c89.107-15.964 269.061 12.19 468.463 0C668.154 36.933 867.556 32 1024 51.736V128H0Z"/><path d="M0 34.03c92.01-23.22 211.592 11.03 291.41 15.964S559.891 7.328 659.156 12.262c99.556 4.934 134.966 24.381 204.626 25.252 69.66.58 160.218-25.542 160.218-25.542v51.084H0Z" opacity=".5"/><path d="M0 9.36c74.304 24.09 222.912 8.707 342.204 12.19 119.002 3.483 199.111 17.705 278.059 8.127 79.238-9.578 162.83-33.96 249.905-29.025 87.075 5.515 137.288 23.8 153.832 24.381v35.12H0Z" opacity=".5"/></svg>