<svg xmlns="http://www.w3.org/2000/svg" width="512" height="512" viewBox="0 0 512 512">
  <path class="svg-variable svg-no-fill" style="--sm-side:512" d="M213.91.04C165.45-.26 102.97.7 72.18 12.9c-27.42 11-48.43 32-59.28 59.28C-3.24 113.09.37 210.64.37 256c0 45.36-3.75 142.77 12.53 183.82 11 27.42 32 48.43 59.28 59.28 40.9 16.14 138.45 12.52 183.82 12.52 45.36 0 142.77 3.76 183.82-12.52 27.41-11 48.43-32 59.28-59.28 16.28-40.9 12.53-138.46 12.53-183.82 0-45.36 3.75-142.77-12.53-183.82-11-27.41-32-48.43-59.28-59.28C398.91-3.24 301.36.37 256 .37c-11.34 0-25.93-.23-42.09-.33zm208.52 52.24a37.3 37.3 0 0 1 37.29 37.3 37.2 37.2 0 0 1-37.3 37.29 37.2 37.2 0 0 1-37.29-37.3 37.3 37.3 0 0 1 37.3-37.29z"/>
  <path class="svg-variable svg-no-fill" style="--sm-side:512" d="M256 359.95c-57.2 0-103.95-46.62-103.95-103.95 0-57.33 46.62-103.95 103.95-103.95 57.33 0 103.95 46.62 103.95 103.95 0 57.33-46.76 103.95-103.95 103.95z"/>
  <path class="svg-fill" d="M256.04 0C204.55 1.28 152.4-2.23 101.48 6.8 49.76 16.53 9.2 62.94 4.38 115.04-2.08 182.64.61 250.76.5 318.57 2 367.97-2.13 424.1 32.74 463.98c28.05 35.46 74.88 46.36 118.04 46.43 79.6 1.62 159.45 3.25 238.95-1.9 51.05-2.8 99.33-38.18 112.9-88.19 12.48-49.36 7.59-100.95 9.33-151.35-1.09-54.7 2.32-109.96-6-164.22-8.58-53.17-55.82-95.4-109.09-100.38C350.2-.9 302.94.67 256.04 0Zm150.09 72.26a33.62 33.62 0 0 1 33.61 33.61 33.54 33.54 0 0 1-33.61 33.61 33.53 33.53 0 0 1-33.61-33.6 33.61 33.61 0 0 1 33.6-33.62zm-150 39.5a143.88 143.88 0 0 1 144.1 144.11 143.88 143.88 0 0 1-144.1 144.11A143.88 143.88 0 0 1 112 255.88a143.88 143.88 0 0 1 144.11-144.11zm0 50.42c-51.68 0-93.7 42.02-93.7 93.7 0 51.67 42.15 93.68 93.7 93.68 51.54 0 93.69-42.01 93.69-93.68 0-51.68-42.02-93.7-93.7-93.7z"/>
</svg>