<svg xmlns="http://www.w3.org/2000/svg" width="512" height="301.81" viewBox="0 0 512 301.81"><path class="svg-variable" style="--sm-side:301.81" d="M487.03 291.41a11.41 11.21 0 0 1-9.99 5.02 13.67 13.43 0 0 1-6.77-1.63l-25.1-16.24a16.77 16.47 0 0 1-7-10.27 9.99 9.81 0 0 1 1.42-7.13l1.54-2.22c4.16-6.19 17-25.11 17-40.41 0-9.11-5.94-15.18-11.53-15.18-5.59 0-15.45 3.73-26.87 31.53-6.66 16.47-27.1 66.93-78 66.93-35.2 0-71.58-29.79-71.58-79.54 0-42.63 26.52-75.8 26.75-76.16 7.97-9.1 12.96-22.77 12.96-35.62 0-28.73-23.66-51.5-53.98-51.98-30.32-.46-53.74 23.25-53.74 51.98 0 12.85 4.87 26.51 12.84 35.62.35.36 26.87 33.53 26.87 76.16 0 49.75-36.39 79.54-71.58 79.54-50.9 0-71.34-50.46-78-67.05-11.54-27.68-19.62-31.41-26.87-31.41-7.26 0-11.54 6.07-11.54 15.18 0 15.3 12.84 34.22 17 40.41l1.55 2.22a9.99 9.81 0 0 1 1.43 7.13 16.53 16.24 0 0 1-7.14 10.27l-24.73 16.12a14.27 14.02 0 0 1-7.01 1.75 11.41 11.21 0 0 1-10-5.02C15.59 278.8 0 252.99 0 220.98c0-51.04 34.72-77.9 68.96-77.9 41.15 0 63.97 35.04 75.75 64.47 10.7 26.51 21.16 29.67 28.06 29.67 6.9 0 14.5-7.01 14.5-17.17 0-7.6-2.5-16.47-7.37-26.4l-12.36-19.39c-14.99-18.92-22-39.7-22-65.4C145.54 48.82 194.88 0 255.64 0h.6c60.88 0 110.22 48.82 110.22 108.86 0 25.7-7.01 46.48-22 65.4l-12.36 19.4c-4.88 9.92-7.5 18.8-7.5 26.39 0 10.16 6.07 17.17 14.63 17.17s17.24-3.16 28.06-29.67c11.78-29.43 34.49-64.47 75.75-64.47 34.24 0 68.96 26.86 68.96 77.9 0 32-15.58 57.82-24.97 70.43z"/></svg>