<svg xmlns="http://www.w3.org/2000/svg" width="576" height="512" viewBox="0 0 576 512">
  <defs><path id="clone-youtube" d="M549.7 124.1C543.5 100.4 524.9 81.8 501.4 75.5 458.9 64 288.1 64 288.1 64S117.3 64 74.7 75.5c-23.5 6.3-42 24.9-48.3 48.6C15 167 15 256.4 15 256.4s0 89.4 11.4 132.3c6.3 23.6 24.8 41.5 48.3 47.8C117.3 448 288.1 448 288.1 448s170.8.0 213.4-11.5c23.5-6.3 42-24.2 48.3-47.8 11.4-42.9 11.4-132.3 11.4-132.3s0-89.4-11.4-132.3zM232.2 337.6V175.2l142.7 81.2-142.7 81.2z"/></defs>
  <use href="#clone-youtube" class="svg-variable svg-no-fill" style="--sm-side:512"/>
  <use href="#clone-youtube" class="svg-fill"/>
</svg>