<svg xmlns="http://www.w3.org/2000/svg" viewBox="0 0 256 256"><path fill="#fff" d="m1.1 256 18-65.7a126.6 126.6 0 0 1-16.9-63.5A127 127 0 0 1 219 37.2 127 127 0 0 1 129 253.8c-21.3 0-42.2-5.3-60.7-15.4z"/><path fill="#25d366" d="M129.1 21.4A105.6 105.6 0 0 0 23.6 127a105.2 105.2 0 0 0 16.2 56l2.5 4-10.7 39 40-10.5 3.8 2.3A105.6 105.6 0 0 0 234.6 127a104.8 104.8 0 0 0-30.9-74.7 104.8 104.8 0 0 0-74.6-30.9z"/><path fill="#fff" d="M97.4 73.8c-2.4-5.3-4.9-5.4-7.1-5.5h-6.1c-2.1 0-5.6.8-8.5 4-2.9 3.1-11 10.8-11 26.4 0 15.6 11.3 30.6 12.9 32.8 1.6 2 21.9 35.1 54.1 47.8 26.8 10.6 32.3 8.5 38 8 5.9-.6 18.8-7.7 21.5-15.1 2.6-7.4 2.6-13.8 1.8-15-.8-1.4-2.9-2.2-6-3.8-3.2-1.6-18.8-9.2-21.7-10.3-3-1-5-1.6-7.1 1.6-2.2 3.2-8.2 10.3-10 12.4-2 2.1-3.8 2.4-7 .8-3.1-1.6-13.3-5-25.5-15.7a95.7 95.7 0 0 1-17.6-22c-1.8-3.2-.2-4.9 1.4-6.5 1.4-1.4 3.2-3.7 4.8-5.5 1.5-1.9 2-3.2 3.1-5.3 1-2.1.6-4-.2-5.5-.8-1.6-7-17.3-9.8-23.6"/></svg>