<svg xmlns="http://www.w3.org/2000/svg" width="448" height="512" viewBox="0 0 448 512">
  <path class="svg-variable svg-no-fill" style="--sm-side:448" d="M222.7 478.9c-40 0-79.3-10.8-113.4-31l-8.1-4.9-84.3 22L39.4 383l-5.4-8.5A223 223 0 0 1 222.8 33.1c59.6 0 115.5 23.2 157.5 65.4 42 42 67.8 98 67.7 157.5 0 122.9-102.5 222.9-225.3 222.9zM345 312a968.1 968.1 0 0 0-45.8-21.7c-6.1-2.3-10.6-3.4-15 3.4a385 385 0 0 1-21.3 26.3c-3.9 4.4-7.8 5-14.5 1.7-39.3-19.7-65.2-35.2-91.1-79.7-6.9-11.8 6.9-11 19.7-36.6 2.1-4.4 1-8.3-.6-11.7-1.7-3.4-15.1-36.3-20.7-49.7-5.4-13-11-11.3-15-11.5-4-.2-8.4-.2-12.9-.2-4.4 0-11.7 1.6-17.8 8.3-6.2 6.8-23.5 23-23.5 55.9 0 33 24 64.8 27.3 69.3 3.4 4.4 47.2 72 114.5 101.1 42.5 18.4 59.1 20 80.4 16.8 12.9-2 39.6-16.2 45.1-31.8 5.6-15.7 5.6-29.1 3.9-32-1.6-3-6-4.6-12.7-7.9z"/>
  <path class="svg-fill" d="M223.9 32c-122.4 0-222 99.6-222 222 0 39.1 10.2 77.3 29.6 111L0 480l117.699-30.9c32.4 17.7 68.902 27 106.102 27h.1c122.3 0 224.1-99.6 224.1-222 0-59.3-25.2-115-67.1-157S283.2 32 223.9 32zm-85.898 110.063c4.038 0 8.076 0 11.568.219 3.711.218 8.732-1.418 13.643 10.369l18.662 44.963c1.528 3.056 2.511 6.546.547 10.584-11.568 23.137-24.012 22.375-17.791 33.07 23.464 40.271 46.819 54.24 82.396 72.029 6.002 3.056 9.604 2.509 13.096-1.529 3.601-4.147 15.169-17.678 19.207-23.789s8.077-5.13 13.643-3.057c5.566 1.964 35.36 16.588 41.363 19.643 6.002 2.947 10.04 4.475 11.459 7.203 1.528 2.51 1.53 14.624-3.49 28.811s-29.141 27.067-40.818 28.813c-19.208 2.838-34.268 1.418-72.684-15.17-60.788-26.302-100.405-87.417-103.461-91.455-2.947-4.038-24.664-32.849-24.664-62.643s15.608-44.418 21.174-50.529c5.566-6.002 12.112-7.531 16.15-7.531z"/>
</svg>