<svg xmlns="http://www.w3.org/2000/svg" viewBox="0 0 1024 128"><path d="m426.645 0-.72.451-.8.451h-.72l-.4.27-1.12.633h-1.36l-.72.45-.72.632h-2l-.88.54-.16.18-.4.182h-5.92l-.56.36-1.12.54h-2.32l-.8-.27-.32-.179-1.12.541-.56.451-.16.18-.32.27h-1.441l-.559-.36-.32-.361-.32-.272-.96-.359h-.08l-.48.09-.56.27-.96.181-.4.27-.88.632h-2l-.88-.632-.4-.27h-.4l-.56.361-1.04.631h-2.96l-.56.36-.32.45-.4.272h-2.32l-.801.451-.158.27-.561-.09-.56-.18-.32.18-.401.182h-2.96l-.56.449-.32.361-.559.182-.56.36-.72.812-.481.54-.559.272h-1.201l-.719-.45-.72-.452h-2.96l-1.12.72h-.561l-.319-.269-.96-.361-.32.18-1.12.722h-.8l-.96.541-.56.362h-1.76l-.64.63-.481.811-.639.633h-.4l-.56.451-.401.81-.48.633-.72.721-.32.361h-2.8l-.88.541-.4.36h-1.199l-.32-.27-.961-.63h-2.88l-.88.63-.4.27h-.96l-.56.361-.72.541-.88.813-.72.45h-1.04l-.88.542-.56.361h-8.48l-.32.18-1.52.72h-.96l-.96.633-.48.36h-2.4l-.56-.27h-.72l-.56.361h-3.92l-1.12.631-.56.27h-2.96l-1.12.633-.56.27h-1.76l-.4.27-.32.362h-1.52l-.72.36-.72.54-.72.541h-1.76l-.56-.449-.48-.633-.72-.72-.32-.272-.48-.54-.561-.452-.478-.63-.561-.993-.56-.451h-2.721l-.719-.362-.88-.81-.72-.723-.56-.72-.48-.452h-.96l-.4-.271-.56-1.082-.561-.541-.479-.541-.72-.541h-1.76l-.56-.362-.721-.54-1.12-.721h-.08l-.48.09-.32.36-.559.36-.96.451h-.321l-.96-.54-.72-.452-.799-.45-.56.27-1.041.721h-2.719l-.32.272-1.52 3.156-1.361 2.887-.32.992-.239 1.082-.96 1.984-.24.993-.081 1.984-.56.902h-.399l-.4-.271-.801-1.172-.48-.361-.8.271-.72.72-.32.362-.96 1.895-.08.361-.48 1.803-.4.902-.16 1.172v2.707l-.08 3.969-.239.992-.8 1.713-.481.54h-5.68l-.4.452-.56.992-.48.541h-.4l-.72.633-.56.36-.88-.452-.8-.54h-2.16l-.56.36-.88.813-.48 1.082v.361l1.04 1.442.72-.451.72-.631h.56l.799 1.082.48.992h.16l.401.451.48.361.96.18.4.272.48 1.172-.16 1.353-.88.992-1.28-.18-.72-.54-.56-.182-.32-.361-.56-.45h-1.36l-.4-.181-.72-.721h-3.76l-.88-.451h-.56l-.56.451h-1.76l-.72.451-.8.451h-.72l-.4.27-1.12.63h-2.32l-.72.452-.241.182-.318.359h-1.602l-.639-.72-.16-.18-.4.09-.16.179-1.12.723h-1.601l-1.04-.723-.4-.361-.64-.721-.399-.18h-2.16l-.4-.271-.64.18-.16.271-.161 1.443.4.903.48.72.722.631.398.272h.96l.561-.362.559.09.4.813.561.45h.72l.72.542.72.541h.799l.72.63.561 1.626-.16.63h-3.121l-1.12-.722-.56-.36h-.718l-.561-.36-.16-.272-.56-.36h-3.76l-.721-.45-.799-.362h-2.72l-.481-.451-.16-.27-1.2-.181-.16.181-.879.721h-.56l-.72.451-.401.361-.559-.271-1.601-.09-.8.451-.32.18-.4.361-.4.813v1.533l.48.81.32.272h.801l.88.63.56.452h1.359l.56-.451.481-.541.559-.451h.48l.16.18 1.121 1.083.72-.271.72-1.262.32-.271h1.6l.48.54.639.993.88-.09.16-.451.321-.541.559-.361h.8l.561.271 1.04.72.4.272 1.279.903.32.27.56.54.641.723.399.36h.16l.32.991-.32.993-.479.54-.72.542-.64.181-.161.18-1.12 2.074-.56.092-.638-.902-.24-.182-.08.271-.321.452-.48.72-.16.182-.16-.092-.321-.45V73.42l.64-1.533.16-1.082v-1.262l-.48-1.084h-.558l-.4.361-.962 1.985-.638.812-.561.451-.24.27-.64-.27-.321-.361-.559.09-.16.18-.96.45-.561-.269-1.12-.54-.32.179-1.119.723h-3.121l-.559-1.084.159-1.985-.239-.992h-.72l-1.2 2.256-.48.18-1.121-.993-.479.092-.48.81-.961 1.985-.559 1.082-.72.633-.881-.543-.559-.36h-.4l-.48-.54-.401-.903v-1.082l.16-.722.16-1.985-.56-.902h-.16l-.72.722-.64.721-.799.182-.16-.182h-.16l.08.451-.72-.45-.401-1.173-.08-1.082-.08-3.066-.32-.902-.239-.362v.723l-.4 1.351-.16.272h-.08l-1.122.27h-.08l-.318-.36-.56-.271h-5.52l-.56-.18-.321-1.082.48-.723h.8l.8-.812.16-.27V59.44l-.32-.45-.48-.09-.8.36-.72.452h-.56l-.72-.451h-2.56l-.72-.451-.24-.27-.88.18-.72.54h-1.76l-.56.362-.16.18-.32-.18-.16-.271.08.54-1.52-.359-.24-.45.081-.634.879-.09.16-.27.32-.722.4-.27 1.12-.632.56-.36h.72l.56-.45.16-.182 1.121-.27.398.27.48-.09.962-.451.478-.451.16-.27.32-1.443-.08-1.172-.48-.451-.398.27-.961.54h-3.12l-1.28.723-.56.36h-1.76l-1.28.722h-.56l-.16-.18-.72-.543h-1.84l-.48.361-.4.362-.721.54-.719-.089-.56-.271-.88-.631-.16-.18h-1.2l-.72-.723-.48-.361-.96.451-.48-.18-.24-.992.48-1.172h3.68l1.28.721h.56l.399-.361.56-.36h2.32l.401-.271.16-.18.88-.63.72-.633.16-.36v-.902l-.32-.541-.72-.182-1.28.723h-.24l-.72-.451-.72-.541h-.4l-1.12-.723-.32-.27h-3.92l-.72.631-.721 1.264h-.158l-.48-.451v-1.174l.4-.992.478-1.082.4-2.164-.32-1.444-.24-.54-1.119-1.534-.32-.902-.56-.903-.4-.18-.48-.45-2-3.97-1.12-2.165-.64-.81-.4-.362-.4-.813-.88-.63-.88-.811-.4-.812-.561-.541h-1.36l-1.279-.631-.4-.272-.64-.812-.72-.631-1.04-.992h-.721l-.399.181h-2.4l-.72.541-.72.541h-.96l-.881.631-.559.362h-.8l-.561.359-.319.361-.88.903-.721.63-.879.903-.32.361-.48.81-.88.723-.8.81-.32.544v.36l-.481 1.714-.559 1.172-.48.63-.721.723-.4.721h-.399l-.72-.63-.32-.362-.8-.451h-2.32l-.4-.27-.561-.992-1.12-2.256-.48-.72-.48-.182-.959.451h-2.16l-.56.451-.241.541-.64.813-.72.902-.4.81-.48.452h-1.36l-.56.361-.4.361-.88.903-.48.36h-1.2l-.72.45-.72.541h-2l-.96-.63h-.08l-1.12-.18-.08.09-.72.72-.64.633-.4.27h-1.6l-.32-.362-1.28-2.343-.56-.182-.32.451-1.12.361-.24-.18-1.84-3.609-.32-.27h-.799l-.56-.18-.16-.18-.401.18-.16.632-.48 1.443-.08 1.534-.159.72-.24.631-.56.451-1.36.092h-.56l-.561.36-.96.54h-.16l-1.12-.54-.56-.36h-1.6l-.88-.543-.16-.18h-.56l-.08.09-.48.541h-.4l-.16-.18-.64-.72-.56-.633-.56-.36h-.96l-.48.45-.16.182-.72-.272-.24-.992-.32-.992-.16-.721-.32-1.082-.32-.541-.48.541-.16.27-2.32 4.87-.56.18-.56-.63-.56-.27-.72.54-1.041 1.804-.479.632-.72.631-.561-.361-.959-1.805-.8-.18-.16.272-1.12.36-.32-.36-.48-.723-.64-.81-.64-.902-.24-.541-1.12-.182-.72.54h-.16l-.721.542-.559.451H59.92l-.88.451-.56-.09-1.119.452-.72 1.353L56 39.146l-.559.541-.48.542-.48.359h-1.04l-.32-.18-1.121-.72h-1.6l-.56.359-.16.271-.159-.18-.4-.27-1.121.089-.799.182-.48.18-.56.269-.96.451-.56-.18-.4-.18H41.92l-.719-.45-.8-.452H40l-.879.541-.96.09-1.12-2.164-.72-.54-.882.63-.398.812-.56 1.172-.561.362h-7.44l-.56-.272-.16-.27-.559-.36H23.84l-.48-.452-2.4-4.69-.72-1.353-1.28-.361-.32.361-.56.362h-2.4l-.559.359-.16.271-.4.81-.32.362-.882 1.082-.558.992H9.04l-.4-.18-1.362-1.443-.959-.18-.4.811-.08 1.533-.16.993-.56-.45-.4-.722-.4-.27H0V128h649.607l-.16-.732.24-1.893.561-1.082.48.541v2.074l-.72 1.092h3.36l-.241-1.363.08-.721.08-.361.32-.18.641 1.352-.32 1.273H1024V37.613l-4.467-.27-.88.542-.561.45h-1.36l-.56-.45-.719-.541h-2.72l-.561.36-.96.632-.72.36-.16.181h-.16l-.96-.451-.72-.541-.16-.182-1.36.09-.16.182-.56.36h-1.76l-.56.27h-.72l-.96.18-.48.451h-1.76l-.8.451-.88.542h-4.72l-.4.271-.88.72-.88.634-.4.269-.64.813-.4.18h-1.36l-.56-.362-.96-.631h-2.16l-1.28.813-.56.18-.72-.452-.24-.18h-.72l-1.12.721h-1.52l-.56.451-.72.631h-1.12l-.56.361-.88.813-.72-1.28-.56-.719-.561-.461-.238-.425-.881-1.008-.48-.405-.56-.176-2.32-.142-.4-.144-.32-.394-.4-.342h-1.52l-.48-.451-.8-.451h-2.96l-.881-.38-.559-.253-.96.182-.401.27-.639.722-.56.541-.481.361h-1.44l-.72.18-.559.541-.32.18-8.08-1.823-1.281.812-.559.272h-1.602l-.718.45-.721.45h-2l-.959-.45-.56.18-.32.18h-4.561l-.559.362-.16.27-.56.36h-2.561l-.88.632-.96.543h-1.36l-.72.449-1.52.092v-.182l-.48.09-.72.361-.96.63-.56.362h-1.76l-.56-.361-.56-.09-.72.451h-1.36l-1.12.631-.56.361h-2.24l-.72.452-.96.54h-1.92l-1.12.723-.56.451-.4.721-.72 1.444-.48.45h-1.04l-.32-.27-1.12-.721h-.401l-.559.359-1.12.633h-.96l-.4.18-.16.18-.881.901-.318.452-.561.36h-1.76l-.56.362-.881.541-.799.18-.16.09-.881 1.625-.16.72.16.721v.272l.56.45-.4 1.276-.478.45-.48.812-.882.72h-1.76l-.48.544-.16.81-.639 1.354-.32.27h-1.041l-.479-.45-.56-.992-.56-.451h-.96l-1.04.72-.561.362-1.36.18-.56.36-.319.452-.4.27-.24.54-.64 1.985-.641 1.353-.239 1.082-.16 2.077-.48.9h-.4l-.401-.27-.719-1.263-.16-1.534.16-.72v-1.805l-.48-.54-.4.179-.481.54-.719.634-.56.359h-1.76l-.56.361-.88.903-.64.902-.721.72-.4.723-.559.452h-1.522l-.398.359-.4.812-1.041.813h-.96l-.8.54-.32.36-.64.723-.8.451-.72-.54-.48-.452-.96-.182-.56-.36-.159-.27h-.64l-.08.09-.4.45-1.04.993-.32.271h-1.442l-.478-.451-.56-.992-.561-.451-1.92-.18-.56-.451-.64-1.354-.48-.812-.48-.36-1.12-.722-.96-.18-.32.541-.32 1.354-.32.992v.36l-.08.36-1.2 2.164-.56-.09-.24-.45h-.8l-.32.45-.319.272h-1.602l-1.119-.723-.88.182v.18h-.08l-.64-.09-.32-.541-.4-.723-.56-.27-.401.27-.879.541-.4-.18-.48-.63-.56-.362-.32-.45-.4-.27-1.12.449h-.08l-.8.361-.56-.992-.08-1.984-.16-.631-.4-.272h-.32l-.56.362-.48.812-1.2 2.526-.48.81-.32.272-1.12-.272-.48-.45-.56.45-.8 1.715-.56 1.082-1.12.63-.48-.54-1.12-1.713-.16-.182-.4.092-.32.451-.96.36-.4-.27-.56-1.082-.72-.723-.48-.54-.401-.272h-2.08l-.399.271-.88.631h-.4l-.96.541-.56.362h-1.84l-.72.63-.48 1.625-.4.721-.56.541-.721.541-.879.541-.56-.18-.561-.992-.399-.271h-1.92l-.56.361-.16.182h-1.041l-.319-.092h-.08l-.8.451h-.961l-.72.451-.32.452h-.96l-.559-.631-.32-.272h-1.76l-.72-.451-.8-.541h-.16l-1.28.723h-.8l-.08-.272-.48-.72-.32-.452-.882-.812-.238-.18-.48.27-.32.45-.881 1.626v.27l-.399.902-.32.18-.24-.542-.641-.36h-1.76l-.72.542-1.12.45-.56-.632-.559-.36h-1.92l-1.12-.722h-.721l-.319.362-.4.09h-.24l-.721-1.715-.24-.993-.72-1.44-.64-.724-.4-.902-.719-1.803h-.08l-.4-.271-.08.09-.16.181-.882.631h-2.24l-.478.362-.721.72-.32.362-.639 1.082-.48.45-.48.542-.561.54-.96.452-.72-.09-.4-.182h-1.92l-.479-.449-.8-1.263-.561-.09-.72 2.074-.08.812-.24.452-1.12-.723-.16-.27-.72-.45h-4.16l-.72-.542-.96-.543h-.4l-.72.543-.16.18h-.72l-.88-.63-1.36-.183-.4-.27-.56-1.081-.32-.361-.88-.903-.56-.271h-1.6l-.32-.18h-.24l-1.12-2.074-.56-.72-.64-.724-.401-.269-.559-.182-.4-.27-.88-.54h-5.68l-.72.54-.64.993-.32.27-.961.181-.559.541-.56.541-.641.72-.398.18h-.961l-.4-.18-.64-.72-.56-.451h-.08l-.48.18-.24.54-.8 1.264-.48.36h-1.6l-.88-.541-.561-.36h-.799l-.56-.361-1.12-.541h-.96l-.561-.451-.719-.631h-1.76l-.56-.361-.881-.631h-3.2l-.56-.362-.879-.54h-2.96l-.721-.362-.96-.54h-3.92l-.88-.632-.56-.45h-2.96l-1.12-.542-.56-.361h-12l-.56-.27-1.12-.633h-.64l-1.12.633-.56.27-.8-.27-.16-.271-1.12-.18-.56.36-.32-.18-.56-.272h-2.8l-.56-.36-1.04-.722h-2l-.56-.27-.88-.632-.8-.45-.72-.45h-.961l-.96.54-.32.27-.798 1.082-.24.992-.08.723.478.54.96.632h.722l.398.271.8 1.713.481 1.174.08.36-.08.45-.72.813-.641.72-.318.903v1.533l-.721.272-.88 1.533-.48.63-.48.542-.4.361-.721.09-.479-.72-.4-1.716v-.27h-.16l-.56.542-.481.72-.479.452h-1.04l-.24-.18-.241-.54-.08-.724-.319-1.802h-.08v-.182h-.08l-.48.723h-.08l-.32.9-.721.633h-.159l-.72-.992-.08-.362-.801-1.623-.879-.812-.64-.631-.721-.812h-.159l-.56-.631h-.08l-.56.09-.721 1.263-.399.72v.724l-.32.81h-.08l-.16.182-1.12-.451-.56-.362h-2.72l-.722-.451-1.199-.361-.32.271h-.559l-.48-.451-.56-.541-.96-1.984-.72-.631-.881.63-.32.452-.319.54h-.72l-.321-.45-1.12-.09-.32.451-.8.451-.639-.902-.32-.903-.32-.36-.4-.27-.481-.452-1.04.362h-.08l-.32.36h-.8l-.319-.36-.4-.362h-1.121l-.72-.63-.56-1.895-.08-1.984-.08-1.174-.48-1.082-.88-.451h-.08l-.48.722-.24 1.082-.08 1.082-.4.813h-.399l-.72-.992-.641-1.264-.32-.361-.56-.99-.56-1.174-.24-.541h-3.04l-.24 1.533-.4.63-.64-.72-.32-.72-.88-.903-.24-.272.24-.27.56-.27h.48l.16-.631.32-.182.32-.27h.48l.32.27.16.182.56.54h.88l.56-.54.32-.182.88-.541.24-.631-.16-.992-.16-.27-.64-.722h-.8l-.56-.362-1.04-.81-.72-.541-.56-.362h-2.56l-.96-.54-.72-.362h-2.72l-.56-.451-.72-.63h-.56l-.72.54-.72.541h-1.2l-.72-.54-.72-.542h-1.76l-1.2-.18-.32-.902.16-.723.16-.63v-1.172l-.4-1.444-.24-1.082-1.28-2.525-.48-.543-.48-.541-.72-.72-.56-.542-.32-.271h-7.44l-.8-.452-.721-.449h-3.76l-.559-.361-.88-.63h-1.2l-.48-.452-.48-.541h-.4l-.72-.543-.56-.36h-2.4l-.32-.181-.241-.18-1.2-1.263-.48-.36h-1.039l-1.04.81-.561.093-.319-.452-.32-.361-.72-.723-.481-.9-.639-.633-.72-.81h-.321l-.56.63h-.72l-.48-.63h-.4l-.479.63h-.56l-.16-.18-.721-.722-.799-.902-.72-.72-.561-.272h-2.559l-.88-.631-.801-.451h-1.52l-.72-.541-.8-.541h-2.16l-.56-.27-1.12-.633h-1.76l-.88-.54-.16-.18-.799.18-.32.18-.801.09-.56.27h-2.319l-.56-.36-.561-1.083-.32-.451-.88-.81-.4-.272h-2.56l-1.04-.721-.4-.182h-.96l-1.28-.81-.4-.272h-5.28l-.72.451-.721.631h-.238l-.72.543-.561.36h-1.36l-.56-.36-.88-.45h-2.16l-.56-.452-.32-.451-.88-.903-.32-.271h-1.04l-.481-.45-.559-.36h-8.48l-.72-.542-.72-.54h-.8l-.48-.452-.8-.451h-.96l-.88-.541-.4-.361h-.56l-1.12-.631-.56-.903h-3.6l-.88-.54-.72-.542h-1.04l-.88-.54-.56-.362h-1.28l-.56-.361-.72-.541h-.4l-1.12-.721-.56-.361h-3.121l-.719-.451-.96-.452h-3.12l-.4-.18-.32-.36-.401-.27h-3.68l-.959-.543-.48-.45-.64-.181-.321-.451-.479-.451h-3.361l-.719-.45-.8-.45h-4.32l-.561-.362h-1.04l-.48.72-.719.633h-1.761l-.64-.632-.48-.721-.72-.541h-2.96l-1.12.63-.319.272h-.8l-.721-.45-.799-.542h-3.281l-.559 1.082.399 2.164.32.451.32.272h3.2l.32.449h.96l.16.182.081.63-.8.813v.18l-.321 1.082.24 1.263h.16l.4.18 1.04 1.623.08.361v.362l-.479 2.074-.48.09-.16-.18-.56-.271h-1.2l-.72.633-.481.359h-3.76l-.959.54-.32.272h-.961l-1.36-.63-.72.09-.32.54-.48.631-.32.362h-1.359l-.64-.813-.08-.36-.641-1.533-.16-.181-.8-.27-.32-.812.24-.992.72-1.264.32-.992.64-1.442 1.12-2.166.56-.45h.72l.72-.542.56-.54.32-.993V4.961l-.16-.72-.8-1.805-.48-.541-.32-.272-.72-.72-.72-.723-.32-.18Zm-22.08 11.275h7.6l.4.27.72 1.264.48.45h1.44l.48.36.96.541h2.56l.48.361.72 1.805.64.81h.16l.4-.81.4.09v1.262l-.48.543-.64 1.623-.16 1.172.16 1.894-.24.813-.479.63-.56.362h-.801l-.16.63-.32.362h-1.2l-.16-.182-.08-.63.16-.272.64-.18.72-.54.16-.632-.08-1.533-.319-.54-.64-.544-.962-.449h-.4l-.719.541-.48.541-.4.27h-.96l-.48-.631-.16-.631-.56-.361-.321.36v.36l-.559.903h-1.92l-.56-.452-.32-.359-.88-.812-.4-.18h-.72l-.72-.541-.72-.633-.96-.27v-.181l-.56-.451-.72.092-.16.18-1.52.09-.08-.27.08-.272.639-.81.56-.362h1.76v.18l.32-1.082-.08-1.444-.24-.54-.24-1.083zm-14.58 7.598.34.61.16.902-.32 1.443-.321.18-1.28-.541h-2.959l-.32-.18-.08-.451v-.361h.4l1.12-.631h.08l.56-.09.08.09.16.18.16.181.079.09h.56l.08-.09 1.041-.992zm-18.7.79.399.632-.239.992-.48.541-1.041 1.082-.16.18-.72.722-.32.27-.72.541-.96.451-.32-.18v-.72l.641-1.444.719-.632.64-.721.481-.541.559-.361 1.12-.721zm56.72.27h1.2l.24.542.16 1.082.641 1.263.719-.361.72-.72.481-.542.479-.812.48-.09.64-.09.481.27 1.04 1.894.32.361.958 1.352.08.723.08 1.172.24.63.642-.18.08-.09.08-.722.64-.81h.159l.48.902-.16.81.32 1.264.72 1.082-.08.992-.56.541-.48.452h-2.16l-.16-.09-.72-1.805.16-1.984-.08-.631-.32-.361h-2.96l-.319.902.158 1.172-.318.722h-.56l-.4-.812-.081-.81-.4-1.715-.16-.18-.72-.09-1.12.81h-.559l-.56.272-.24.541h-.561l-.24-.182-.64-.54h-2.96l-.56-.811-.159-.361v-.631l.318-.272h.24l.882.182.4-.272.318-.812.08-1.172.56-1.082h1.36l.56-.272zm594.193 24.882 1.802 2.492v3.047l-1.268 1.78-.4-.269-.879-.633h-.56l-.561-.359-.16-.182-.56-.359h-3.14l1.46-.812h.72l.48-.721-.08-1.895-.24-.722V45.1l.401-.362zM442.484 26.7h2.16l.4.18.321.361-.16.992-.16.18-.16.09-1.04.812-.56.362h-1.52l-.32-.451V28.14l.24-.631zm562.008 24.162.64.553.08.451-.16.72-.16.724-.16.54-.56-.36h-4.24l-.4-.272v-.72l.08-.272.16-.18h.4l1.36-.541h.16l.64.54.96-.179.16-.181.32-.36.32-.271zm-18.4.553h.32l.4.72v.723l-.48.631-.56.18-.4.271-.48.541-.56.541-.32.362-.48.54-.16.27-.56.541-.64.723h-.56l-.16-.18-.4-.902.159-.723.32-.45.72-1.263.561-.54.64-.723.4-.36h.56l1.12-.632zM427.926 30.035h.799l.08.541-.559.361-.32-.18-.08-.632zm101.521.813h2l.479.45.16.27.16 1.084-.32.45h-1.2l-.72.45-.96.452h-.4l-.88.633-.88-.182-.24-.54-.08-.722 1.04-1.533h.8l.48-.451zm-104.242 4.33h2.72l.72.54.8.452h.96l.72-.451.88-.541h1.6l.561.36.639.722.72.81.4.182h3.12l.88.63.401.272h.559l1.12.631.56.361h.56l.96.631.48.541.48.631.56.451.16.18v1.354l-.32.36h-2l-.56-.45-.639-.541-.4-.18-.56-.451-.561-.361-1.92-.18-.399-.182-1.04-.72-.561-.452-.16-.181-.56-.36h-2.16l-.72-.45-.959-.542h-.4l-.721.451-.879.541h-2.16l-.32-.271-.961-.631-.4-.18-.32-.271-.48-.541-.4-.272-.24-.54-.08-1.083zm120.002 3.787h1.52l.56.451.16.361 1.36-.361h.16l.16-.18.719.36.24.633v.992l-1.04.902-.72-.361-.719-.541h-.8l-.641-.723-.959-.18-.32-.45zm19.52.361h.8l.72.451.48.631.56.451.879.541h1.201l1.12.631.56.362h.72l.56.45.64 1.985.48.631h.4l.64.723.32.54.64.903.32.27 1.36.722h.96l.32.27.72.812.4 1.172.16 1.895.24.361 1.12-.451h1.04l.32.27.8 1.263.48.541h1.52l.16-.63.32-.182.32.45-.24.452-.56-.09-.32 1.262-.08 1.084.4.81h1.76l.56.272 1.12.63h.16l.4.272-.16 1.082-.24.541-.559.09-.64-.902-.721-.541h-6.64l-.4-.27h-.08l-.4-.361h-.08l-.64.09-.16.18-.4.45-1.04-.45-.72-.542h-.8l-.48-.36-.56-1.714-.8-1.713-.16-.181h-1.12l-.4.181-.72-.09-1.121-2.076h-.238l-.56-.18-.481-.45-1.2-2.165-.16-.181-.56-.27-.721-.541-.559-1.082-.4-.271-.32-.362-.881-.9-.479-.543-.56-.36h-.801l-.639-.812h-.56l-.24-.451.24-.451.56.09.559-.18h2l.48-1.082v-.362l-.32-1.353zm-327.844 5.14-.72.542-.4.361-.88.902-.32.18h-.641l-.879-.451-.4-.09-.88.631h-.64l-.48.361-1.12.813.08.72.319.813.56.18h5.122l.478.54.24.634h3.68l.8-.543.882-.541h.959l.56-.9.08-.362.24-1.895-.16-1.082-.8-.812zm-9.86 1.94-.78.948-.161.63.16.723.801 1.623.4.272h.96l.72-.633-.08-2.344-.56-.271-.561-.542zm-12.72 6.71-.301.37-.32.272-.72.72-.32.272h-1.439l-.72.451-.721.451h-.96l-.96-.54-1.12-.182h-.16l-.56 1.082v1.174l.64 1.443.96.72h.16l.24-.18.56-.901.561-.362.959.362.16.18.72-.09.88-.542h1.762l.558-.54.48-.542.881-1.443.08-.18-.24-.992-.88-.902zm-14.076.728-.305.183-.799 1.535v1.442l.16.271.479.631h.72l1.04-1.261v-1.083l-.88-1.535-.08-.09zm397.54.996h.401l.398.451.08.272.32-.362.481-.361h2.32v.09l-.24.54-1.359.182-.56.452-.561.9-.48.723-.48-.18-.32-.361-.32-.362-.32-.812.24-.541v-.27zm-4.08.18.16.181.321.541-.08.72-.32.183-.32-1.174zm44 1.894-.4.182-.16.18-.16.812.16.72.4.813.32.27h1.84l1.28-.18.4-.541v-1.174l-.4-.9-.559-.182zm7.042 1.174-.801.9-.08.723.64 1.443.24 1.172-.16.813.32 2.164.159.722v1.985l.72.81.481.362h1.36l.48.45.56.542.479.63.88.632h.241l.64.902h1.28l.56.361.72.541.32.18.4.451.24-.18.48.452.08.18.32-.362.88-.63.72-.542.64-.63.24-.542.08-2.435-.16-.723-.8-1.172-.72-1.353-.88-.541-.161-.18-.398-.272-.32-.359-.561-.992-.721-.813h-.158l-1.282-.902-.48-.451-.559-.36h-1.2l-.72-.45-.56-.542-.64-.812-.401-.272-.639-.63-.4-.27zM624.248 59.8l-.72.63-.24.542-.321.992-.399.812-.72 1.172v.992l.24.633.4.27 1.12-.362.72-.449h.719l.56-.361.32-.451 1.12-1.623.16-.723v-.72l-.32-1.083-.319-.271zm5.76.271-.32.36-.561.632-.879 1.352v1.443l.48.813.479.451h.64l.561-.182.32-.45.239-1.352v-1.082l-.319-1.444zm5.36 1.262-.481.451-.559 1.713v.723l-.24.992-.16 2.254.56.902h1.36l.4.272.32.361.399.18h2.48l.4.27.561 1.173.719.09.32-.272 1.041-.449.32-1.084-.08-1.443v-.27l-.72-1.443-.48-.541-.561-1.082-.479-1.533-.56-.452h-1.76l-.72-.45-.321-.362zm10.56 0v.361l-.16-.181zm-446.645.541-.4.63v1.536l.4.72.559.18h5.681l.239-.54v-1.172l-.319-.903-.48-.451Zm685.848 4.51h.16l.32.361-.16.902-.32.452-.881.72-.32.272-.319.72-.16.723-.32.72v.362l-1.121 2.254-.719.451-.4-.27-.08-.632.24-2.705.08-.813.48-.992h1.04l.32-.18.88-.63.56-1.082zm-658.008 9.832h.08l.4.18.16.632-.24.541h-1.12l-.24-.54.16-.634zm413.445 1.443h.8l.4.72-.32.362h-.321l-.398 1.354.08 1.443.238.541.56.541h3.282l.799.541.72.541h1.12l.56.451.16.18.72.451h1.76l.56.451.32.362.88.992h2.08l.64.63 1.2.452h.24l1.12.09h.8l.56.361.4.72h1.52l.32.182.16.27h-2.08l-.64.812-.16.18-.72-.18-.88-.63h-.72l-.4-.182-.32-.451h-.4l-.48-.631-.96-.18h-2.88l-.08.72-.16.724-.56 1.623-.32.09-.48-1.624-.081-1.984-.08-.361-.479-.541h-1.36l-.56-.362-.8-.54h-3.68l-.56-.27-.16-.182-.8-.451h-4.08l-.72-.541-.4-.36h-.321l-.719 1.352-.08.361-.08 1.985-.4 1.172-.881.902-.319-.18-.08-.63.319-.903.32-1.804v-1.534l-.16-.992-.319-.54-.48-.632h-2.56l-.4-.271-.88-.541h-1.201l-.48-.631v-.723l.48-1.261.48-.452h.4l.561-.361.88-.541h1.439l.72.361.481.541h1.2l.32-.361.96-.541h1.52l.56.361.479.81.16.724.48 1.623.561.45h.32l.56-.902.08-1.171.32-.993.48-.722zm-436.486 1.082h1.361l.319.272.96.63h.16l.641.721.319.541 1.201.723.32-.451.16-.721.64-1.353.4.09.56 1.081.16 1.082-.24.541-.08.272.16.451.559.18.32.992-.399 1.082h-2.96l-.721-.63-.719-.452h-1.201l-.479.451-.32.631-.24 1.354.32 1.804 1.12 2.344.32.361.72-.361v-.36l.239-.722.56-.27h1.76l.64.721 3.12.09.88-.541.801-.36h9.92l.16.27v.272l-.72.72-.24.451-.561.631-.318.362-.4.45-.321.18-.16-.54V91.1l-.32-.723-.16-.27-.96-.36-.4.18-.48.542-.401.18h-1.28l-.32-.272-.32-.27-.959-.18-.32.36-.08.723v.81l.32.813.56.902h.079l.16.27.08.722-.318.36h-6.08l-.32-.27-1.122-.722h-4.56l-.56-.36-.88-.812-.32-.452-1.12-1.533-.16-.18-.16-1.081.16-.633.16-.721v-3.248h-.96l-.399-.63-.16-.632V82.35l-.48-.452-.961-.18-.399-.269-.88-.722-.561-.18-.16-.541.32-.272h4.32l1.12-.63zm419.205.18.32.633v.992l-.32.902-.719-.722v-.362l.159-.72.24-.541zm-405.045.361h1.52l.64.631.4.902.16 1.534.401.812h.96V81.54l.48-.992.8.18.239.45.08 1.173.16.812.48.361h.24l.08-.36h.08l.401.179.08.181-.24.631-.48.631h-.32l-.401-.27-.719-.27-.64.63h-1.76l-.72-.72-.241-.632-.238-1.082-.08-.722-.4-.813-.722-.27-.4-.27-.16-.632zm9.201 1.264h2l.479.451.48.81.08.993-.64 2.525-1.12 1.354h-1.359l-.4-.813-.08-1.984-.16-1.172.08-1.354.16-.27zm-34.64 5.32h.718l.641.723h1.52l.72-.631h.56l.88.81.16.182.32.36.48.722h.16l.72.27.72.812.08.541-.16.18-.959.092-.56-.633-2.56-.18-.321.27-.4.361-.72-.09-.64-.902-.879-.63h-1.12l-.321.36h-.16l-.24-.54.16-1.085.64-.63zm436.965 0h.48l.4.723.08 2.346v.359l-.32.361-.48-.18-.64-2.165-.081-.452zm-397.286 4.961h1.362l.718.451.881.633h1.2l.48.631.64 1.894.319.36.64.182.641.9h.719l.56-.36.16-.181.16.092.561.72-.16.541-.8.18-.88.451-.48.541h-1.92l-.4-.27-.32-.36-.561-.362h-1.92l-1.12-.63-.56-.27h-2.16l-.719-.541-.72-.451h-4.32l-.08-.272.08-.63.8-.182.719-.541.32-.36.56-.451.401-.723.32-.45h.399l.4-.09.961-.36.559.27.32.45.961.09.16-.18zm14.48.272h.962l.318.36.961.542h1.12l.56.36.72.632.16.27.16 1.174-.08.359-.32.451h-2l-.32-.18-1.04-1.082-.32-.45-.32-.903-.88.63-.16.272-.48.18-.72-.72-.08-.542.4-.271.88-.721zm-5.198.902h1.359l.32.36-.32.542-1.041.81-.398.09-.32-.72.08-.723zm412.004.541 1.12.451h.64l.16.81-.4.723h-.081v.36l-.158.271-1.121-.18-.56-1.173v-.36l.08-.722zm-431.846.63h.16l.16.18v1.444l-.719.09-.16-.631zm33.601.813h1.12l.16.541-.16.541-.64.903-.4.18-.32-.272-.16-.72zm390.245.27h.08l.24.361-.08 1.082-.64.272-.161-.272v-.361zm12.32 0 .16.182-.08.63-.16-.271zm-24.881 1.443 1.121.541.48.541.159.362v1.353l-.96 1.984-.16.18h-.08l-.48-.451-.32-.992-.239-1.533v-.813l.08-.72zm-413.045 2.615h.961l.24.541-.24.362h-.48l-.48-.18v-.451zm4.24.633.721.36h2.879l.32.812-.08.72-.478.544-1.362.36-.24.54h-.398l-.24-.451-.801-.541-.16-.18-.08-.271-.481-.81v-.362zm6.4.36.561.181.96 1.533h.88l.56-.36.319-.452h.48l.4.63.96.544.16.18.08.269-.08.361h-6.24l-.238-.45v-.18l.398-1.354.64-.72zm16 1.894.321.182.08.72-.32.18h-.24l-.08-.63zm398.966 0h1.76l.4.631-.16.723v.27l-1.44 2.796-.24.451h-.16l-.56.09-.081-.18-.24-.632v-3.067l.32-.9zm5.92.272h.64l.48 1.082v.63l.24 1.083.159.271.64.72.962.452h-.08l-.32.902-.882.813h-.718l-.4-.272-.722-1.172-.56-.45h-.96l-.32-.452-.08-.361.32-1.172.802-.992.478-.813zm4.8 1.082h1.12l.24.72v1.174l-.4.81h-2.16v.182l-.48.18.16-.992.88-1.443.48-.452zm3.44 3.246h.08l.48.451v2.166l-.8 1.082-.56.992-.24 1.444v.27l-.32.18-.16-.54-.32-1.444-.24-1.084.08-2.074v-.36l.32-.542.96-.18zm-15.04 4.15h.48l.16.992-.481.18-.318-.72zm4.159.81.08.272v.18l-.238.361-.16-.54v-.18zm-12.879.362.64 1.805-.16 1.802-.48 1.354h-.16l-.24-.451.08-3.787v-.362zm26.72 1.533h.24l.56.09.24 1.264-.32.72h-.64l-.32-.359-.16-.992zm-2.32.272h.08l.24.27v.27h-.08l-.24-.27zm-13.92.81.559.092.4.81v.723l-.4 1.623-.16.27-.479.361-.4-.72-.08-.723v-1.172l.08-.361zm-2.72 1.264.16.63-.32 1.173-.24 1.443-.16.272-.48.36-.8-.991-.32-.362-.08-.722.96-1.082h.559l.24-.541zm6.8.27h.479l.4.812.08 1.172-.4 1.353-.08 1.534-.16.271-.078.18-.72-.362v-.359l-.161-2.076.08-.992.24-.99zm8.4 2.796.72.18.48 1.264v1.082l-.4 1.894-.64 1.444h-.56l-.32-.362-.56-1.984.4-1.895z"/></svg>