<svg xmlns="http://www.w3.org/2000/svg" viewBox="0 0 1024 128"><path d="M1024 128H0v-17.263c35.9 2.717 139.28 13.445 247.68 13.58 198.24.226 287.2-25.194 495.92-27.25 62.72-.61 165.49 3.316 280.4 13.67z"/><use href="#a2" transform="translate(-1050.762 -5.367)scale(1.13535)"/><use href="#a2" transform="matrix(1.20098 0 0 1.20098 -1004.65 -7.592)"/><use href="#a2" transform="matrix(1.3844 0 0 1.3844 -1329.595 -35.841)"/><use href="#a2" transform="translate(-679.309 26.473)scale(.89967)"/><use href="#a2" transform="translate(-745.528 25.1)scale(.89967)"/><use href="#a2" transform="translate(-723.228 25.219)scale(.89967)"/><use href="#a2" transform="translate(-800.233 20.708)scale(.89967)"/><use href="#a2" transform="matrix(1.9397 0 0 1.9397 -1814.145 -88.034)"/><use href="#a2" transform="translate(-48.54 .639)"/><use href="#a2" transform="translate(-66.506 .784)"/><use href="#a2" transform="translate(-226.005 -16.888)scale(1.13535)"/><use href="#a2" transform="translate(-445.825 -24.93)scale(1.13535)"/><use href="#a2" transform="matrix(1.20098 0 0 1.20098 -225.363 -22.652)"/><use href="#a2" transform="translate(-122.478 -.908)scale(.89967)"/><use href="#a2" transform="translate(-177.345 -.446)scale(.89967)"/><use href="#a2" transform="translate(-100.013 -.141)scale(.89967)"/><use href="#a2" transform="translate(-75.64 6.533)scale(.89967)"/><use href="#a2" transform="matrix(1.9397 0 0 1.9397 -1072.76 -110.269)"/><path id="a2" d="M998.504 56.848c-.282 0-.705 1.13-.705 1.13s-9.263 17.82-8.699 17.961q.696.165 1.41.188s-.281.752.095.94q.698.14 1.41.141l-4.137 9.123s-.753 1.034-.424 1.222 1.176-.752 1.176-.752-.188.61.188.705l1.363.188s-4.42 8.98-4.42 9.498.8.423 1.458.565a4 4 0 0 0 1.081.14l-4.044 9.028s-.14 1.082.33 1.082 2.07-1.317 2.07-1.317-.518 1.834.422 2.022 1.834-2.304 1.834-2.304-.517 2.164.658 2.164 1.74-2.164 1.74-2.164.564 2.163 1.363 1.975c.8-.188.471-1.316.471-1.316s.423 1.128 1.128 1.222.705-1.034.705-1.034v2.422l9.968.023v-2.305h1.223c.8 0 .094-1.833.094-1.833s1.552 2.445 2.492 2.445-.612-2.398-.612-2.54c0-.14 1.929 1.928 3.34 1.928s.987-1.41.987-1.41c1.414 1.373 4.197 1.3 2.492-1.034-.531-.727-4.233-8.887-3.81-8.887.424 0 .47-.612.47-.612l-3.384-6.63h1.364c.705-.14 0-1.174 0-1.174l-3.762-9.734s.564-1.128 1.175-1.27c.612-.14.047-1.081.423-1.081s-.14-.753-.14-.753-8.511-17.962-8.794-17.962z"/></svg>