<svg xmlns="http://www.w3.org/2000/svg" viewBox="0 0 1024 128"><path d="M437.24.02a70.07 70.07 0 0 0-66.33 53.71 71.8 71.8 0 0 0-24.67-4.44 70.77 70.77 0 0 0-49.84 20.83 50.55 50.55 0 0 0-20.22-4.45 48.54 48.54 0 0 0-46.54 35.2 48.1 48.1 0 0 0-28.24-10.1 48.37 48.37 0 0 0-80-32.33 49.7 49.7 0 0 0-26.15-7.67 48.54 48.54 0 0 0-40.35 21.7 45 45 0 0 0-5.92-.35C21.96 72.12 0 93.73 0 120.5V128h1024V52.87a45.96 45.96 0 0 0-43.3 30.79 28.06 28.06 0 0 0-20.67-2.74 25.9 25.9 0 0 0-4.79-4.97 28.24 28.24 0 0 0-39.74 3.93 29.7 29.7 0 0 0-10.98-2.18c-12.8 0-24 8.62-27.28 21a28.15 28.15 0 0 0-33.9 14.9c-4.58-19.08-29-24.72-41.48-9.58a28.5 28.5 0 0 0-28.33-8.72c-8.27-21.73-37.7-24.93-50.46-5.49a29.9 29.9 0 0 0-8.36-1.22 28.5 28.5 0 0 0-26.58 18.21 28.67 28.67 0 0 0-17.95 12.64v-1.48A48.37 48.37 0 0 0 583.9 87.9a70.24 70.24 0 0 0-62.92-39.21 83.7 83.7 0 0 0-14.73 1.57A70.07 70.07 0 0 0 437.24.02"/></svg>