<svg xmlns="http://www.w3.org/2000/svg" viewBox="0 0 1024 128"><path id="a8" d="M0 128V86.601l45.641-38.62L0 8.193V0l37.45 31.598 18.724-15.214 17.554 14.043 17.554-14.043 17.555 12.873L146.286 0v8.192l-45.641 39.79 45.64 38.62v11.702L127.562 83.09l-4.681 4.681 23.406 21.066V128Zm2.34-16.823h11.703l17.555-15.214 1.17-1.17-5.851-4.681Zm129.902 0h10.533l-23.406-21.065-5.851 4.681zM0 108.837 24.576 87.77l-5.851-4.68L0 98.303Zm29.257 0H39.79L73.728 80.75l32.768 28.087h10.533l-43.301-37.45ZM0 77.239V17.554l35.109 30.428zm146.286 0-35.109-29.257 35.109-30.428zm-91.283-1.17 2.341-1.17 16.384-15.214 17.554 16.384 5.852-4.682-23.406-21.065-24.576 21.065Zm-8.192-7.022 24.576-21.065-24.576-21.065-5.851 4.68 18.725 16.385L40.96 64.366Zm53.834-1.17 5.851-4.682-18.725-15.213 16.384-15.214 2.341-1.17-5.851-4.681-24.576 21.065ZM73.728 45.64l24.576-21.065-5.851-4.681-18.725 15.214-18.725-15.214-4.68 4.681Z"/><use href="#a8" x="146.286"/><use href="#a8" x="292.571"/><use href="#a8" x="438.857"/><use href="#a8" x="585.143"/><use href="#a8" x="731.429"/><use href="#a8" x="877.714"/></svg>