<svg xmlns="http://www.w3.org/2000/svg" viewBox="0 0 1024 128"><path d="M401.51.008c-.766.255 3.232 5.446 1.445 12.51-1.787 7.063-6.808 5.616-9.531 13.7-2.723 8.085 4 10.978.17 18.637-2.383 4.851-7.573 7.32-6.211 8.256 1.361.936 13.19-6.893 15.232-5.957 2.043.936-2.468 7.743-6.043 12.168-8.68 10.553-15.232 11.66-19.742 20.256a15.83 15.83 0 0 0-2.725 10.977c1.617 7.148 8.766 11.66 7.575 14.468-1.192 2.809-4.085 4.85-8.51 5.446-4.425.595-7.744-.17-12.936-4.084-5.19-3.915-7.403-10.384-3.914-12.682 1.362-.936 2.808-.34 3.659-1.191 2.467-2.213-5.872-7.574-11.233-16.68-2.127-3.66-6.127-10.636-2.723-12.168s14.807 6.297 15.573 5.701c.766-.595-3.234-3.235-6.723-8.851a16.1 16.1 0 0 1-3.062-6.297c-1.107-4.851 2.382-6.127 2.722-10.467.34-6.553-6.894-11.575-15.404-17.787-4.34-3.149-4.424-3.403-5.871-2.893s.935 3.745 2.722 9.362a32.2 32.2 0 0 1 .426 15.318c-.425 3.319-1.106 5.787-3.148 6.127-2.043.34-3.405-1.448-6.043-1.107s-3.49 3.404-4.596 6.552c-4 11.404-5.531 11.319-6.127 17.106-.34 3.83-.936 8.426.936 8.681 1.872.256 4.171-11.318 7.32-11.318 1.787.085 3.574 3.319 3.318 7.744s-3.49 11.572-11.574 12.764c-6.638 1.106-13.7-1.617-17.445-6.553s.681-8-.34-20.68a21.6 21.6 0 0 0-2.129-9.785c-4.17-7.914-10.211-5.872-13.445-12.935s6.043-10.212 6.043-22.637c0-5.787-1.958-11.404-3.405-11.404s-.341 4.085-4.085 13.787c-3.745 9.701-7.404 9.786-9.106 17.445a26.3 26.3 0 0 0 .17 15.574c1.787 4.596 4 7.573 2.469 10.551-1.532 2.979-6.127 5.108-8.34 4.512-3.66-1.106-.512-10.129-2.299-10.469s-6.042 4.256-6.127 6.213 1.363 1.447 1.277 4.426c-.085 2.978-3.744 6.383-6.552 6.213-2.809-.17-4.767-2.3-5.278-6.47s2.893-5.53 2.127-8.423-3.914-2.979-6.552-6.809c-2.639-3.83-1.956-7.404-2.637-7.404-.68 0-1.278 4.51-1.533 8.51-.596 9.106.426 10.808-1.276 12.935s-4.084 2.894-5.105 5.788c-.425 1.346-.6 2.76-.512 4.17.087 2.006.58 3.975 1.447 5.787 7.32 15.488 9.616 19.062 7.319 20.423-2.298 1.362-8.256 0-12.426-2.978s-6.808-6.809-7.318-10.979c-1.617-6.212 1.19-7.913-1.022-13.615-1.447-3.66-4-6.977-5.361-6.892-1.362.085.595 3.743 0 11.232-.596 7.489-3.745 7.915-7.744 18.979l-.51 1.105c-1.787-11.063-12.765-16.425-15.233-31.828-2.893-17.786 8.424-30.04 5.616-30.89-2.809-.852-17.702 15.061-24.68 32.677s-5.191 29.617-10.723 30.553c-5.531.936-14.806-5.874-18.38-13.278-6.894-14.722 12.765-22.21 8.935-38.804-2.638-11.914-13.616-11.15-19.658-27.575-4.936-13.446-1.618-24.34-3.66-24.51-2.043-.17-6.553 7.491-7.914 16.257-2.724 16.68 8.85 22.041 5.36 36.593-2.127 9.447-9.786 19.232-15.487 18.977-4-.255-7.148-5.275-8.084-9.02-1.958-7.318 4.425-10.81 4.34-18.468-.086-7.66-5.362-13.87-6.979-13.616-1.617.256 4.536 12.69-.852 27.998-3.53 10.032-1.187 71.246-16.253 46.637-7.888-12.883 4.51-19.828 1.53-33.785-2.978-13.957-17.275-13.02-19.657-27.828-1.532-9.872 4.255-12.85 2.212-24.168C65.188 8.519 57.815 0 56.764 0c-1.053 0 4.34 7.668 1.957 17.03-2.383 9.36-9.023 7.658-12.682 18.21-3.66 10.553 5.362 14.468.256 24.68-3.234 6.297-10.212 9.617-8.34 10.809 1.872 1.19 13.39-3.986 16.113-2.54 7.946 4.222-12.766 21.419-29.984 37.686S12.197 112.197 0 100v28h1024v-28c-3.669-3.669-5.145-7.876-7.273-17.3-1.52-6.79-8.512-7.904-11.146-15.606s-.812-13.885-1.926-13.987c-1.115-.1-3.75 4.258-4.56 9.325-1.42 9.424 5.065 12.465 3.14 20.673-1.216 5.372-6.891 10.945-8.817 10.743-1.925-.203-3.445-1.013-4.56-5.067-1.115-4.053 2.634-5.98 2.533-10.44-.101-4.458-3.14-8.106-4.053-7.802s2.535 7.195-.506 15.91c-.506 1.419-2.533 5.979-4.662 6.08-2.128.102-4.053-3.038-4.459-3.748-4.459-7.398 2.635-11.25.912-19.154-1.722-7.905-9.83-7.399-11.148-15.709-.912-5.675 2.433-7.397 1.217-13.781s-5.372-11.25-5.98-11.047 2.432 4.156 1.115 9.426c-1.318 5.27-5.068 4.255-7.196 10.336-2.128 6.08 3.04 8.21.102 13.986-1.824 3.648-5.676 5.776-4.662 6.283 1.013.507 9.93-5.473 11.45-4.662 1.521.81-1.822 5.876-4.558 9.22-6.486 8.007-11.452 8.718-14.797 15.204a12.06 12.06 0 0 0-2.027 8.308c1.115 5.372 6.588 8.716 5.676 10.844s-3.345 3.751-6.385 4.156a12.87 12.87 0 0 1-9.83-3.04c-3.952-3.04-4.054-8.817-2.94-9.526 1.115-.71 1.014.81 2.838-.912 1.824-1.723-4.559-5.574-8.613-12.567-1.52-2.736-4.662-8.006-2.027-9.12 2.635-1.115 11.452 4.56 11.857 4.255.406-.304-2.533-2.331-5.27-6.588a13.7 13.7 0 0 1-2.23-4.761c-.81-3.649 1.724-2.84 2.028-7.805.304-4.966-5.067-8.715-11.553-13.275-3.243-2.534-3.243-2.736-4.358-2.33-1.114.405.708 2.837 1.924 7.093a23.1 23.1 0 0 1 .407 11.451c-.304 2.534-.81 4.257-2.33 4.561s-2.839-1.115-4.663-.81c-1.824.303-2.535 2.532-3.447 5.066-2.939 8.513-4.255 10.135-4.559 12.87-.304 2.737-.71 6.285.71 6.487 1.418.203 4.053-8.513 5.472-8.513s2.736 2.433 2.533 5.777c-.202 3.344-3.647 9.019-8.715 9.728a14.6 14.6 0 0 1-13.074-5.066c-2.837-3.648.407-6.081-.302-15.506a14.8 14.8 0 0 0-1.624-7.5c-3.141-5.878-7.801-4.459-10.132-9.728s4.66-7.702 4.66-16.924c0-4.358-1.52-8.615-2.635-8.615s-.404 2.94-3.14 10.337-5.474 7.398-6.792 13.174a20.17 20.17 0 0 0 .102 11.756c1.317 3.446 2.939 5.675 1.824 7.904s-3.445 4.056-6.181 3.346-.507-7.5-1.825-7.805c-1.317-.304-4.459 3.142-4.56 4.663-.101 1.52.912.913.912 3.244 0 2.33-2.23 4.761-4.46 4.558-2.229-.202-3.646-1.924-4.052-4.965s2.23-3.952 1.621-6.181c-.608-2.23-2.94-2.028-4.967-5.069s-1.518-5.673-2.025-5.673-.912 3.344-1.115 6.384c-.406 6.892.507 8.006-.912 9.729-.9 1.093-1.902 1.727-2.737 2.592.104-.935.11-1.62-.36-1.65-1.277-.086-3.49 1.021-6.044 5.617-2.553 4.595.87 7.826-1.191 10.808-4.688 6.784-14.725 9.624-22.041 11.233-2.416.53-.001-4.086 8.084-16.34a10.04 10.04 0 0 0 1.703-4.596 6.4 6.4 0 0 0-.596-3.318c-1.106-2.298-3.233-2.553-5.701-4.68-2.468-2.128-.767-3.064-1.447-10.213-.256-3.319-.937-6.809-1.618-6.809-.68 0 .17 2.809-2.978 5.957-3.149 3.15-6.467 2.895-7.488 5.448s2.638 4.509 2.382 6.636a5.533 5.533 0 0 1-5.787 5.108c-3.83-.085-7.404-3.15-7.404-4.852s1.532-.765 1.447-3.488-4.17-5.107-6.722-4.852c-2.553.256 1.275 7.233-2.725 8.084-2.468.681-7.149-.935-9.361-3.488s.852-4.34 2.724-8.426a14.55 14.55 0 0 0 .084-12.34c-1.957-6.127-6.637-7.488-10.127-14.04-3.489-6.553-2.978-10.809-4.51-10.809s-3.915 4.426-3.915 9.021c0 9.872 9.702 13.447 6.808 17.957-2.893 4.51-10.467 4.169-15.062 10.381a13.3 13.3 0 0 0-2.469 7.746c-1.021 9.957 4.597 12.424-.254 16.424-4.85 4-12.34 6.213-19.574 5.362s-12.425-5.106-12.936-10.127c-.17-2.894 1.702-6.127 3.744-6.127 3.49-.17 6.81 9.02 8.086 8.935s1.787-2.299 1.106-6.894-2.383-4.51-6.809-13.616c-1.276-2.553-2.552-4.936-5.105-5.277-2.553-.34-4.596 1.277-6.809.852-2.212-.426-3.063-2.127-3.488-4.85a17.62 17.62 0 0 1 .51-12.17c1.872-4.425 3.659-7.32 3.148-7.49s-1.7-.17-6.637 2.383c-9.616 4.936-17.36 10.723-17.105 14.127s4.17 4.426 3.148 8.256a13 13 0 0 1-3.488 5.021c-4 4.34-9.106 6.127-7.744 6.893s14.38-5.531 17.53-4.51c3.148 1.021-.765 6.806-3.233 9.785-5.957 7.234-15.32 11.404-12.596 13.191 1.021.681 2.553.17 4.17 1.022 3.66 1.787 1.447 6.892-4.34 10.04a26.2 26.2 0 0 1-14.553 3.321c-4.17-.51-7.745-.51-9.617-4.34s6.895-5.957 8.512-11.574c1.106-3.319-.767-5.872-2.895-8.765-5.106-6.809-12.51-7.66-22.127-16.17-4.17-3.404-9.614-8.51-6.806-9.616s16.17 5.106 17.105 4.766c.936-.34-4.255-2.808-6.978-6.553-4.34-6.127 2.893-9.361.17-14.722-2.724-5.362-8.937-5.447-10.809-10.979s2.808-9.702 1.787-9.957-6.892 4.256-8.85 11.574c-1.957 7.319 3.064 8.766 1.788 14.553-1.958 8.936-14.128 8.51-16.596 16.68s7.914 12.508 1.361 20.338c-.766.68-2.807 4.17-6.636 4s-6.213-4.85-6.979-6.467c-4.595-9.276.256-16.596-.765-16.766-1.022-.17-5.788 3.234-5.874 8.17s5.278 6.637 3.66 11.063c-.765 2.127-3.404 5.192-6.808 5.277-4.766.17-11.147-5.533-13.02-11.234-2.893-8.766 6.807-12.085 4.594-22.041-1.191-5.192-4.68-9.787-6.636-9.702-1.958.085 1.872 4.936-3.149 14.723-5.02 9.787-14.213 9.361-16.596 16.51-3.148 9.957 13.362 14.297 7.575 23.232-2.979 4.51-9.957 8.766-15.489 8-5.531-.766-2.638-6.979-8.935-18.383s-18.722-19.997-20.85-19.572c-2.127.426 7.318 7.914 4.85 18.467a18.5 18.5 0 0 1-3.914 7.574 34.4 34.4 0 0 1-7.744-15.66c-2.213-13.276 6.467-22.637 4.34-23.232-2.128-.596-13.19 11.403-18.637 24.68-5.447 13.275-3.83 22.297-8.084 22.978-4.255.68-11.235-4.426-13.873-9.957-5.106-11.063 9.617-16.767 6.808-29.362-2.042-8.85-10.21-8.339-14.806-20.593-3.66-10.213-1.278-18.468-2.725-18.553s-4.85 5.617-5.871 12.17c-1.957 12.68 6.637 16.68 4.084 27.658-1.617 7.149-7.318 14.466-11.658 14.211-2.553-.17-4.85-2.638-6.127-6.723-1.447-5.446 3.488-8.084 3.318-13.87-.17-5.788-4.085-10.553-5.361-10.298-1.277.256 3.403 9.447-.682 21.106-.766 1.957-3.403 7.999-6.297 8.084s-5.275-4-5.87-5.022c-5.873-9.871 3.317-14.721 1.105-25.359s-13.19-9.872-14.807-21.106c-1.106-7.403 3.062-9.87 1.615-18.21S402.276-.247 401.51.008z" opacity=".5"/><path d="M167.139 20.518c-.681.17 2.638 4.51 1.191 10.466-1.447 5.957-5.531 4.937-7.914 11.575s3.32 9.104.086 15.572c-2.043 4-6.469 5.957-5.277 6.808 1.191.851 11.15-5.872 12.851-5.021s-2.044 6.553-5.107 10.213c-7.234 8.85-12.764 9.7-16.594 17.02-1.532 3.063-2.893 5.702-2.127 9.277 1.277 5.957 7.487 9.53 6.38 11.998-1.105 2.468-3.487 4.085-7.232 4.595-3.744.511-6.723-.17-10.978-3.404s-6.043-8.763-3.234-10.55c1.191-.852 2.382-.342 3.148-1.108 2.042-1.787-5.02-6.298-9.531-13.957-1.787-3.064-5.19-8.85-2.297-10.211s12.51 5.191 13.105 4.766c.596-.426-2.808-2.725-5.787-7.32a15.6 15.6 0 0 1-2.552-5.362c-.766-4.17 2.212-5.104 2.382-8.764.34-5.446-5.616-9.702-12.85-14.808-3.659-2.724-3.83-3.064-4.937-2.553-1.106.51.767 2.978 2.299 7.914s.766 9.872.426 12.766c-.34 2.893-.937 4.765-2.639 5.105s-2.978-1.192-5.105-.851-2.894 2.81-3.83 5.533c-3.32 9.531-4.68 9.36-5.106 14.38-.255 3.15-.682 7.234.85 7.319s4.426-9.531 6.043-9.531 3.064 2.81 2.808 6.469c-.255 3.659-4 9.957-9.7 10.808a15.91 15.91 0 0 1-14.64-5.617c-3.233-4.085.598-6.81-.253-17.191-.34-3.915-.511-5.871-1.788-8.424-3.574-6.553-8.597-4.937-11.32-10.809s5.022-8.51 5.022-18.978c0-4.851-1.703-9.446-2.809-9.446s-.17 3.235-3.404 11.405-6.127 8.255-7.658 14.722a22.64 22.64 0 0 0 .085 13.02c1.532 3.83 3.574 6.468 2.127 8.851-1.446 2.383-3.914 4.68-6.978 3.744s-.51-8.51-1.957-8.765-5.022 3.573-5.108 5.275 1.278 1.107 1.108 3.66-3.149 5.277-5.531 5.192c-2.383-.085-4-2.043-4.426-5.447s2.468-4.595 1.787-7.063c-.68-2.468-3.234-2.384-5.531-5.703-2.298-3.32-1.703-6.383-2.213-6.383s-1.022 3.915-1.278 7.234c-.425 7.66.342 9.022-1.105 10.809s-3.32 2.553-4.256 4.936a10.3 10.3 0 0 0-.426 3.574c.082 1.688.518 3.34 1.278 4.85 6.042 12.85 7.83 15.999 6.043 17.105s-7.32-.68-10.3-2.637c-4.595-2.808-5.614-6.724-6.21-9.021-1.362-5.192.34-8.425-.852-11.489s-3.318-6.128-4.51-5.873c-1.19.256.596 3.575 0 9.618C9.5 98.884 3.54 105.869 0 112v16h1024v-16c-6.152 10.655-5.315 2.993-1.298-11.998 2.728-10.184-6.024-8.214-7.11-12.994-.652-3.114 2.1-3.91 1.014-7.748s-4.2-6.301-4.708-6.301c-.507 0 1.884 2.39.87 5.36-1.014 2.969-4.345 3.04-5.793 5.937-1.45 2.897 2.39 4.635.072 7.967s-4.2 3.259-3.694 3.476 7.604-3.187 9.125-2.535-1.376 3.26-3.62 5.143c-5.143 4.562-9.128 5.07-11.88 8.691-1.086 1.52-2.099 2.896-1.592 4.78.507 1.882 5.65 4.128 4.563 6.083-1.086 1.956-2.897 2.172-5.143 2.389a13.4 13.4 0 0 1-7.822-1.738c-3.114-1.666-4.344-4.49-2.389-5.432 1.956-.941 1.738-.216 2.245-.506.506-.29-3.548-3.187-6.735-7.097-1.303-1.666-3.404-4.78-1.738-5.288 1.666-.507 8.762 2.753 9.414 2.463s-1.954-1.448-4.127-3.838a6.5 6.5 0 0 1-1.81-2.607c-.58-2.173 1.448-2.68 1.665-4.49s-4.057-4.998-9.199-7.606c-2.68-1.303-3.259-1.303-3.476-1.23s.652 1.592 1.593 4.055a9.2 9.2 0 0 1 .291 6.52c-.217 1.448-.653 2.39-1.884 2.607-1.232.217-2.245-.653-3.621-.436s-2.1 1.303-2.825 2.752c-2.39 4.925-3.259 4.78-3.62 7.387-.363 2.607-.072 3.62.58 3.62s2.462-4.851 4.345-4.779 2.172 1.74 2.027 3.332c-.144 1.594-3.114 4.925-6.953 5.504a13.98 13.98 0 0 1-10.427-2.896c-2.535-2.173.288-3.477-.22-8.836a7.24 7.24 0 0 0-1.302-4.201c-2.535-3.332-6.59-3.114-8.111-5.504s3.693-4.49 3.693-9.705c0-2.535-1.303-4.924-2.1-4.924-.796 0-.58 2.316-2.535 5.937s-4.345 4.202-5.431 7.461a8.04 8.04 0 0 0 .144 6.59c1.014 2.1 2.608 3.187 1.45 4.563-1.16 1.376-3.695 2.245-5.07 1.955-1.377-.29-.146-4.346-1.45-4.418s-3.621 1.087-3.621 2.535.797 1.086.797 2.027-1.955 2.463-3.983 2.536a3.115 3.115 0 0 1-3.187-2.752c-.218-1.232 1.884-2.173 1.304-3.55-.579-1.375-2.318-1.23-3.984-2.968s-1.23-3.26-1.52-3.26-.796 2.028-.94 3.766c-.363 3.838.578 4.347-.798 5.506s-2.39 1.23-3.043 2.533a3.1 3.1 0 0 0-.289 1.81c.095.89.42 1.738.942 2.463 4.273 6.518 5.504 8.185 4.273 8.692s-5.214-.29-7.387-1.377-3.983-2.752-4.418-4.635c-.434-1.883.796-3.403-.58-5.865s-2.535-3.043-3.26-3.043.29 2.174 0 4.853c-.29 2.68-2.244 3.404-4.706 8.112l-.797 1.81a46 46 0 0 0-1.739-6.156c-2.1-5.939-3.764-6.228-4.127-10.139-.362-3.91.725-6.011 0-6.156-.724-.145-2.1 1.81-2.896 3.766-.797 1.955.289 3.91-.508 7.314s-1.737 4.272-3.982 5.793-5.578 2.535-6.737 1.666.001-2.68 3.912-10.935c.432-.993.723-2.04.868-3.114a11 11 0 0 0-.29-2.174c-.579-1.593-1.81-1.954-2.824-3.185s-.362-2.028-.652-6.953c-.145-2.173-.435-4.563-.797-4.563s.001 1.882-1.447 4.055c-1.449 2.173-3.114 2.028-3.549 3.621-.434 1.593 1.448 2.245 1.158 4.418s-1.303 3.404-2.896 3.549c-1.594.145-3.188-1.592-3.188-3.258s.725-1.232.653-2.318c-.073-1.087-2.319-3.55-3.26-3.332-.942.217.653 5.07-1.303 5.578-1.955.507-3.621-.798-4.418-2.39-.796-1.594.363-3.187 1.305-5.65.858-2.73.883-5.656.072-8.402-.941-4.128-2.898-4.127-4.853-9.414-1.956-5.287-1.448-7.386-2.245-7.386-.796 0-1.882 3.042-1.882 6.156 0 6.59 4.996 8.328 3.33 12.094s-4.997 2.752-7.242 6.953c-.851 1.653-1.278 3.503-1.159 5.36.373 5.767 3.841 18.417-2.713 21.269-3.299 1.435-7.063-2.81-8.765-6.3-3.234-7.063 6.043-10.552 4.256-18.466-1.277-5.702-7.149-6.638-9.362-13.105s-.68-11.66-1.617-11.745-3.15 3.575-3.83 7.83c-1.191 7.915 4.256 10.469 2.639 17.362-1.021 4.51-5.788 9.19-7.405 9.02s-2.892-.85-3.828-4.255 2.212-5.02 2.127-8.765-2.638-6.808-3.404-6.553 2.127 6.04-.426 13.36c-.425 1.19-2.127 5.022-3.914 5.107s-3.404-2.553-3.744-3.149c-3.744-6.212 2.212-9.446.766-16.084-1.447-6.637-8.255-6.213-9.362-13.191-.766-4.766 2.043-6.213 1.022-11.574-1.021-5.362-4.511-9.446-5.022-9.276-.51.17 2.042 3.49.936 7.914-1.106 4.426-4.254 3.574-6.041 8.68s2.552 6.894.084 11.744c-1.532 3.064-4.765 4.852-3.914 5.278s8.34-4.597 9.617-3.916c1.277.68-1.532 4.935-3.83 7.744-5.447 6.723-9.618 7.319-12.426 12.765a10.13 10.13 0 0 0-1.701 6.979c.936 4.51 5.531 7.318 4.766 9.105-.766 1.788-2.809 3.15-5.362 3.49a10.8 10.8 0 0 1-8.256-2.552c-3.319-2.553-3.403-7.404-2.466-8s.85.681 2.382-.766c1.532-1.446-3.83-4.68-7.234-10.552-1.276-2.298-3.914-6.725-1.701-7.66 2.212-.937 9.616 3.829 9.957 3.574.34-.256-2.128-1.957-4.426-5.532a11.5 11.5 0 0 1-1.873-4c-.68-3.063 1.448-2.382 1.703-6.552s-4.254-7.32-9.701-11.149c-2.723-2.127-2.724-2.297-3.66-1.957s.596 2.383 1.617 5.957a19.4 19.4 0 0 1 .34 9.617c-.255 2.128-.68 3.575-1.957 3.83-1.277.256-2.382-.937-3.914-.681-1.532.255-2.129 2.128-2.895 4.256-2.468 7.148-3.573 8.509-3.828 10.806-.255 2.298-.596 5.277.596 5.448 1.191.17 3.402-7.149 4.594-7.149 1.191 0 2.299 2.041 2.128 4.85s-3.063 7.574-7.318 8.17a12.26 12.26 0 0 1-10.978-4.254c-2.383-3.064.34-5.107-.256-13.022a12.4 12.4 0 0 0-1.362-6.297c-2.638-4.936-6.552-3.744-8.51-8.17-1.957-4.425 3.915-6.468 3.915-14.212 0-3.66-1.277-7.233-2.213-7.233s-.341 2.467-2.639 8.68-4.595 6.212-5.701 11.062a16.94 16.94 0 0 0 .086 9.873c1.106 2.894 2.467 4.765 1.531 6.637s-2.894 3.404-5.191 2.809c-2.298-.596-.425-6.298-1.532-6.553s-3.744 2.64-3.83 3.916.766.765.766 2.723-1.872 4-3.744 3.83-3.064-1.617-3.404-4.17 1.872-3.32 1.36-5.192c-.51-1.872-2.467-1.702-4.169-4.255s-1.276-4.766-1.701-4.766-.767 2.808-.938 5.361c-.34 5.787.426 6.723-.765 8.17s-2.638 1.872-3.319 3.744c-.196.838-.31 1.693-.34 2.553.17 1.261.514 2.493 1.022 3.66 4.595 9.702 5.955 11.829 4.594 12.85-1.362 1.021-5.276-.17-7.914-1.957s-3.744-2.81-4.68-6.809.34-6.296-.596-8.594-2.553-4.596-3.404-4.425c-.851.17.425 2.639 0 7.234-.426 4.595-2.384 4.936-4.852 11.914a54 54 0 0 0-2.04 7.232l-.938-2.126c-2.894-5.532-5.19-6.383-5.531-9.532s.85-5.7 0-5.7c-.851 0-2.213.68-3.83 3.573-1.617 2.894-.17 4.68-.68 6.893s-2.638 4.169-5.192 5.445c-2.553 1.277-7.232 2.213-8.68 1.617-1.446-.595 0-2.551 5.02-10.21a6.04 6.04 0 0 0 1.108-2.895 3.66 3.66 0 0 0-.342-2.127c-.766-1.532-1.957-1.617-3.574-2.979-1.617-1.361-.51-1.958-.936-6.468-.17-2.043-.765-4.424-1.105-4.424s.17 1.786-1.787 3.828c-1.958 2.042-4.001 1.873-4.682 3.49-.68 1.617 1.788 2.723 1.533 4.17a3.66 3.66 0 0 1-3.746 3.235c-2.383-.086-4.68-1.873-4.68-2.979s.936-.68.936-2.383-2.722-3.063-4.254-2.978-.086 4.85-1.703 5.191c-1.617.34-4.596-.682-5.957-2.299-1.362-1.617.512-2.893 1.703-5.361a9.45 9.45 0 0 0 .17-7.744c-1.277-3.83-4.085-4.51-6.383-8.766-2.298-4.255-2.042-6.978-2.978-6.978s-2.47 2.808-2.47 5.787c0 6.127 6.128 8.596 4.34 11.404-1.786 2.808-6.552 2.552-9.53 6.467a8.5 8.5 0 0 0-1.532 4.935c-.596 6.298 2.723 7.83-.256 10.383a16.43 16.43 0 0 1-12.254 3.405c-4.51-.681-8-4.595-8.17-6.467s.17-3.831 2.383-3.916 4.34 5.617 5.106 5.617 1.107-1.192.681-4.256-1.447-2.893-4.255-8.68c-.851-1.702-1.702-2.979-3.319-3.234s-2.809.767-4.256.512c-1.446-.256-1.955-1.363-2.21-3.065a10.8 10.8 0 0 1 .34-7.658c1.106-2.893 2.126-4.68 1.87-4.766-.255-.085-.935-.086-4.084 1.446-6.042 3.063-11.064 6.808-10.808 8.935.255 2.128 2.64 2.725 1.959 5.278a7.66 7.66 0 0 1-2.13 3.062c-2.552 2.808-5.615 4.171-4.849 4.512s9.105-3.49 11.063-2.895c1.957.596-.511 4.256-2.043 6.213-3.745 4.596-8.51 8-7.914 8.34.595.34.34-.51 2.638.596s.851 4.425-2.808 6.383a15.74 15.74 0 0 1-9.192 2.043c-2.638-.256-4.764-.511-6.04-2.81-1.277-2.297 4.765-4.935 5.36-7.147s-.596-3.83-1.872-5.618c-3.234-4.255-7.915-4.851-13.957-10.213-2.639-2.212-6.041-5.275-4.254-6.04 1.787-.767 10.127 3.233 10.722 2.978.596-.255-1.618-.171-4.341-4.086-2.724-3.915 1.788-5.955.085-9.36-1.702-3.403-5.617-3.489-6.808-6.978-1.192-3.49 1.617-6.299 1.021-6.299-.595 0-4.254 2.894-5.53 7.405-1.277 4.51 1.956 5.446 1.19 9.105-1.276 5.617-9.02 5.533-10.552 10.639s5.021 7.83.851 12.765a6.38 6.38 0 0 1-4.17 2.553c-1.702-.17-3.32-1.618-4.425-4.086-2.894-5.957.086-10.637-.51-10.637s-3.66 2.128-3.66 5.192 2.807 5.532 2.297 6.978c-.511 1.447-1.19 3.318-4.254 3.403s-7.149-3.573-8.34-7.233c-1.787-5.446 4.34-7.488 2.978-13.87-.85-3.235-3.064-6.044-4.256-6.044-1.19 0 1.277 3.148-1.957 9.276-3.233 6.127-8.595 4-10.552 10.382-1.958 6.383 8.51 9.191 4.851 14.723-1.872 2.808-6.213 5.362-9.787 5.022s-1.786-4.426-5.701-11.575-11.659-12.68-13.105-12.425c-1.447.255 4.594 5.02 3.062 11.744a9.7 9.7 0 0 1-2.553 4.681 21.3 21.3 0 0 1-4.851-9.787c-1.362-8.51 4.086-14.297 2.724-14.722-1.361-.426-8.34 7.234-11.744 15.574s-2.384 14.042-5.107 14.553c-2.723.51-7.063-2.81-8.85-6.3-3.234-7.063 6.127-10.637 4.34-18.466-1.277-5.787-7.064-6.807-9.361-13.19s-.765-11.575-1.701-11.66c-.937-.085-3.064 3.576-3.745 7.66-1.191 8 4.17 10.551 2.553 17.53-1.021 4.51-5.701 9.191-7.318 9.021s-2.98-.68-3.916-4.254 2.214-4.936 2.129-8.765-2.554-6.638-3.405-6.553c-.85.085 2.213 6.04-.425 13.36-.426 1.19-2.044 5.022-3.916 5.107-1.873.085-3.403-2.553-3.829-3.149-3.659-6.212 2.128-9.363.766-16.086s-8.255-6.212-9.361-13.275c-.766-4.68 1.957-6.127 1.021-11.488-.936-5.362-4.425-9.36-4.935-9.276-.511.085 2.127 3.404.935 7.914s-4.256 3.49-6.043 8.596 2.554 6.977.086 11.828c-1.532 3.064-4.68 4.596-3.914 5.192.766.595 8.339-4.34 9.615-3.745 1.277.596-1.532 4.85-3.83 7.659-5.446 6.723-9.616 7.319-12.51 12.765a10.47 10.47 0 0 0-1.615 6.893c.936 4.51 5.532 7.575 4.766 9.277s-2.894 3.064-5.447 3.405a11.32 11.32 0 0 1-8.17-2.555c-3.32-2.553-3.49-7.403-2.553-7.998.936-.596.85.51 2.383-.852 1.532-1.361-3.745-4.68-7.149-10.467-1.276-2.297-3.83-6.894-1.703-7.83 2.128-.936 9.448 3.916 9.873 3.66.426-.255-2.042-1.958-4.34-5.533a11.1 11.1 0 0 1-1.873-3.914c-.68-3.149 1.446-2.723 1.702-6.722.255-4-4.255-7.233-9.702-11.063-2.723-2.042-2.722-2.384-3.658-1.959-.936.426.596 2.383 1.617 5.957a19.4 19.4 0 0 1 .34 9.617c-.255 2.213-.68 3.49-1.957 3.83-1.276.34-2.384-.937-3.916-.681-1.532.255-2.127 2.127-2.892 4.17-2.554 7.318-3.575 8.34-3.83 10.808-.256 2.468-.425 5.277.681 5.448 1.106.17 3.318-6.979 4.51-6.979s2.297 2.211 2.127 4.85-3.063 7.234-7.319 8a11.32 11.32 0 0 1-10.978-4.17c-2.383-3.15.342-5.107-.254-12.936.015-2.201-.45-4.38-1.363-6.383-2.553-4.85-6.553-3.658-8.51-8.084-1.957-4.425 3.83-6.467 3.83-14.297 0-3.574-1.19-7.148-2.127-7.148s-.34 2.638-2.639 8.68c-2.297 6.042-4.594 6.126-5.7 11.062a16 16 0 0 0 .083 9.787c1.107 2.979 2.555 4.936 1.533 6.723-1.02 1.787-2.98 3.574-5.277 2.809-2.298-.766-.34-6.298-1.447-6.553s-3.743 2.553-3.828 3.83c-.085 1.276.934.851.85 2.809-.086 1.957-2.553 4.084-4.255 3.914s-2.98-1.617-3.32-4.17 2.043-3.32 1.447-5.192c-.595-1.872-2.637-2.043-4.254-4.426s-1.106-4.593-1.617-4.593-.767 2.808-.937 5.361c-.426 5.872.257 6.721-.85 8.168s-2.553 1.959-3.234 3.746a8.8 8.8 0 0 0-.34 2.553 9.7 9.7 0 0 0 .936 3.744c4.595 9.787 6.042 12.085 4.595 12.936-1.446.85-5.192-.085-7.83-1.957s-3.574-3.15-4.596-6.979c-1.02-3.83.172-6.298-.68-8.596-.85-2.297-2.383-4.425-3.32-4.34-.936.086.426 2.553 0 7.149-.425 4.595-2.382 4.936-4.935 11.914l-.254.682c-1.191-6.979-7.916-9.022-9.703-20.17s5.276-18.892 3.574-19.403-10.978 9.532-15.488 20.68-3.489 18.72-6.893 19.316-9.276-3.829-11.574-8.51c-4.34-9.275 8.084-14.04 5.701-24.423-1.787-7.574-9.275-8.935-12.424-17.445s-1.106-15.49-2.382-15.575-4.085 4.767-4.936 10.213c-1.787 10.638 5.446 14.042 3.318 23.233-1.361 5.957-6.127 12.169-9.7 11.914-2.128-.085-4.086-2.213-5.192-5.532-1.192-4.68 2.722-6.808 2.722-11.744s-3.233-8.68-4.34-8.595 2.81 7.915-.51 17.617c-.595 1.702-2.809 6.636-5.277 6.806s-4.425-3.233-5.021-4.084c-4.85-8.34 2.81-12.594.937-21.445-1.872-8.85-10.893-8.256-12.34-17.617-1.02-6.212 2.724-8.255 1.362-15.318-1.362-7.064-5.958-12.339-6.639-12.168z"/></svg>