<svg xmlns="http://www.w3.org/2000/svg" viewBox="0 0 1024 128"><path id="a12" d="M0 128V81.92l8.533-8.533V18.773l8.534-8.533 8.533 8.533V35.84l8.533 8.533 8.534-8.533V8.533L51.2 0l8.533 8.533v10.24L76.8 35.84v17.067l17.067 17.066v20.48l8.533 8.534 8.533-8.534v-61.44l25.6-25.6 8.534 8.534v30.72l17.066 17.066V76.8l8.534 8.533L179.2 76.8V29.013l8.533-8.533 25.6 25.6v44.373l8.534 8.534 8.533-8.534V25.6L256 0l8.533 8.533v64.854l8.534 8.533 8.533-8.533V25.6l8.533-8.533 8.534 8.533v20.48l8.533 8.533 8.533-8.533V8.533L324.267 0l8.533 8.533v64.854l8.533 8.533V128Z"/><use href="#a12" transform="translate(341.333)"/><use href="#a12" transform="translate(682.667)"/></svg>