<svg xmlns="http://www.w3.org/2000/svg" viewBox="0 0 1024 128"><path id="a13" d="M177.23 0c-10.875 0-19.69 8.816-19.69 19.691v34.922c-.001-11.193-9.225-19.69-19.694-19.69-10.875 0-19.692 8.815-19.692 19.69v19.694c0-12.994-11.208-19.691-19.693-19.692-10.876 0-19.692 8.816-19.691 19.692V39.846c0-12.993-11.207-19.692-19.694-19.692-10.875 0-19.691 8.816-19.691 19.692v14.767c0-12.948-11.206-19.69-19.694-19.69C8.816 34.924.001 43.739 0 54.614V128h512V34.922c.001-12.989-11.2-19.692-19.693-19.692-10.876 0-19.692 8.817-19.692 19.692V54.97c.001-12.99-11.2-19.692-19.693-19.692-10.875 0-19.692 8.817-19.692 19.692v19.336c.001-12.989-11.199-19.692-19.693-19.692-10.875 0-19.691 8.817-19.691 19.692V64.46c0-12.989-11.2-19.692-19.694-19.691-10.875 0-19.69 8.816-19.691 19.69v29.538c0-12.992-11.206-19.691-19.693-19.691-10.853 0-19.692 8.84-19.692 19.691V45.125c0-12.992-11.205-19.692-19.693-19.691-10.875 0-19.691 8.816-19.692 19.691v19.318c-.01-12.98-11.209-19.673-19.693-19.673-10.875 0-19.691 8.816-19.691 19.69V34.923c0-12.993-11.207-19.691-19.694-19.692-10.875 0-19.692 8.816-19.691 19.692v-15.23C196.922 8.497 187.699 0 177.23 0"/><use href="#a13" transform="translate(512)"/></svg>