<svg xmlns="http://www.w3.org/2000/svg" viewBox="0 0 1024 128"><g id="a17"><path d="m44.308 66.462 9.846 17.23L64 66.462z" opacity=".5"/><path d="m44.308 66.462 9.846-17.231L64 66.46z" opacity=".75"/><path d="m44.308 17.23 9.846 19.693L64 17.231z" opacity=".5"/><path d="M44.308 17.23 54.154 0 64 17.23Z" opacity=".75"/><path d="M44.308 39.385 22.154 0 0 39.385Z" opacity=".5"/><path d="m0 39.385 22.154 39.384 22.154-39.384Z" opacity=".75"/><path d="M64 128V89.846l-9.846 16.957-32-55.11L0 89.845V128Z"/></g><use href="#a17" x="64"/><use href="#a17" x="128"/><use href="#a17" x="192"/><use href="#a17" x="256"/><use href="#a17" x="320"/><use href="#a17" x="384"/><use href="#a17" x="448"/><use href="#a17" x="512"/><use href="#a17" x="576"/><use href="#a17" x="640"/><use href="#a17" x="704"/><use href="#a17" x="768"/><use href="#a17" x="832"/><use href="#a17" x="896"/><use href="#a17" x="960"/></svg>