<svg xmlns="http://www.w3.org/2000/svg" viewBox="0 0 1024 128"><path id="a19" d="M1024 128V76.16a7.92 9.051 0 0 1-1.92.275 1.92 2.194 0 0 0-1.12.457 2.48 2.834 0 0 1-1.76.823h-.8a3.2 3.657 0 0 0-1.84.731 1.84 2.103 0 0 1-1.12.366h-1.12a8.4 9.6 0 0 0-1.92.549.4.457 0 0 1-.4 0l-2.16-.915-.64-.457a1.36 1.554 0 0 0-.8-.274h-2.32a3.12 3.566 0 0 0-1.84.64 1.92 2.194 0 0 1-1.12.457H1000a3.12 3.566 0 0 0-1.84.64 1.84 2.103 0 0 1-1.12.366h-1.52a2.96 3.383 0 0 0-1.44.731 1.92 2.194 0 0 1-1.12.457l-2.32.183a2.64 3.017 0 0 0-1.52.549 2.56 2.926 0 0 1-1.84.64l-.72.183-1.04.73-1.12.458-1.28 1.006a4.08 4.663 0 0 0-1.44.823 1.12 1.28 0 0 1-.64.457 1.68 1.92 0 0 0-1.28 1.554 1.04 1.189 0 0 1-1.44-.274 2.8 3.2 0 0 1-.4-.732c0-.091-.08-.183-.16-.274a.64.731 0 0 0-.8.091l-.88.915a4.8 5.486 0 0 0-1.28 2.285.96 1.097 0 0 1-.88.732h-.4a2.64 3.017 0 0 0-1.52.548 3.12 3.566 0 0 1-1.84.64h-2a2.32 2.651 0 0 0-1.44.64 2.32 2.651 0 0 1-1.44.64h-1.6a1.44 1.646 0 0 0-.72.366l-1.52 1.554a3.6 4.114 0 0 0-.96 1.92 1.2 1.371 0 0 1-1.2.915h-1.6a2.48 2.834 0 0 0-1.04.548 2.64 3.017 0 0 1-1.52.549h-1.2a2.24 2.56 0 0 0-1.44.548 2.32 2.651 0 0 1-1.44.64h-1.2a2.24 2.56 0 0 0-1.44.549 3.2 3.657 0 0 1-1.84.731h-3.12a2.8 3.2 0 0 1-1.12-.548l-.64-.457a2.64 3.017 0 0 0-1.92 0l-.32.182a12.32 14.08 0 0 1-1.52 1.555 1.76 2.011 0 0 1-1.04.548h-.8a1.52 1.737 0 0 0-1.44-1.188h-.72a1.04 1.189 0 0 0-.72.365l-1.2 1.28a2.64 3.017 0 0 1-1.04.64 2.16 2.469 0 0 0-1.28.915l-.56.731c-.64.823-1.68 0-1.84-.823v-.457l.16-.366a23.28 26.605 0 0 1 1.92-2.468 1.92 2.194 0 0 0 .4-1.28 1.12 1.28 0 0 0-.56-1.097 3.04 3.474 0 0 0-1.2 0 1.52 1.737 0 0 0-1.04.457l-.88.914c-.48.549-.72.457-1.28-.183s-.8-.64-1.12.183a2.64 3.017 0 0 1-.56 1.189l-.48.731-2.08 2.194a1.28 1.463 0 0 1-1.04.549l-2.08.183a.96 1.097 0 0 0-.64.366l-1.2 1.188a2 2.286 0 0 1-1.44.732h-.4a1.68 1.92 0 0 0-1.36.73 4.56 5.211 0 0 0-.88 1.007 4.48 5.12 0 0 1-1.36.822l-.72.458a4.48 5.12 0 0 1-1.36.822.88 1.006 0 0 0-.72.458l-1.12 1.28a1.44 1.646 0 0 1-1.04.548h-.8a2.96 3.383 0 0 0-1.44.732.96 1.097 0 0 1-.64.365c-.72.092-1.2.732-1.76 1.006l-1.2.274a1.68 1.92 0 0 0-1.04.457 3.28 3.749 0 0 1-1.84.823 2.32 2.651 0 0 0-1.44.64l-.32.275a2.8 3.2 0 0 1-2.64-.183 1.2 1.371 0 0 0-1.04 0l-.72.365a12.08 13.806 0 0 0-1.76 1.006 2.4 2.743 0 0 1-2.32 0 1.28 1.463 0 0 1-.48-.731c-.32-.823-.48-.823-1.12-.275l-.96.823a1.92 2.194 0 0 1-1.12.457h-1.52a1.84 2.103 0 0 0-1.44.732 14.32 16.366 0 0 1-2.24 2.468 1.12 1.28 0 0 1-1.12.183 2 2.286 0 0 1-.72-.366.08.091 0 0 1-.08-.09.48.549 0 0 0-.64.09l-.96.823a2.88 3.291 0 0 1-2.08 1.006 1.36 1.554 0 0 0-1.12 1.097 3.44 3.931 0 0 1-1.2 1.829.88 1.006 0 0 1-1.04 0 3.2 3.657 0 0 1-.96-2.469v-.183a.96 1.097 0 0 0-1.12-.548l-.4.183-.32.182a3.12 3.566 0 0 1-2.24-.548 2.64 3.017 0 0 0-1.52-.549h-7.44a1.84 2.103 0 0 0-1.12.366 2.8 3.2 0 0 1-1.76.731h-2.4a1.68 1.92 0 0 0-1.04.64l-.32.275-.72.365a2.96 3.383 0 0 0-1.36.915 1.84 2.103 0 0 0-.56.64 2.4 2.743 0 0 1-1.44.731h-6.24a2.88 3.291 0 0 1-1.84-.731 2.96 3.383 0 0 0-1.12-.366h-.8a2.48 2.834 0 0 1-1.04-.549 2.64 3.017 0 0 0-1.52-.548h-8.72a1.28 1.463 0 0 1-1.04-.549 2.48 2.834 0 0 0-1.44-.64h-4.32a1.92 2.194 0 0 1-1.44-.64 1.44 1.646 0 0 0-.72-.365l-1.12-.183a1.92 2.194 0 0 1-1.12-.457l-1.44-.823-.64-.457-1.68-2.012a3.68 4.206 0 0 0-1.68-1.188 1.04 1.189 0 0 1-.72-.366 2.8 3.2 0 0 0-1.76-.731 2.96 3.383 0 0 1-1.44-.732l-.32-.274a1.28 1.463 0 0 0-.72-.274h-4.72a1.92 2.194 0 0 0-1.44.64 3.04 3.474 0 0 1-1.04.548 7.76 8.868 0 0 1-1.92.183 1.36 1.554 0 0 0-.8.274 2.56 2.926 0 0 1-2.56.64.96 1.097 0 0 1-.64-1.005 3.2 3.657 0 0 1 .24-1.372c.16-.64.16-.823-.32-1.006l-1.36-.914a1.28 1.463 0 0 0-.72-.274 9.44 10.788 0 0 0-2.08-.183.96 1.097 0 0 1-.72-.274 4.96 5.669 0 0 0-1.36-1.006 2.96 3.383 0 0 1-1.36-.914l-.32-.275a1.28 1.463 0 0 1-.48.732 6.56 7.497 0 0 0-1.76 2.468 2.88 3.291 0 0 0-.32.823c-.08.457-.48.549-.88.275l-.64-.549a2.72 3.109 0 0 1-1.28-1.189.64.731 0 0 1-.16-.731l-.32-1.737c-.48-.457-.64-.64-.64-1.097v-1.372a1.36 1.554 0 0 0-1.12-1.188h-2.72a2.72 3.109 0 0 0-1.12.457l-.96.731a4.48 5.12 0 0 0-1.36.823 1.92 2.194 0 0 1-1.12.457h-1.6a1.52 1.737 0 0 0-1.04.457l-1.2 1.189a4.48 5.12 0 0 1-1.36.823c-.24.091-.48.366-.72.366a.96 1.097 0 0 1-1.12 0 3.6 4.114 0 0 0-1.52-.458h-2.32a1.12 1.28 0 0 0-.96.64l-.24.915h-.08c-.08.091-.08.183-.16.183a1.04 1.189 0 0 1-1.52.274l-.32-.183a2.64 3.017 0 0 0-1.04-.64 1.12 1.28 0 0 1-.64-.457l-1.52-1.554a1.68 1.92 0 0 0-1.04-.458 3.36 3.84 0 0 1-2.16-.822 1.52 1.737 0 0 0-.8-.275h-1.52a2.24 2.56 0 0 0-1.44.549 2.64 3.017 0 0 1-1.52.548 2.8 3.2 0 0 0-1.76.732l-.4.183a.96 1.097 0 0 1-1.2-.64 2.88 3.291 0 0 1-.16-.915 5.28 6.034 0 0 0-.48-1.828 1.6 1.829 0 0 1 0-1.371l-.32-.823a1.12 1.28 0 0 0-.88-.823c-1.44-.183-2.88-.092-4.24-.183a1.68 1.92 0 0 1-2.08.366c-.56-.275-.56-.275-1.44 0h-.32l-1.84-.915a.96 1.097 0 0 1-.64-.548 1.92 2.194 0 0 0-1.04-.457 9.44 10.788 0 0 0-2.08-.183 1.04 1.189 0 0 1-.88-.823c0-.183-.08-.274-.16-.457a2.56 2.926 0 0 0-1.28-1.646h-1.52c-.24-.091-.4-.366-.72-.366a.96 1.097 0 0 0-1.12 0l-.72.366h-.72a3.12 3.566 0 0 1-1.04-1.92 1.2 1.371 0 0 0-1.2-1.006h-2.8a1.52 1.737 0 0 1-1.04-.457 14.8 16.914 0 0 0-1.12-1.28.56.64 0 0 0-.72 0 7.28 8.32 0 0 0-1.28 1.006.88 1.006 0 0 1-1.12.183 2.56 2.926 0 0 0-1.44-.549 3.28 3.749 0 0 1-1.52-.365c-.32-.092-.4-.457-.24-.64a1.28 1.463 0 0 1 .64-.549.96 1.097 0 0 0 .16-1.188.48.549 0 0 0-.64 0l-.72.365a1.04 1.189 0 0 1-1.04-.457l-.4-.823V92.8c-.08-.091-.08-.091-.08-.182a.64.731 0 0 0-.8 0l-.32.274h-.56a.88 1.006 0 0 1-.96-1.006 3.2 3.657 0 0 1-.32-1.371.8.914 0 0 0-.88-.549c-.72.092-.48.549-.96-.366-.48-.914-.56-1.005-.8-.914l-.72.366a2.64 3.017 0 0 1-1.92.183.56.64 0 0 1-.48-.64 5.68 6.491 0 0 1-.32-1.829c-.16-.457-.4-.823-.8-.823a1.36 1.554 0 0 0-1.12.275 3.6 4.114 0 0 1-1.44.64 3.84 4.389 0 0 0-1.92.548l-.32.183-.4-.183c-.72-.64-1.76-.548-2.48-1.371l-.72-.275-1.92-.182a1.28 1.463 0 0 1-1.12-1.189 3.04 3.474 0 0 1-.08-1.371l-.16-.457a2 2.286 0 0 0-1.12-1.189.72.823 0 0 0-.72.183l-.72.274a1.2 1.371 0 0 1-1.04-.366c-.08-.182-.16-.274-.16-.457s-.48-1.097-1.12-.731a5.36 6.126 0 0 1-1.52.457 2.8 3.2 0 0 0-1.44.457c-.48.274-.72.092-1.04-.366a4 4.571 0 0 0-.64-1.097 3.36 3.84 0 0 0-1.12-.548l-.24-.275a3.92 4.48 0 0 0-1.52-.64h-1.52l-.8-.182a1.6 1.829 0 0 0-1.84 0 1.2 1.371 0 0 1-1.44-.275l-1.2-1.097c-.32-.274-.64-.548-1.04-.183a2.08 2.377 0 0 1-1.44.64h-1.2a1.84 2.103 0 0 1-1.44-.731 1.44 1.646 0 0 0-1.04-.549h-4a2.64 3.017 0 0 1-1.12-.365l-.32-.275c-.4-.365-.96-.365-1.44-.731l-1.04-.64h-.72c-.16.091-.32.091-.4.274l-1.52 1.463h-.24a1.04 1.189 0 0 1-1.44-.549l-.16-.457a1.52 1.737 0 0 0-.8-.914h-2.48a2.96 3.383 0 0 1-2.16-.823 1.2 1.371 0 0 0-1.44 0l-.32.274-.32.275a1.2 1.371 0 0 1-1.44 0l-1.2-1.28a.88 1.006 0 0 0-1.04-.274 1.36 1.554 0 0 1-1.44-.275 3.2 3.657 0 0 0-1.92-.183.96 1.097 0 0 0-.64.549l-.4.823a.16.183 0 0 1-.16.183h-.08a.48.549 0 0 1-.72 0l-.56-.732a2.16 2.469 0 0 0-1.28-.914 2.8 3.2 0 0 1-1.12-.549 1.68 1.92 0 0 0-1.44-.548 2 2.286 0 0 0-1.52.457l-.32.183a1.2 1.371 0 0 1-1.44 0 3.2 3.657 0 0 0-2.24-.732l-.72.183a8.72 9.966 0 0 1-1.84.823 1.84 2.103 0 0 0-.72 1.006l-.32.823c-.08 0-.08 0-.08.091h-.08a.8.914 0 0 1-1.2-.091 1.44 1.646 0 0 1-.32-.823 1.6 1.829 0 0 0-1.6-1.097h-.4a.88 1.006 0 0 0-.88.823l-.24 1.28c-.16.73-.48 1.097-1.2.73a3.44 3.931 0 0 0-1.52-.365 2.64 3.017 0 0 0-1.12.366 5.6 6.4 0 0 1-1.36.823 2.32 2.651 0 0 0-1.04.731l-.88 1.006a3.04 3.474 0 0 1-1.36.731 2.88 3.291 0 0 0-1.84.732 3.28 3.749 0 0 1-1.44.457h-5.92c-1.2.091-1.36 0-1.84 1.28l-.16.183a.64.731 0 0 1-.88-.092l-.96-.731a2.16 2.469 0 0 0-2.16-.549l-1.12.457a.56.64 0 0 1-.72 0l-.4-.182a1.36 1.554 0 0 0-1.44.091 3.2 3.657 0 0 1-1.84.731h-4a2.8 3.2 0 0 0-1.76.732 1.92 2.194 0 0 1-1.12.457 25.84 29.531 0 0 1-3.52 0 2.64 3.017 0 0 1-1.12-.366 1.2 1.371 0 0 0-1.44 0 3.44 3.931 0 0 1-1.52.366 2.72 3.109 0 0 0-1.12.457 5.2 5.943 0 0 1-1.76 1.006 4.48 5.12 0 0 1-2.56 1.006 1.68 1.92 0 0 0-1.04.64l-1.12 1.28-.32.274-.32.183-1.76 1.005a1.6 1.829 0 0 1-.8.183h-5.12a2.4 2.743 0 0 0-1.84.64l-.64.457a3.44 3.931 0 0 0-1.76 1.097l-.32.183a6.24 7.131 0 0 0-1.76 1.097l-1.04.458c-.4.182-.64.548-1.04.731l-.72.274a2.16 2.469 0 0 0-.96.823l-.88 1.006a2.96 3.383 0 0 1-.96.64 2.16 2.469 0 0 0-1.36.914l-.88.914a1.52 1.737 0 0 1-1.04.549l-.8.183a1.28 1.463 0 0 0-1.04.548 3.36 3.84 0 0 1-1.12.549 19.52 22.308 0 0 1-4.32 0 1.76 2.011 0 0 1-.8-1.006V95.27h-1.6a2.48 2.834 0 0 0-1.76.823 1.76 2.011 0 0 1-1.12.457h-.4a3.6 4.114 0 0 0-1.44.64c-.48.548-1.28.64-1.76 1.006l-1.2 1.28a1.92 2.194 0 0 1-.96.64l-1.04.64-.32.274a1.76 2.011 0 0 1-1.12.457h-3.52a2.24 2.56 0 0 1-1.36-.64 1.36 1.554 0 0 0-1.84 0l-.64.457a.96 1.097 0 0 1-1.12 0l-.64-.548a1.76 2.011 0 0 0-1.12-.458 2.48 2.834 0 0 0-1.76.64l-.32.366a8.56 9.783 0 0 0-1.76.914l-1.2 1.28a1.36 1.554 0 0 1-1.44.092 4.8 5.486 0 0 0-1.84-.914 2.88 3.291 0 0 0-.96-.732 1.52 1.737 0 0 0-1.52.092l-1.12 1.28a2.16 2.469 0 0 1-1.04.64 2 2.286 0 0 0-1.12 1.188 2.48 2.834 0 0 1-.72 1.646 12.24 13.988 0 0 0-1.52 2.743.88 1.006 0 0 1-.96.548 1.12 1.28 0 0 1-.88-.823 10.88 12.434 0 0 0-3.2.183.96 1.097 0 0 1-.96.732h-.72a1.52 1.737 0 0 1-1.2-1.006l-.16-.457a1.84 2.103 0 0 0-.88-1.463c-.4-.366-.56-.366-.88.366a1.6 1.829 0 0 1-1.12 1.188 3.36 3.84 0 0 0-1.28 1.006c-.24.183-.4.457-.64.548v.915a4 4.571 0 0 0 .32 1.188.64.731 0 0 1 .24.732.8.914 0 0 1 .16.914c-.08.274-.16.823-.4.64s-.4-.366-.4-.64a1.36 1.554 0 0 1 0-.914 4.8 5.486 0 0 1-1.68-1.92 1.28 1.463 0 0 0-.56-.64v.457a1.44 1.646 0 0 1-.64 1.646.8.914 0 0 1-.72.365.88 1.006 0 0 1-.48-.64l-.24-1.28a.88 1.006 0 0 0-.88-.731h-2.72a5.12 5.851 0 0 1-1.44-.549c-.16-.274-.48-.274-.8-.183a1.12 1.28 0 0 1-1.28-.731 1.76 2.011 0 0 0-.4-.731.96 1.097 0 0 0-.72-.275.64.731 0 0 0-.64.549c-.16.366-.24.823-.4 1.28l-.32.274-1.36.732-1.28 1.188a.72.823 0 0 1-.72.183 3.84 4.389 0 0 0-1.44-.64c-.56-.183-.88-.64-1.36-.823l-.4-.183a10.16 11.611 0 0 0-3.12 0 1.92 2.194 0 0 0-1.04.457 28 32 0 0 0-2.24 2.469 1.36 1.554 0 0 1-1.12.549h-2.72a1.92 2.194 0 0 0-1.04.457 2.56 2.926 0 0 1-1.52.64h-.72a1.44 1.646 0 0 0-.72.365 8.32 9.508 0 0 0-1.68 1.92l-.56.64a1.6 1.829 0 0 1-1.84.366l-.96-.731h-.8l-.32.274a19.52 22.308 0 0 0-2.32 2.468l-1.04.64a3.36 3.84 0 0 0-.96.732 2.88 3.291 0 0 1-1.44.64h-.4v2.194l-.32.457a.56.64 0 0 1-.16.549v-.823a1.44 1.646 0 0 1-.4-.64 3.12 3.566 0 0 1 .16-2.194l-.24-.915a2.64 3.017 0 0 0-1.12-2.468 2.8 3.2 0 0 0-1.12-.549h-2.72a1.92 2.194 0 0 1-1.04-.457l-1.52-1.554a1.52 1.737 0 0 0-1.04-.457h-4.32a2.56 2.926 0 0 1-1.76-.914l-.96-.915-.64-.365-1.2-.183a1.12 1.28 0 0 1-.88-.823 5.6 6.4 0 0 0-.88-2.103 1.28 1.463 0 0 1-.24-.823 6.16 7.04 0 0 1 .48-2.743.56.64 0 0 0-.48-.64l-1.12-.274a1.92 2.194 0 0 1-1.04-.64l-1.6-2.011-1.52-1.555a1.28 1.463 0 0 0-1.04-.548 3.76 4.297 0 0 1-2.16-.914c-.64-.549-1.44-.64-2.08-1.28a1.04 1.189 0 0 0-.72-.366h-1.12a2.16 2.469 0 0 1-.96-.823l-1.44-.183h-.4a1.36 1.554 0 0 1-1.2-1.463c-.08-.731-.08-1.463-.16-2.194h-1.92a3.2 3.657 0 0 0-2.24.731.96 1.097 0 0 1-.72.275 5.68 6.491 0 0 1-2.32 0l-.4-.183a10.96 12.526 0 0 1-1.76-1.829 7.6 8.686 0 0 1-.8-1.554c-.16-.731-.24-.823-.72-1.006a4.56 5.211 0 0 1-1.68-1.188l-.56-.64a.88 1.006 0 0 0-.56-.549l-2.08-1.28-1.76-1.005-.72-.366a3.36 3.84 0 0 1-1.04-.64l-1.12-1.372-.64-.457a2.08 2.377 0 0 1-1.44-1.463 1.04 1.189 0 0 0-.8-.914l-1.12-.183a1.12 1.28 0 0 1-.72-.457l-.32-.274a4.8 5.486 0 0 1-1.12-1.92.96 1.097 0 0 0-1.2-.64l-.72.366h-.8a2.56 2.926 0 0 1-.8-.915c-.08-.182-.16-.274-.16-.457l-.24-1.188a1.68 1.92 0 0 1-1.36.457 1.28 1.463 0 0 1-1.6-.914 6.08 6.948 0 0 1 0-2.743 1.2 1.371 0 0 1 .64-1.006l.72-.274c.56-.183.72-1.372.16-2.012l-.56-.548c-.24-.274-.56-.64-.96-.274a2.08 2.377 0 0 1-1.04.548 2.32 2.651 0 0 0-1.52 1.372v1.005a.64.731 0 0 1 0 .823.88 1.006 0 0 1-.88.549h-.72a.64.731 0 0 1-.56-.457l-.72-.366a2.4 2.743 0 0 0-1.52-.366 1.92 2.194 0 0 0-1.04.457l-.64.549a1.04 1.189 0 0 1-.8.914 1.12 1.28 0 0 1-1.68 0 2.48 2.834 0 0 0-1.44-.823l-1.12-.183-.72-.457a1.52 1.737 0 0 0-1.04-.457h-6.8a3.6 4.114 0 0 1-1.44-.64 3.28 3.749 0 0 0-1.52-.457h-6.16a3.28 3.749 0 0 0-1.92.549 4.48 5.12 0 0 1-1.36.822l-1.04.64a.96 1.097 0 0 1-.72.275 3.36 3.84 0 0 1-1.92-.457 1.12 1.28 0 0 0-1.12.182l-.88.915a7.44 8.503 0 0 1-1.12 1.28.56.64 0 0 1-.72-.092c-.64-.457-1.12-1.188-1.84-1.645a.72.823 0 0 0-.8 0l-.64.457a1.28 1.463 0 0 1-1.04.548 5.36 6.126 0 0 1-1.6 0 2.4 2.743 0 0 1-1.44-.548 2.16 2.469 0 0 0-1.84-.732h-.72a2.96 3.383 0 0 0-1.12.366c-.48.274-.88.914-1.36.914a3.68 4.206 0 0 0-1.44.914 2.56 2.926 0 0 1-1.12.275 3.12 3.566 0 0 1-1.44-.366.96 1.097 0 0 0-1.12 0 2.24 2.56 0 0 1-2.24 0 .56.64 0 0 0-.72 0 4.64 5.303 0 0 0-1.52 1.463 2.08 2.377 0 0 1-.72 1.463 1.52 1.737 0 0 1-.72.457 2.88 3.291 0 0 1-.96.731 1.36 1.554 0 0 1-1.12-.274 3.2 3.657 0 0 1-1.28-2.194c-.16-.64-.72-.64-1.28-.183s-.24.091-.32.274l-.56.549c-.32.274-.56.274-1.04-.092a6.88 7.863 0 0 1-1.12-1.188 1.6 1.829 0 0 0-.96-.915h-.48a.4.457 0 0 0-.32.549 9.76 11.154 0 0 0 0 2.469 6.64 7.588 0 0 0 .32 1.371c.32.457.4.457-.08 1.189-.48.731-.8.822-1.28.457l-1.6-1.463a1.36 1.554 0 0 0-1.12 0l-.32.274-.64.549a3.2 3.657 0 0 1-.24 1.371c0 .183-.08.274-.16.457a1.12 1.28 0 0 1-.64.457.72.823 0 0 1-.56-.548 5.36 6.126 0 0 1 0-1.829c.08-.365.16-.091.8-1.005.64-.915 1.36-1.738 2-2.743l.24-.457a1.36 1.554 0 0 0 0-.915c-.08-.091.08-.365-.32-.274a1.76 2.011 0 0 1-1.12.183l-1.04-.457a1.28 1.463 0 0 0-1.2.183.88 1.006 0 0 1-1.36 0 4.16 4.754 0 0 1-.88-.915l-1.12-1.371-.24-.274h-.4a8.08 9.234 0 0 0-2.4-.183 4.24 4.846 0 0 1-2.16-.732 1.84 2.103 0 0 0-1.12-.365 3.2 3.657 0 0 1-1.84-.732 2.48 2.834 0 0 0-1.52-.548h-.72l-.8-.183a1.28 1.463 0 0 1-.72-.274 3.36 3.84 0 0 0-2.16-.823 5.68 6.491 0 0 1-1.6-.183c-.08-.092-.24-.092-.32-.274l-1.2-1.189-2-2.286a1.12 1.28 0 0 0-1.12-.274 3.28 3.749 0 0 1-1.52.457h-4.64a1.28 1.463 0 0 1-1.04-1.28v-1.371a2.72 3.109 0 0 0-.08-.915 1.28 1.463 0 0 0-.4-.822c0-.183-.16-.183-.32-.183a2.56 2.926 0 0 0-1.12-.274 1.84 2.103 0 0 1-1.36-.915 2.08 2.377 0 0 1-.72-1.554v-.457c-.08-1.189-.32-1.189-1.28-1.189a1.04 1.189 0 0 1-1.04-.457l-.56-.548a2.08 2.377 0 0 0-1.36-.823h-.8a1.92 2.194 0 0 1-1.04-.64 4.8 5.486 0 0 1-1.12-1.92 1.6 1.829 0 0 0-.64-1.097 3.44 3.931 0 0 0-1.6-1.372l-.64-.457-1.52-1.463a1.12 1.28 0 0 0-1.12-.183l-.72.458a1.84 2.103 0 0 1-1.12.365 2.24 2.56 0 0 1-1.84-.457 1.52 1.737 0 0 0-.72-.457l-1.12-.183a1.12 1.28 0 0 1-1.12-1.097 4.88 5.577 0 0 0-.56-1.28 10.96 12.526 0 0 0-2-2.103 1.04 1.189 0 0 0-1.44.366l-.16.457a2.88 3.291 0 0 1-.88 1.463c-.8.731-1.12.366-1.68-.366a1.44 1.646 0 0 1-.16-2.103c.08-.183.24-.274.24-.457l.16-.366a1.28 1.463 0 0 0-.08-1.371.8.914 0 0 0-.72-.366h-1.92a2.48 2.834 0 0 1-1.04-.548l-.96-1.006a1.12 1.28 0 0 0-1.36 0l-.96.914a.56.64 0 0 1-.72-.091l-.88-.823c-.32-.274-.56-.823-.96-.914l-1.12-.183a3.36 3.84 0 0 1-1.44-.731 2.8 3.2 0 0 0-1.12-.55 2.56 2.926 0 0 1-.96-.73l-.96-.823a1.2 1.371 0 0 0-.72-.183l-.32.274a2.48 2.834 0 0 1-1.52.366A2.08 2.377 0 0 1 188.48 32a2.64 3.017 0 0 1-.8-2.103V28.07a1.6 1.829 0 0 0-.48-1.28 4.16 4.754 0 0 0-.8-1.006 2.48 2.834 0 0 1-.72-1.646 3.28 3.749 0 0 0-.08-1.005 1.92 2.194 0 0 0-.4-1.28 3.52 4.023 0 0 1-.56-1.737 2.72 3.109 0 0 0-.08-.915 1.2 1.371 0 0 0-.32-.823 11.6 13.257 0 0 0-1.68-2.011l-.64-.457a3.36 3.84 0 0 1-1.36-.914 2.32 2.651 0 0 0-1.92-.458 1.28 1.463 0 0 0-.72.275 5.76 6.583 0 0 1-1.68 1.097l-1.44.914h-.16a.8.914 0 0 1-1.04-.731 2.24 2.56 0 0 1 .32-1.829v-.183c.08-.274 0-.548-.24-.548l-1.76-1.006-1.76-1.097a.56.64 0 0 0-.72 0l-.32.274-.88.914a1.68 1.92 0 0 1-1.04.64l-.72.366a2.48 2.834 0 0 1-1.76.823 2.64 3.017 0 0 0-1.84.823 1.12 1.28 0 0 1-.72.274 1.28 1.463 0 0 1-1.04-.548l-.24-.275a1.92 2.194 0 0 1-.72-1.645v-.915a1.28 1.463 0 0 0-.96-1.28h-.8a2.96 3.383 0 0 1-1.44-.731 1.84 2.103 0 0 0-1.12-.366h-6.24a3.84 4.389 0 0 1-1.84-.64 2.72 3.109 0 0 0-1.92-.457h-1.36l-.72.366a1.68 1.92 0 0 0-1.04.64l-.4.183a1.36 1.554 0 0 1-1.44-.183c-.8-.732-1.52-1.646-2.32-2.469a1.2 1.371 0 0 0-1.44-.365l-.32.182c-.56.275-.72.183-.96-.274a3.12 3.566 0 0 0-1.52-2.103 1.04 1.189 0 0 0-.72-.365l-1.04-.64a2.32 2.651 0 0 0-1.44-.64h-.88c-1.04 0-1.04 0-2.48 1.005a1.12 1.28 0 0 1-1.12-.183l-1.2-1.188c-.08-.183-.16-.183-.32-.274a.56.64 0 0 0-.72 0 4 4.571 0 0 0-1.2 1.28 2.48 2.834 0 0 1-1.04.548h-.8a2.24 2.56 0 0 0-1.36.64 2.56 2.926 0 0 1-2.64 0 3.12 3.566 0 0 0-1.84-.64 3.28 3.749 0 0 0-1.52.457.88 1.006 0 0 1-1.04 0l-.4-.183a2.64 3.017 0 0 0-1.92 0l-.32.183-1.52 1.463a1.2 1.371 0 0 1-.72.366 5.68 6.491 0 0 1-2.32 0 1.52 1.737 0 0 1-.8-.274 1.68 1.92 0 0 0-1.52 0 1.2 1.371 0 0 1-.72-.183.56.64 0 0 0-.72 0 1.52 1.737 0 0 1-1.76-.549l-.64-.64a1.52 1.737 0 0 0-1.04-.457h-3.92a1.04 1.189 0 0 1-.96-.731l-.16-.458a3.68 4.206 0 0 0-1.04-1.92l-.4-.182a2.72 3.109 0 0 0-2.24 0l-.72.457a1.12 1.28 0 0 1-.72.274l-1.92.183a1.6 1.829 0 0 0-1.12.548 2.48 2.834 0 0 1-1.04.549l-1.92.183a1.2 1.371 0 0 0-.72.366l-1.04.64a7.28 8.32 0 0 0-1.76 1.005 1.36 1.554 0 0 1-.8.275 3.04 3.474 0 0 1-2.16-.732l-.72-.274a3.36 3.84 0 0 0-2.32.457.56.64 0 0 1-.72 0 19.52 22.308 0 0 1-2.32-2.469 1.68 1.92 0 0 0-1.04-.457H66a2.48 2.834 0 0 0-1.04.549 1.28 1.463 0 0 1-1.04.548l-1.6.183a1.92 2.194 0 0 0-1.44.64 2.24 2.56 0 0 1-1.44.549 3.92 4.48 0 0 0-1.84.731 1.84 2.103 0 0 1-1.12.366h-1.2a2.88 3.291 0 0 0-1.76.823l-.72.366h-.4a3.12 3.566 0 0 0-2.16 1.005 1.2 1.371 0 0 1-.72.183c-.4 0-.72-.548-.88-.823a2.4 2.743 0 0 0-.32-.914.88 1.006 0 0 0-.96-.457l-.72.274-.72.457a2.64 3.017 0 0 1-1.92 0l-.64-.457a2.72 3.109 0 0 0-1.12-.457h-2.72a1.92 2.194 0 0 1-1.12-.457l-1.2-1.189a1.28 1.463 0 0 0-1.76 0c-.16 0-.24.275-.32.275a1.36 1.554 0 0 1-1.52.091 2.08 2.377 0 0 0-1.84-.183h-.32c-.32-.183-.48-.457-.72-.457a1.92 2.194 0 0 0-1.44.64l-.32.274a1.36 1.554 0 0 1-1.52 0 3.04 3.474 0 0 0-1.36-.731h-2l-.72.274a3.04 3.474 0 0 1-2.16.914 1.36 1.554 0 0 0-.8.275 9.84 11.246 0 0 1-2.08 1.097l-.32.274a2.88 3.291 0 0 1-1.44.64h-4.4a1.44 1.646 0 0 0-1.36 1.28l-.24.457a.88 1.006 0 0 1-.56.549l-.8.183a1.84 2.103 0 0 0-1.44.548l-.72.457a3.6 4.114 0 0 0-1.68 1.097 1.84 2.103 0 0 1-1.12.366H.72l-.72.183V128ZM157.52 14.173l-.24-.366a.8.914 0 0 1 .24-1.097l.24.274a.8.914 0 0 1-.24 1.189m4.64 4.023a.56.64 0 0 1-.32.731c-.32.274-.72-.091-.72-.64s.24-.914.64-.731a.64.731 0 0 1 .4.64m181.92 54.856a.32.366 0 0 1 .08.274c0 .183-.16.275-.4.275l-.24-.275a.64.731 0 0 1 .24-.64l.32.275zm3.36 4.48a.96 1.097 0 0 1-.96 1.097h-.4c-.16 0-.24-.091-.32-.274a1.36 1.554 0 0 1 1.2-1.829.88 1.006 0 0 1 .48.64zm267.04-4.48c.08.274-.08.457-.32.549l-.24-.183a.48.549 0 0 1 .24-.732l.24.275c0 .091 0-.183.08.091m74.16 18.926c-.48.182-.96 0-.96-.366a.64.731 0 0 1 .16-.366.88 1.006 0 0 1 .96-.183.4.457 0 0 1 .16.366c.08.274.16.366-.32.549m247.28 11.428a.56.64 0 0 1-.24.731h-.32c-.24-.274-.24-.457 0-.731h.08c.16-.183.4-.183.48 0"/><use href="#a19" opacity=".5" transform="translate(0 -.823)"/></svg>