<svg xmlns="http://www.w3.org/2000/svg" viewBox="0 0 1024 128"><path d="m145.383 0-3.16 2.408v2.407l3.16 2.408 3.16 7.226-6.32 9.631 3.16-2.407v2.407l-3.16 2.408v2.408h3.16v4.815l-6.32-2.407 3.16 4.815v7.226l-3.16-4.818-3.163 2.408V28.896l-3.16-2.408-3.16 4.816v2.407l-12.643 4.816-9.48-2.408-6.32 7.226v4.816l-3.162-4.816v9.631h-3.16v-7.223l-3.16-2.408V60.2l-3.16-12.038v2.407l-3.161 2.408v2.408l-3.162-4.816v4.816l-3.16-4.816v-4.815L76.64 47.56l-.79-1.807v2.408h-1.58l1.58 2.407v2.408h-3.16v2.408l-3.16 2.408v2.407l-3.16-2.407v2.407H63.21v-4.815l-3.16-2.408v-2.408l-3.16 4.816v-4.816l-3.16 9.631v4.816l3.16 4.818v2.408l-3.16 7.223h-3.16v2.408l3.16 2.408v4.815l-3.16-4.815-2.71-4.128-3.613 4.128v4.815l3.162-4.815v2.407l-3.162 2.408 3.162 2.408v4.815l-3.162-7.223-3.16-4.815 3.16-4.816-6.32 2.408v-9.631l-3.16 2.408v2.408l-3.16 2.407v2.408l-9.483 9.631-9.48 21.673L0 128h1024l-13.037-7.601-3.16-7.223h-3.16v-2.408l-3.16 4.815v2.408h3.16l-6.323 2.408v-2.408l-3.16 4.816-3.16-2.408v-9.631l3.16-4.816-3.16-2.407-9.482-2.408-3.16-4.819h-3.16v2.411l-3.16 2.408v-4.819l-3.161-4.815h-3.16v4.815l-3.162-2.407-3.16 2.407 3.16 7.227-3.16-4.816-3.16-2.41V93.91l-3.16 2.407v-4.815l-3.16 2.408-12.644-7.224-9.48-9.63-3.162-9.634-9.48 4.818-9.483 4.816-15.803-9.634-6.32-9.631-3.16-7.224-3.16-4.815-3.16 2.408-3.163 2.407v4.816h-3.16v2.408h-3.16v-2.408l-3.16 4.815-3.16-2.407v-7.224l-3.16 2.408h-3.163v16.857l-3.16-4.818-3.16-2.408-3.16-9.63v4.815l-3.16-4.816V60.2l-3.16-12.038-3.162-2.408v2.408h-3.16v-7.226h-3.16v4.818l-3.16 2.408v-2.408h-3.161v-2.408l-3.162 2.408v-9.634h-3.16v7.226h-3.16v-2.41h-3.16l3.16-2.408h-3.16V33.71h-3.16l-3.16 4.816v-2.408l-6.323 2.408v7.226h-3.16v-7.226l-3.16-4.816h-6.32v2.408h-3.163v2.408h-3.16v-2.408l-3.16 4.816-3.16-2.408v-2.408l-6.32 2.408v12.041l-3.163-4.815v7.223l-3.16-7.223-6.32 7.223-5.926-4.815-9.482-4.816-12.641-7.226H711.11L701.63 24.08l-9.48 2.408v2.408h3.16v2.408h-3.16l-6.32-14.447-6.323-2.408-3.16-2.41-3.16-2.408v4.818l-3.16-2.41h-3.163V9.63h-3.16v12.042h-3.16l3.16 4.815 3.16-2.408 3.162-2.407v2.407h3.16v2.408l-3.16 4.816v2.407l-3.162 2.408h-3.16l-3.16-2.408v4.816l-3.16 2.408-3.16 4.818 3.16 2.408h-3.16v2.407h3.16v2.408h-3.16l-3.16-4.815v-2.408l-3.163 2.408v-2.408l-3.16-2.408v-2.41l-3.16-4.816-3.16 2.408v-2.408l-3.16 2.408v4.818l-3.16 2.408v-4.818l-3.163 2.41-31.603-16.857v2.408h-6.322l-12.64-2.408h-18.964v2.408l-3.162 7.223-3.16-2.408v4.816l2.107 4.818h-2.107l-6.32-4.818v2.408l-3.16 2.41 3.16 2.408-2.528 1.926-3.793-4.334v-9.634l-3.162 2.408-3.16-2.408v2.408l-3.16-4.815v-4.816l-6.32 9.631v2.408l-6.323 14.45-3.16-2.409-3.16 2.408v2.408l-3.16 2.408-3.16-2.408v4.815h-3.162l-3.16 4.816-3.16-2.408V60.2l-1.897 5.78 1.896 1.444-3.16 2.41v2.408l-3.16-2.408v-4.818h3.16v-4.816l1.58-2.407h-1.58v-2.408l-3.16-2.408v-2.408l3.16-2.407v-2.408h-25.283v2.408l-3.162-2.408-6.32-2.408 3.16 2.408v2.408h-3.16l3.16 7.223v2.408l-3.16-2.408h-3.16l-3.16 4.815-6.323-9.63h-3.16l3.16 2.407-3.16 2.408v2.408l-3.16-4.816-3.16 2.408v-2.408l-3.16 4.816v-4.816l-3.16-2.408-3.163 4.816V43.345h-3.16l-3.16-2.41h-6.32l-3.163-2.408-3.16 2.408-3.16-2.408v-2.408l-4.213-3.211-2.107 3.211v9.634l-3.16-2.408v-4.818l-3.163-2.408v4.816l-.79-2.408h-2.37V33.71l-3.16-2.407v9.63l-3.16-12.038-6.32-4.816h-3.163v4.816l-6.32-4.816v-2.407l3.16-2.408h-3.16v-2.408l-1.053 1.604-2.107-1.604V14.45l-3.16 2.408v7.223l-3.16-7.223v2.408l-3.162-2.408V9.631h-9.48l-12.643 7.226-15.803 14.447-12.64 14.449-15.804-14.45h-3.16v2.408l-3.162-2.407-3.16 4.815-3.16-2.408v-2.407h-6.32v14.449l-3.16-7.226V33.71h-3.163v2.408l-3.16 2.408v4.818l-12.642 9.631-9.48-9.63-9.483-7.227-9.48 2.408-6.321 24.08-6.322 2.408-12.641 2.408-6.322-4.816-6.32-12.039v2.408l-3.16-7.223-3.16-12.042v7.224l-3.163-4.816v2.408l-3.16-2.408-3.16-2.408-3.16-2.407h-3.16v2.407l-3.163-3.211-6.32-6.42v-2.407h6.32v-2.408l3.162 2.408 3.16-2.408v-7.226l-3.16 4.818V12.04l-3.162 2.41v2.408l-3.16-2.408v2.408l-3.16-7.226V4.815l3.16-2.407zm12.642 9.631-3.162-4.816v2.408Zm214.913 12.042h-3.16v2.407zm123.26 33.71-3.16-4.815v2.408zm41.085-33.71-3.16 2.407v-2.407l-3.16-2.408v4.815l3.16 4.816zM72.691 45.753l-3.16-4.818-3.16 2.41v4.816l3.16 2.407v-2.407h3.16zm66.372-33.714v4.818l3.16 4.816V9.63Zm530.962 2.41 3.16 2.408h-3.16zm3.16 4.816h1.58l-1.58 2.408zm3.16 2.408 3.16 2.407h-3.16zM113.778 40.935l3.16 2.41v4.816zm31.606 0 3.16 4.818h3.16l-3.16 2.408-3.16-4.816zm6.32 0h3.16v4.818zm126.42 0 3.16 2.41v7.223l-3.16-7.223zm104.297 0 3.16 2.41v4.816l3.16 4.815-3.16 2.408v-4.816zm-221.234 2.41-3.16 4.816v-2.408zm110.617 0h3.16l3.16 4.816v2.407zm120.097 0 3.163 2.408 3.16 4.815v2.408l-6.323-7.223v4.815h3.163v2.408H391.9l-3.16-7.223zm265.483 0h3.16v2.408zm113.383 2.408 3.16 2.408v-2.408l3.16 2.408v7.223l-3.16-2.408v2.408h-3.16l-3.16-7.223zm-296.692 4.815 6.32 4.816v4.815l3.16 4.816-3.16 2.408h3.16l-3.16 4.818v4.816h3.16l-6.32 2.407v-2.407l-3.16 4.815-3.16-2.408v-9.63l3.16-7.227-3.16 2.408v-2.408l3.16-2.408v2.408l3.16-4.815h-3.16zm173.826 0 3.163 2.408-3.163 2.408zm-161.183 2.408 3.16 2.408v2.408zM512 62.607l3.16 2.408v2.408H512Zm331.457 7.226h3.16v2.408zm-571.654 2.408v2.408l-3.16 2.408zm-69.532 9.631 3.16 4.815h-3.16zM56.89 115.583v4.816l-3.16 2.408v-2.408z"/></svg>