<svg xmlns="http://www.w3.org/2000/svg" viewBox="0 0 1024 128"><g opacity=".7"><path d="M0 12.937V128h524.288l26.163-73.64C631.399 31.347 763.588 2.3 860.727 0c-247.57 0-325.288 51.369-508.6 61.263C206.4 69.13 17.661 18.516 0 12.937" opacity=".5"/><path d="M0 128h524.288l30.21-64.084C701.584 10.084 857.494-13.204 1024 26.75c-225.065-79.433-481.193 42.12-712.348 54.773C191.404 88.103 59.208 71.7 0 56.092Z"/></g><path d="M416.128 95.782c91.27-13.4 224.509-75.15 403.888-73.64 93.911.79 167.267 23.013 203.984 39.121V128H0V77.372c68 16.586 226.135 46.306 416.128 18.41"/></svg>