<svg xmlns="http://www.w3.org/2000/svg" viewBox="0 0 1024 128"><path d="M1024 128V54.9C839.584-66.713 844.4 98.943 765.28 63.123c-29.52-13.432-58.24-27.138-89.12-34.174-60.64-13.706-118.32-6.122-178.64 15.26C437.2 65.59 337.742 97.823 274.549 97.823 216.845 97.823 72.934 102.995 0 54.9V128Z" opacity=".25"/><path d="M1024 128V82.312c-52.252 59.682-191 10.257-270.16-.091C682.558 72.902 619.163-20.205 552.4 4.003c-62.24 22.569-88.344 130.641-172.56 121.53-55.977-6.056-122.864-88.168-188.16-103.986C103.035.074 37.056 39.987 0 82.312V128Z" opacity=".5"/><path d="M1024 128v-10.965c-63.995 19.586-113.206-93.751-228.32-93.751-149.306 0-181.512 116.397-280.72 85.984C309.722 46.352 172.234 64.323 0 117.035V128Z"/></svg>